# This file uses centimeters as units for non-parametric coordinates.

mtllib box.mtl
g default
v 0.411343 0.603686 0.695659
v 0.438061 0.619112 0.695659
v 0.438061 0.588260 0.695659
v 0.411342 0.572834 0.695659
v 0.384624 0.588259 0.695659
v 0.384624 0.619112 0.695659
v 0.411343 0.634538 0.695659
v 0.438061 0.619112 0.457978
v 0.438061 0.588260 0.457978
v 0.411342 0.572834 0.457978
v 0.384624 0.588259 0.457978
v 0.384624 0.619112 0.457978
v 0.411343 0.634538 0.457978
v 0.411343 0.603686 0.457978
v 0.411343 0.603686 -0.695659
v 0.438061 0.619112 -0.695659
v 0.438061 0.588260 -0.695659
v 0.411342 0.572834 -0.695659
v 0.384624 0.588259 -0.695659
v 0.384624 0.619112 -0.695659
v 0.411343 0.634538 -0.695659
v 0.438061 0.619112 -0.457978
v 0.438061 0.588260 -0.457978
v 0.411342 0.572834 -0.457978
v 0.384624 0.588259 -0.457978
v 0.384624 0.619112 -0.457978
v 0.411343 0.634538 -0.457978
v 0.411343 0.603686 -0.457978
v -0.326250 0.071133 1.097043
v 0.325988 0.071133 1.097042
v -0.326250 0.723383 1.097043
v 0.325988 0.723383 1.097042
v -0.326250 0.807252 -1.013175
v 0.325988 0.807252 -1.013175
v -0.326250 0.071133 -1.097042
v 0.325988 0.071133 -1.097043
v 0.325988 0.807252 1.013175
v 0.409857 0.723383 1.013174
v 0.325988 0.723383 -1.097043
v 0.409857 0.723383 -1.013175
v -0.410118 0.723383 -1.013174
v -0.326250 0.723383 -1.097042
v -0.410118 0.723383 1.013175
v -0.326250 0.807252 1.013175
v 0.325988 -0.012735 -1.013175
v 0.409857 0.071133 -1.013175
v 0.409857 0.071133 1.013174
v 0.325988 -0.012735 1.013175
v -0.326250 -0.012735 1.013175
v -0.410118 0.071133 1.013175
v -0.410118 0.071133 -1.013174
v -0.326250 -0.012735 -1.013175
v -0.326250 0.621432 -1.097042
v 0.325988 0.621432 -1.097043
v 0.409857 0.621432 -1.013175
v 0.409857 0.621432 1.013174
v 0.325988 0.621432 1.097042
v -0.326250 0.621432 1.097043
v -0.410118 0.621432 1.013175
v -0.410118 0.621432 -1.013174
v -0.326250 0.590407 -1.097042
v 0.325988 0.590407 -1.097043
v 0.409857 0.590407 -1.013175
v 0.409857 0.590407 1.013174
v 0.325988 0.590407 1.097042
v -0.326250 0.590407 1.097043
v -0.410118 0.590407 1.013175
v -0.410118 0.590407 -1.013174
v -0.390396 0.620600 0.958882
v -0.390396 0.620600 -0.958882
v -0.390396 0.591239 -0.958882
v -0.390396 0.591239 0.958882
v -0.311022 0.620600 -1.038257
v 0.306266 0.620600 -1.038258
v 0.306266 0.591239 -1.038258
v -0.311022 0.591239 -1.038257
v 0.306266 0.591239 1.038257
v 0.306266 0.620600 1.038257
v -0.311022 0.620600 1.038258
v -0.311022 0.591239 1.038258
v -0.437971 0.522606 0.060635
v -0.309499 0.522606 0.060635
v -0.437971 0.651078 0.060635
v -0.309499 0.651078 0.060635
v -0.437971 0.651078 -0.067837
v -0.309499 0.651078 -0.067837
v -0.437971 0.522606 -0.067837
v -0.309499 0.522606 -0.067837
vt 0.500000 0.316667
vt 0.370096 0.241667
vt 0.500000 0.166667
vt 0.166667 0.016667
vt 0.166667 0.016667
vt 0.166667 0.316667
vt 0.036763 0.316667
vt 0.500000 0.500000
vt 0.370096 0.425000
vt 0.500000 0.350000
vt 0.370096 0.241667
vt 0.370096 0.091667
vt 0.500000 0.166667
vt 0.575000 0.683333
vt 0.575000 0.683333
vt 0.575000 0.983333
vt 0.425000 0.983333
vt 0.500000 0.500000
vt 0.370096 0.575000
vt 0.370096 0.425000
vt 0.370096 0.091667
vt 0.500000 0.016667
vt 0.500000 0.166667
vt 0.296571 0.350000
vt 0.296571 0.350000
vt 0.296571 0.650000
vt 0.166667 0.650000
vt 0.500000 0.500000
vt 0.500000 0.650000
vt 0.370096 0.575000
vt 0.500000 0.016667
vt 0.629904 0.091667
vt 0.500000 0.166667
vt 0.166667 0.350000
vt 0.166667 0.350000
vt 0.166667 0.650000
vt 0.036763 0.650000
vt 0.500000 0.500000
vt 0.629904 0.575000
vt 0.500000 0.650000
vt 0.629904 0.091667
vt 0.629904 0.241667
vt 0.500000 0.166667
vt 0.241667 0.683333
vt 0.241667 0.683333
vt 0.241667 0.983333
vt 0.091667 0.983333
vt 0.500000 0.500000
vt 0.629904 0.425000
vt 0.629904 0.575000
vt 0.629904 0.241667
vt 0.500000 0.316667
vt 0.500000 0.166667
vt 0.296571 0.016667
vt 0.296571 0.016667
vt 0.296571 0.316667
vt 0.166667 0.316667
vt 0.500000 0.500000
vt 0.500000 0.350000
vt 0.629904 0.425000
vt 0.500000 0.316667
vt 0.370096 0.241667
vt 0.500000 0.166667
vt 0.166667 0.316667
vt 0.036763 0.316667
vt 0.036763 0.016667
vt 0.166667 0.016667
vt 0.500000 0.500000
vt 0.370096 0.425000
vt 0.500000 0.350000
vt 0.370096 0.241667
vt 0.370096 0.091667
vt 0.500000 0.166667
vt 0.575000 0.983333
vt 0.425000 0.983333
vt 0.425000 0.683333
vt 0.575000 0.683333
vt 0.500000 0.500000
vt 0.370096 0.575000
vt 0.370096 0.425000
vt 0.370096 0.091667
vt 0.500000 0.016667
vt 0.500000 0.166667
vt 0.296571 0.650000
vt 0.166667 0.650000
vt 0.166667 0.350000
vt 0.296571 0.350000
vt 0.500000 0.500000
vt 0.500000 0.650000
vt 0.370096 0.575000
vt 0.500000 0.016667
vt 0.629904 0.091667
vt 0.500000 0.166667
vt 0.166667 0.650000
vt 0.036763 0.650000
vt 0.036763 0.350000
vt 0.166667 0.350000
vt 0.500000 0.500000
vt 0.629904 0.575000
vt 0.500000 0.650000
vt 0.629904 0.091667
vt 0.629904 0.241667
vt 0.500000 0.166667
vt 0.241667 0.983333
vt 0.091667 0.983333
vt 0.091667 0.683333
vt 0.241667 0.683333
vt 0.500000 0.500000
vt 0.629904 0.425000
vt 0.629904 0.575000
vt 0.629904 0.241667
vt 0.500000 0.316667
vt 0.500000 0.166667
vt 0.296571 0.316667
vt 0.166667 0.316667
vt 0.166667 0.016667
vt 0.296571 0.016667
vt 0.500000 0.500000
vt 0.500000 0.350000
vt 0.629904 0.425000
vt 0.350000 0.650000
vt 0.350000 0.350000
vt 0.650000 0.350000
vt 0.650000 0.650000
vt 0.650000 0.016667
vt 0.650000 0.316667
vt 0.350000 0.316667
vt 0.350000 0.016667
vt 0.000000 0.000000
vt 0.000000 0.000000
vt 0.000000 0.000000
vt 0.000000 0.000000
vt 0.000000 0.000000
vt 0.000000 0.000000
vt 0.000000 0.000000
vt 0.000000 0.000000
vt 0.000000 0.000000
vt 0.000000 0.000000
vt 0.000000 0.000000
vt 0.000000 0.000000
vt 0.000000 0.000000
vt 0.000000 0.000000
vt 0.000000 0.000000
vt 0.000000 0.000000
vt 0.000000 0.000000
vt 0.000000 0.000000
vt 0.000000 0.000000
vt 0.000000 0.000000
vt 0.000000 0.000000
vt 0.000000 0.000000
vt 0.000000 0.000000
vt 0.000000 0.000000
vt 0.000000 0.000000
vt 0.000000 0.000000
vt 0.000000 0.000000
vt 0.000000 0.000000
vt 0.000000 0.000000
vt 0.000000 0.000000
vt 0.000000 0.000000
vt 0.000000 0.000000
vt 0.000000 0.000000
vt 0.000000 0.000000
vt 0.000000 0.000000
vt 0.000000 0.000000
vt 0.000000 0.000000
vt 0.000000 0.000000
vt 0.000000 0.000000
vt 0.000000 0.000000
vt 0.000000 0.000000
vt 0.000000 0.000000
vt 0.000000 0.000000
vt 0.000000 0.000000
vt 0.000000 0.000000
vt 0.000000 0.000000
vt 0.000000 0.000000
vt 0.000000 0.000000
vt 0.000000 0.000000
vt 0.000000 0.000000
vt 0.000000 0.000000
vt 0.000000 0.000000
vt 0.000000 0.000000
vt 0.000000 0.000000
vt 0.000000 0.000000
vt 0.000000 0.000000
vt 0.000000 0.000000
vt 0.000000 0.000000
vt 0.000000 0.000000
vt 0.000000 0.000000
vt 0.000000 0.000000
vt 0.000000 0.000000
vt 0.000000 0.000000
vt 0.000000 0.000000
vt 0.000000 0.000000
vt 0.000000 0.000000
vt 0.000000 0.000000
vt 0.000000 0.000000
vt 0.000000 0.000000
vt 0.000000 0.000000
vt 0.000000 0.000000
vt 0.000000 0.000000
vt 0.000000 0.000000
vt 0.000000 0.000000
vt 0.000000 0.000000
vt 0.000000 0.000000
vt 0.000000 0.000000
vt 0.000000 0.000000
vt 0.000000 0.000000
vt 0.000000 0.000000
vt 0.000000 0.000000
vt 0.000000 0.000000
vt 0.000000 0.000000
vt 0.000000 0.000000
vt 0.000000 0.000000
vt 0.000000 0.000000
vt 0.000000 0.000000
vt 0.000000 0.000000
vt 0.000000 0.000000
vt 0.000000 0.000000
vt 0.000000 0.000000
vt 0.000000 0.000000
vt 0.000000 0.000000
vt 0.000000 0.000000
vt 0.000000 0.000000
vt 0.000000 0.000000
vt 0.000000 0.000000
vt 0.000000 0.000000
vt 0.000000 0.000000
vt 0.000000 0.000000
vt 0.000000 0.000000
vt 0.000000 0.000000
vt 0.000000 0.000000
vt 0.000000 0.000000
vt 0.000000 0.000000
vt 0.000000 0.000000
vt 0.000000 0.000000
vt 0.000000 0.000000
vt 0.000000 0.000000
vt 0.000000 0.000000
vt 0.000000 0.000000
vt 0.000000 0.000000
vt 0.000000 0.000000
vt 0.000000 0.000000
vt 0.000000 0.000000
vt 0.000000 0.000000
vt 0.000000 0.000000
vt 0.000000 0.000000
vt 0.000000 0.000000
vt 0.000000 0.000000
vt 0.000000 0.000000
vt 0.000000 0.000000
vt 0.000000 0.000000
vt 0.000000 0.000000
vt 0.000000 0.000000
vt 0.000000 0.000000
vt 0.000000 0.000000
vt 0.000000 0.000000
vt 0.000000 0.000000
vt 0.000000 0.000000
vt 0.000000 0.000000
vt 0.000000 0.000000
vt 0.000000 0.000000
vt 0.000000 0.000000
vt 0.000000 0.000000
vt 0.000000 0.000000
vt 0.000000 0.000000
vt 0.000000 0.000000
vt 0.000000 0.000000
vt 0.000000 0.000000
vt 0.000000 0.000000
vt 0.000000 0.000000
vt 0.000000 0.000000
vt 0.000000 0.000000
vt 0.000000 0.000000
vt 0.000000 0.000000
vt 0.000000 0.000000
vt 0.000000 0.000000
vt 0.000000 0.000000
vt 0.000000 0.000000
vt 0.000000 0.000000
vt 0.000000 0.000000
vt 0.000000 0.000000
vt 0.000000 0.000000
vt 0.000000 0.000000
vt 0.000000 0.000000
vt 0.000000 0.000000
vt 0.000000 0.000000
vt 0.000000 0.000000
vt 0.000000 0.000000
vt 0.000000 0.000000
vt 0.000000 0.000000
vt 0.000000 0.000000
vt 0.000000 0.000000
vt 0.000000 0.000000
vt 0.000000 0.000000
vt 0.000000 0.000000
vt 0.000000 0.000000
vt 0.000000 0.000000
vt 0.000000 0.000000
vt 0.000000 0.000000
vt 0.000000 0.000000
vt 0.000000 0.000000
vt 0.000000 0.000000
vt 0.000000 0.000000
vt 0.000000 0.000000
vt 0.000000 0.000000
vt 0.000000 0.000000
vt 0.000000 0.000000
vt 0.000000 0.000000
vt 0.000000 0.000000
vt 0.000000 0.000000
vt 0.000000 0.000000
vt 0.000000 0.000000
vt 0.000000 0.000000
vt 0.000000 0.000000
vt 0.000000 0.000000
vt 0.000000 0.000000
vt 0.000000 0.000000
vt 0.000000 0.000000
vt 0.000000 0.000000
vt 0.000000 0.000000
vt 0.000000 0.000000
vt 0.000000 0.000000
vt 0.000000 0.000000
vt 0.000000 0.000000
vt 0.000000 0.000000
vt 0.000000 0.000000
vt 0.000000 0.000000
vt 0.000000 0.000000
vt 0.350000 0.683333
vt 0.650000 0.683333
vt 0.650000 0.983333
vt 0.350000 0.983333
vt 0.350000 0.650000
vt 0.350000 0.350000
vt 0.650000 0.350000
vt 0.650000 0.650000
vt 0.316667 0.983333
vt 0.016667 0.983333
vt 0.016667 0.683333
vt 0.316667 0.683333
vt 0.650000 0.016667
vt 0.650000 0.316667
vt 0.350000 0.316667
vt 0.350000 0.016667
vt 0.016667 0.350000
vt 0.316667 0.350000
vt 0.316667 0.650000
vt 0.016667 0.650000
vt 0.016667 0.016667
vt 0.316667 0.016667
vt 0.316667 0.316667
vt 0.016667 0.316667
vn 0.000000 0.000000 1.000000
vn 0.000000 0.000000 1.000000
vn 0.000000 0.000000 1.000000
vn 1.000000 -0.000004 0.000000
vn 1.000000 -0.000004 0.000000
vn 1.000000 -0.000004 0.000000
vn 1.000000 -0.000004 0.000000
vn -0.000001 0.000000 -1.000000
vn -0.000001 0.000000 -1.000000
vn -0.000001 0.000000 -1.000000
vn 0.000002 0.000000 1.000000
vn 0.000002 0.000000 1.000000
vn 0.000002 0.000000 1.000000
vn 0.500005 -0.866022 0.000000
vn 0.500005 -0.866022 0.000000
vn 0.500005 -0.866022 0.000000
vn 0.500005 -0.866022 0.000000
vn 0.000000 0.000000 -1.000000
vn 0.000000 0.000000 -1.000000
vn 0.000000 0.000000 -1.000000
vn 0.000000 0.000000 1.000000
vn 0.000000 0.000000 1.000000
vn 0.000000 0.000000 1.000000
vn -0.500002 -0.866024 0.000000
vn -0.500002 -0.866024 0.000000
vn -0.500002 -0.866024 0.000000
vn -0.500002 -0.866024 0.000000
vn 0.000002 0.000000 -1.000000
vn 0.000002 0.000000 -1.000000
vn 0.000002 0.000000 -1.000000
vn 0.000000 0.000000 1.000000
vn 0.000000 0.000000 1.000000
vn 0.000000 0.000000 1.000000
vn -1.000000 0.000015 0.000000
vn -1.000000 0.000015 0.000000
vn -1.000000 0.000015 0.000000
vn -1.000000 0.000015 0.000000
vn -0.000001 0.000000 -1.000000
vn -0.000001 0.000000 -1.000000
vn -0.000001 0.000000 -1.000000
vn 0.000000 0.000000 1.000000
vn 0.000000 0.000000 1.000000
vn 0.000000 0.000000 1.000000
vn -0.500016 0.866016 0.000000
vn -0.500016 0.866016 0.000000
vn -0.500016 0.866016 0.000000
vn -0.500016 0.866016 0.000000
vn 0.000001 0.000000 -1.000000
vn 0.000001 0.000000 -1.000000
vn 0.000001 0.000000 -1.000000
vn 0.000000 0.000000 1.000000
vn 0.000000 0.000000 1.000000
vn 0.000000 0.000000 1.000000
vn 0.500013 0.866018 0.000000
vn 0.500013 0.866018 0.000000
vn 0.500013 0.866018 0.000000
vn 0.500013 0.866018 0.000000
vn 0.000000 0.000000 -1.000000
vn 0.000000 0.000000 -1.000000
vn 0.000000 0.000000 -1.000000
vn 0.000000 0.000000 -1.000000
vn 0.000000 0.000000 -1.000000
vn 0.000000 0.000000 -1.000000
vn 1.000000 -0.000004 0.000000
vn 1.000000 -0.000004 0.000000
vn 1.000000 -0.000004 0.000000
vn 1.000000 -0.000004 0.000000
vn -0.000001 0.000000 1.000000
vn -0.000001 0.000000 1.000000
vn -0.000001 0.000000 1.000000
vn 0.000002 0.000000 -1.000000
vn 0.000002 0.000000 -1.000000
vn 0.000002 0.000000 -1.000000
vn 0.500005 -0.866022 0.000000
vn 0.500005 -0.866022 0.000000
vn 0.500005 -0.866022 0.000000
vn 0.500005 -0.866022 0.000000
vn 0.000000 0.000000 1.000000
vn 0.000000 0.000000 1.000000
vn 0.000000 0.000000 1.000000
vn 0.000000 0.000000 -1.000000
vn 0.000000 0.000000 -1.000000
vn 0.000000 0.000000 -1.000000
vn -0.500002 -0.866024 0.000000
vn -0.500002 -0.866024 0.000000
vn -0.500002 -0.866024 0.000000
vn -0.500002 -0.866024 0.000000
vn 0.000002 0.000000 1.000000
vn 0.000002 0.000000 1.000000
vn 0.000002 0.000000 1.000000
vn 0.000000 0.000000 -1.000000
vn 0.000000 0.000000 -1.000000
vn 0.000000 0.000000 -1.000000
vn -1.000000 0.000015 0.000000
vn -1.000000 0.000015 0.000000
vn -1.000000 0.000015 0.000000
vn -1.000000 0.000015 0.000000
vn -0.000001 0.000000 1.000000
vn -0.000001 0.000000 1.000000
vn -0.000001 0.000000 1.000000
vn 0.000000 0.000000 -1.000000
vn 0.000000 0.000000 -1.000000
vn 0.000000 0.000000 -1.000000
vn -0.500016 0.866016 0.000000
vn -0.500016 0.866016 0.000000
vn -0.500016 0.866016 0.000000
vn -0.500016 0.866016 0.000000
vn 0.000001 0.000000 1.000000
vn 0.000001 0.000000 1.000000
vn 0.000001 0.000000 1.000000
vn 0.000000 0.000000 -1.000000
vn 0.000000 0.000000 -1.000000
vn 0.000000 0.000000 -1.000000
vn 0.500013 0.866018 0.000000
vn 0.500013 0.866018 0.000000
vn 0.500013 0.866018 0.000000
vn 0.500013 0.866018 0.000000
vn 0.000000 0.000000 1.000000
vn 0.000000 0.000000 1.000000
vn 0.000000 0.000000 1.000000
vn 0.000000 1.000000 0.000000
vn 0.000000 1.000000 0.000000
vn 0.000000 1.000000 0.000000
vn 0.000000 1.000000 0.000000
vn 0.000000 -1.000000 0.000000
vn 0.000000 -1.000000 0.000000
vn 0.000000 -1.000000 0.000000
vn 0.000000 -1.000000 0.000000
vn 0.707107 0.707107 0.000000
vn 0.707107 0.707107 0.000000
vn 0.707107 0.707107 0.000000
vn 0.707107 0.707107 0.000000
vn -0.707107 0.707107 0.000000
vn -0.707107 0.707107 0.000000
vn -0.707107 0.707107 0.000000
vn -0.707107 0.707107 0.000000
vn 0.707107 -0.707107 0.000000
vn 0.707107 -0.707107 0.000000
vn 0.707107 -0.707107 0.000000
vn 0.707107 -0.707107 0.000000
vn -0.707107 -0.707107 0.000000
vn -0.707107 -0.707107 0.000000
vn -0.707107 -0.707107 0.000000
vn -0.707107 -0.707107 0.000000
vn 0.000000 0.707105 0.707108
vn 0.000000 0.707105 0.707108
vn 0.000000 0.707105 0.707108
vn 0.000000 0.707105 0.707108
vn 0.000000 -0.707105 0.707108
vn 0.000000 -0.707105 0.707108
vn 0.000000 -0.707105 0.707108
vn 0.000000 -0.707105 0.707108
vn -0.000000 -0.707105 -0.707108
vn -0.000000 -0.707105 -0.707108
vn -0.000000 -0.707105 -0.707108
vn -0.000000 -0.707105 -0.707108
vn -0.000000 0.707105 -0.707108
vn -0.000000 0.707105 -0.707108
vn -0.000000 0.707105 -0.707108
vn -0.000000 0.707105 -0.707108
vn 0.577351 0.577347 0.577352
vn 0.577351 0.577347 0.577352
vn 0.577351 0.577347 0.577352
vn 0.577350 0.577350 -0.577350
vn 0.577350 0.577350 -0.577350
vn 0.577350 0.577350 -0.577350
vn -0.577351 0.577347 -0.577352
vn -0.577351 0.577347 -0.577352
vn -0.577351 0.577347 -0.577352
vn -0.577350 0.577350 0.577350
vn -0.577350 0.577350 0.577350
vn -0.577350 0.577350 0.577350
vn 0.577350 -0.577350 -0.577350
vn 0.577350 -0.577350 -0.577350
vn 0.577350 -0.577350 -0.577350
vn 0.577351 -0.577347 0.577352
vn 0.577351 -0.577347 0.577352
vn 0.577351 -0.577347 0.577352
vn -0.577350 -0.577350 0.577350
vn -0.577350 -0.577350 0.577350
vn -0.577350 -0.577350 0.577350
vn -0.577352 -0.577347 -0.577352
vn -0.577352 -0.577347 -0.577352
vn -0.577352 -0.577347 -0.577352
vn -0.000001 0.000000 -1.000000
vn -0.000001 0.000000 -1.000000
vn -0.000001 0.000000 -1.000000
vn -0.000001 0.000000 -1.000000
vn 0.707107 0.000000 -0.707107
vn 0.707107 0.000000 -0.707107
vn 0.707107 0.000000 -0.707107
vn 0.707107 0.000000 -0.707107
vn 1.000000 0.000000 0.000000
vn 1.000000 0.000000 0.000000
vn 1.000000 0.000000 0.000000
vn 1.000000 0.000000 0.000000
vn 0.707107 0.000000 0.707106
vn 0.707107 0.000000 0.707106
vn 0.707107 0.000000 0.707106
vn 0.707107 0.000000 0.707106
vn 0.000001 0.000000 1.000000
vn 0.000001 0.000000 1.000000
vn 0.000001 0.000000 1.000000
vn 0.000001 0.000000 1.000000
vn -0.707107 0.000000 0.707107
vn -0.707107 0.000000 0.707107
vn -0.707107 0.000000 0.707107
vn -0.707107 0.000000 0.707107
vn -1.000000 0.000000 0.000000
vn -1.000000 0.000000 0.000000
vn -1.000000 0.000000 0.000000
vn -1.000000 0.000000 0.000000
vn -0.707107 0.000000 -0.707106
vn -0.707107 0.000000 -0.707106
vn -0.707107 0.000000 -0.707106
vn -0.707107 0.000000 -0.707106
vn -0.000001 0.000000 -1.000000
vn -0.000001 0.000000 -1.000000
vn -0.000001 0.000000 -1.000000
vn -0.000001 0.000000 -1.000000
vn -0.000001 0.000000 -1.000000
vn -0.000001 0.000000 -1.000000
vn -0.000001 0.000000 -1.000000
vn -0.000001 0.000000 -1.000000
vn 0.707107 0.000000 -0.707107
vn 0.707107 0.000000 -0.707107
vn 0.707107 0.000000 -0.707107
vn 0.707107 0.000000 -0.707107
vn 0.707107 0.000000 -0.707107
vn 0.707107 0.000000 -0.707107
vn 0.707107 0.000000 -0.707107
vn 0.707107 0.000000 -0.707107
vn 1.000000 0.000000 0.000000
vn 1.000000 0.000000 0.000000
vn 1.000000 0.000000 0.000000
vn 1.000000 0.000000 0.000000
vn 1.000000 0.000000 0.000000
vn 1.000000 0.000000 0.000000
vn 1.000000 0.000000 0.000000
vn 1.000000 0.000000 0.000000
vn 0.707107 0.000000 0.707107
vn 0.707107 0.000000 0.707107
vn 0.707107 0.000000 0.707107
vn 0.707107 0.000000 0.707107
vn 0.707107 0.000000 0.707106
vn 0.707107 0.000000 0.707106
vn 0.707107 0.000000 0.707106
vn 0.707107 0.000000 0.707106
vn 0.000001 0.000000 1.000000
vn 0.000001 0.000000 1.000000
vn 0.000001 0.000000 1.000000
vn 0.000001 0.000000 1.000000
vn 0.000001 0.000000 1.000000
vn 0.000001 0.000000 1.000000
vn 0.000001 0.000000 1.000000
vn 0.000001 0.000000 1.000000
vn -0.707112 0.000000 0.707102
vn -0.707112 0.000000 0.707102
vn -0.707112 0.000000 0.707102
vn -0.707112 0.000000 0.707102
vn -0.707106 0.000000 0.707107
vn -0.707106 0.000000 0.707107
vn -0.707106 0.000000 0.707107
vn -0.707106 0.000000 0.707107
vn -1.000000 0.000000 0.000000
vn -1.000000 0.000000 0.000000
vn -1.000000 0.000000 0.000000
vn -1.000000 0.000000 0.000000
vn -1.000000 0.000000 0.000000
vn -1.000000 0.000000 0.000000
vn -1.000000 0.000000 0.000000
vn -1.000000 0.000000 0.000000
vn -0.707107 0.000000 -0.707106
vn -0.707107 0.000000 -0.707106
vn -0.707107 0.000000 -0.707106
vn -0.707107 0.000000 -0.707106
vn -0.707109 0.000000 -0.707105
vn -0.707109 0.000000 -0.707105
vn -0.707109 0.000000 -0.707105
vn -0.707109 0.000000 -0.707105
vn -0.042109 -0.999113 0.000000
vn -0.042109 -0.999113 0.000000
vn -0.042109 -0.999113 0.000000
vn -0.042109 -0.999113 0.000000
vn -0.042112 0.999113 0.000000
vn -0.042112 0.999113 0.000000
vn -0.042112 0.999113 0.000000
vn -0.042112 0.999113 0.000000
vn -0.000000 -0.999900 -0.014138
vn -0.000000 -0.999900 -0.014138
vn -0.000000 -0.999900 -0.014138
vn -0.000000 -0.999900 -0.014138
vn -0.948066 0.000000 -0.318073
vn -0.948066 0.000000 -0.318073
vn -0.948066 0.000000 -0.318073
vn -0.948066 0.000000 -0.318073
vn -0.000000 0.999900 -0.014140
vn -0.000000 0.999900 -0.014140
vn -0.000000 0.999900 -0.014140
vn -0.000000 0.999900 -0.014140
vn -0.011229 -0.999874 -0.011230
vn -0.011229 -0.999874 -0.011230
vn -0.011229 -0.999874 -0.011230
vn -0.011229 -0.999874 -0.011230
vn -0.011230 0.999874 -0.011230
vn -0.011230 0.999874 -0.011230
vn -0.011230 0.999874 -0.011230
vn -0.011230 0.999874 -0.011230
vn -0.948066 0.000000 0.318073
vn -0.948066 0.000000 0.318073
vn -0.948066 0.000000 0.318073
vn -0.948066 0.000000 0.318073
vn 0.000000 -0.999900 0.014138
vn 0.000000 -0.999900 0.014138
vn 0.000000 -0.999900 0.014138
vn 0.000000 -0.999900 0.014138
vn 0.000000 0.999900 0.014140
vn 0.000000 0.999900 0.014140
vn 0.000000 0.999900 0.014140
vn 0.000000 0.999900 0.014140
vn -0.011229 -0.999874 0.011229
vn -0.011229 -0.999874 0.011229
vn -0.011229 -0.999874 0.011229
vn -0.011229 -0.999874 0.011229
vn -0.011230 0.999874 0.011230
vn -0.011230 0.999874 0.011230
vn -0.011230 0.999874 0.011230
vn -0.011230 0.999874 0.011230
vn 0.000000 0.000000 1.000000
vn 0.000000 0.000000 1.000000
vn 0.000000 0.000000 1.000000
vn 0.000000 0.000000 1.000000
vn 0.000000 1.000000 0.000000
vn 0.000000 1.000000 0.000000
vn 0.000000 1.000000 0.000000
vn 0.000000 1.000000 0.000000
vn 0.000000 0.000000 -1.000000
vn 0.000000 0.000000 -1.000000
vn 0.000000 0.000000 -1.000000
vn 0.000000 0.000000 -1.000000
vn 0.000000 -1.000000 0.000000
vn 0.000000 -1.000000 0.000000
vn 0.000000 -1.000000 0.000000
vn 0.000000 -1.000000 0.000000
vn -1.000000 0.000000 0.000000
vn -1.000000 0.000000 0.000000
vn -1.000000 0.000000 0.000000
vn -1.000000 0.000000 0.000000
vn 1.000000 0.000000 0.000000
vn 1.000000 0.000000 0.000000
vn 1.000000 0.000000 0.000000
vn 1.000000 0.000000 0.000000
s off
g a062b1fa83199b6:name4
usemtl lambert3SG
f 1/1/1 3/2/2 2/3/3
f 2/4/4 3/5/5 9/6/6 8/7/7
f 8/8/8 9/9/9 14/10/10
f 1/11/11 4/12/12 3/13/13
f 3/14/14 4/15/15 10/16/16 9/17/17
f 9/18/18 10/19/19 14/20/20
f 1/21/21 5/22/22 4/23/23
f 4/24/24 5/25/25 11/26/26 10/27/27
f 10/28/28 11/29/29 14/30/30
f 1/31/31 6/32/32 5/33/33
f 5/34/34 6/35/35 12/36/36 11/37/37
f 11/38/38 12/39/39 14/40/40
f 1/41/41 7/42/42 6/43/43
f 6/44/44 7/45/45 13/46/46 12/47/47
f 12/48/48 13/49/49 14/50/50
f 1/51/51 2/52/52 7/53/53
f 7/54/54 2/55/55 8/56/56 13/57/57
f 13/58/58 8/59/59 14/60/60
f 16/61/61 17/62/62 15/63/63
f 22/64/64 23/65/65 17/66/66 16/67/67
f 28/68/68 23/69/69 22/70/70
f 17/71/71 18/72/72 15/73/73
f 23/74/74 24/75/75 18/76/76 17/77/77
f 28/78/78 24/79/79 23/80/80
f 18/81/81 19/82/82 15/83/83
f 24/84/84 25/85/85 19/86/86 18/87/87
f 28/88/88 25/89/89 24/90/90
f 19/91/91 20/92/92 15/93/93
f 25/94/94 26/95/95 20/96/96 19/97/97
f 28/98/98 26/99/99 25/100/100
f 20/101/101 21/102/102 15/103/103
f 26/104/104 27/105/105 21/106/106 20/107/107
f 28/108/108 27/109/109 26/110/110
f 21/111/111 16/112/112 15/113/113
f 27/114/114 22/115/115 16/116/116 21/117/117
f 28/118/118 22/119/119 27/120/120
f 44/121/121 37/122/122 34/123/123 33/124/124
f 52/125/125 45/126/126 48/127/127 49/128/128
f 34/129/129 37/130/130 38/131/131 40/132/132
f 44/133/133 33/134/134 41/135/135 43/136/136
f 48/137/137 45/138/138 46/139/139 47/140/140
f 52/141/141 49/142/142 50/143/143 51/144/144
f 31/145/145 32/146/146 37/147/147 44/148/148
f 30/149/149 29/150/150 49/151/151 48/152/152
f 35/153/153 36/154/154 45/155/155 52/156/156
f 33/157/157 34/158/158 39/159/159 42/160/160
f 38/161/161 37/162/162 32/163/163
f 40/164/164 39/165/165 34/166/166
f 42/167/167 41/168/168 33/169/169
f 44/170/170 43/171/171 31/172/172
f 46/173/173 45/174/174 36/175/175
f 48/176/176 47/177/177 30/178/178
f 50/179/179 49/180/180 29/181/181
f 52/182/182 51/183/183 35/184/184
f 53/185/185 42/186/186 39/187/187 54/188/188
f 54/189/189 39/190/190 40/191/191 55/192/192
f 55/193/193 40/194/194 38/195/195 56/196/196
f 56/197/197 38/198/198 32/199/199 57/200/200
f 57/201/201 32/202/202 31/203/203 58/204/204
f 58/205/205 31/206/206 43/207/207 59/208/208
f 59/209/209 43/210/210 41/211/211 60/212/212
f 60/213/213 41/214/214 42/215/215 53/216/216
f 76/217/217 73/218/218 74/219/219 75/220/220
f 62/221/221 36/222/222 35/223/223 61/224/224
f 62/225/225 54/226/226 55/227/227 63/228/228
f 63/229/229 46/230/230 36/231/231 62/232/232
f 63/233/233 55/234/234 56/235/235 64/236/236
f 64/237/237 47/238/238 46/239/239 63/240/240
f 64/241/241 56/242/242 57/243/243 65/244/244
f 65/245/245 30/246/246 47/247/247 64/248/248
f 77/249/249 78/250/250 79/251/251 80/252/252
f 66/253/253 29/254/254 30/255/255 65/256/256
f 80/257/257 79/258/258 69/259/259 72/260/260
f 67/261/261 50/262/262 29/263/263 66/264/264
f 72/265/265 69/266/266 70/267/267 71/268/268
f 68/269/269 51/270/270 50/271/271 67/272/272
f 61/273/273 35/274/274 51/275/275 68/276/276
f 71/277/277 70/278/278 73/279/279 76/280/280
f 70/281/281 69/282/282 59/283/283 60/284/284
f 72/285/285 71/286/286 68/287/287 67/288/288
f 74/289/289 73/290/290 53/291/291 54/292/292
f 75/293/293 74/294/294 54/295/295 62/296/296
f 76/297/297 75/298/298 62/299/299 61/300/300
f 73/301/301 70/302/302 60/303/303 53/304/304
f 71/305/305 76/306/306 61/307/307 68/308/308
f 78/309/309 77/310/310 65/311/311 57/312/312
f 79/313/313 78/314/314 57/315/315 58/316/316
f 77/317/317 80/318/318 66/319/319 65/320/320
f 69/321/321 79/322/322 58/323/323 59/324/324
f 80/325/325 72/326/326 67/327/327 66/328/328
f 81/329/329 82/330/330 84/331/331 83/332/332
f 83/333/333 84/334/334 86/335/335 85/336/336
f 85/337/337 86/338/338 88/339/339 87/340/340
f 87/341/341 88/342/342 82/343/343 81/344/344
f 87/345/345 81/346/346 83/347/347 85/348/348
f 82/349/349 88/350/350 86/351/351 84/352/352
