# This file uses centimeters as units for non-parametric coordinates.

mtllib ceilingbeam.mtl
g default
v -0.056243 -1.154570 2.080047
v 0.056243 -1.154570 2.080047
v -0.056243 -1.137902 2.207992
v 0.056243 -1.137902 2.207992
v -0.056243 1.204061 -2.172621
v 0.056243 1.204061 -2.172621
v -0.056243 1.088410 -2.115418
v 0.056243 1.088410 -2.115418
v -0.056243 1.242736 -2.244962
v 0.056243 1.242736 -2.244962
v 0.056243 1.176576 -2.280333
v -0.056243 1.176576 -2.280333
v -0.056243 1.535003 -1.995693
v 0.056243 1.535003 -1.995693
v 0.056243 1.573678 -2.068034
v -0.056243 1.573678 -2.068034
v -0.056243 -1.249739 2.258060
v 0.056243 -1.249739 2.258060
v 0.056243 -1.183579 2.293431
v -0.056243 -1.183579 2.293431
v -0.056243 -0.806642 2.385090
v 0.056243 -0.806642 2.385090
v -0.056243 -0.852319 2.470529
v 0.056243 -0.852319 2.470529
v -0.037021 1.541612 -2.008055
v 0.037021 1.541612 -2.008055
v 0.037021 1.567069 -2.055673
v -0.037021 1.567069 -2.055673
v -0.037021 3.653057 -1.984553
v 0.037021 3.653057 -1.984553
v 0.037021 3.678514 -2.032170
v -0.037021 3.678514 -2.032170
v -0.038200 -0.813968 2.398794
v 0.038200 -0.813968 2.398794
v -0.038200 -0.844992 2.456824
v 0.038200 -0.844992 2.456824
v -0.038200 -0.737958 2.439431
v 0.038200 -0.737958 2.439431
v -0.038200 -0.768982 2.497461
v 0.038200 -0.768982 2.497461
v -0.038200 -0.686856 2.781789
v 0.038200 -0.686856 2.781789
v -0.038200 -0.717881 2.839819
v 0.038200 -0.717881 2.839819
v -0.038200 -0.479518 2.750669
v 0.038200 -0.479518 2.750669
v -0.038200 -0.436676 2.800615
v 0.038200 -0.436676 2.800615
vt 0.375000 0.000000
vt 0.625000 0.000000
vt 0.375000 0.250000
vt 0.625000 0.250000
vt 0.375000 0.500000
vt 0.625000 0.500000
vt 0.375000 0.750000
vt 0.625000 0.750000
vt 0.375000 1.000000
vt 0.625000 1.000000
vt 0.875000 0.000000
vt 0.875000 0.250000
vt 0.125000 0.000000
vt 0.125000 0.250000
vt 0.375000 0.500000
vt 0.625000 0.500000
vt 0.625000 0.750000
vt 0.375000 0.750000
vt 0.375000 0.500000
vt 0.625000 0.500000
vt 0.625000 0.500000
vt 0.375000 0.500000
vt 0.375000 0.000000
vt 0.625000 0.000000
vt 0.625000 0.250000
vt 0.375000 0.250000
vt 0.625000 0.250000
vt 0.375000 0.250000
vt 0.375000 0.250000
vt 0.625000 0.250000
vt 0.375000 0.500000
vt 0.625000 0.500000
vt 0.625000 0.500000
vt 0.375000 0.500000
vt 0.375000 0.500000
vt 0.625000 0.500000
vt 0.625000 0.500000
vt 0.375000 0.500000
vt 0.625000 0.250000
vt 0.375000 0.250000
vt 0.375000 0.250000
vt 0.625000 0.250000
vt 0.625000 0.250000
vt 0.375000 0.250000
vt 0.375000 0.250000
vt 0.625000 0.250000
vt 0.625000 0.250000
vt 0.375000 0.250000
vt 0.375000 0.250000
vt 0.625000 0.250000
vt 0.625000 0.250000
vt 0.375000 0.250000
vt 0.375000 0.250000
vt 0.625000 0.250000
vn 0.000000 -0.471471 0.881881
vn 0.000000 -0.471471 0.881881
vn 0.000000 -0.471471 0.881881
vn 0.000000 -0.471471 0.881881
vn 0.000000 0.881881 0.471471
vn 0.000000 0.881881 0.471471
vn 0.000000 0.881881 0.471471
vn 0.000000 0.881881 0.471471
vn 0.000000 0.471471 -0.881881
vn 0.000000 0.471471 -0.881881
vn 0.000000 0.471471 -0.881881
vn 0.000000 0.471471 -0.881881
vn 0.000000 -0.881881 -0.471471
vn 0.000000 -0.881881 -0.471471
vn 0.000000 -0.881881 -0.471471
vn 0.000000 -0.881881 -0.471471
vn 1.000000 -0.000000 -0.000000
vn 1.000000 -0.000000 -0.000000
vn 1.000000 -0.000000 -0.000000
vn 1.000000 -0.000000 -0.000000
vn -1.000000 -0.000000 -0.000000
vn -1.000000 -0.000000 -0.000000
vn -1.000000 -0.000000 -0.000000
vn -1.000000 -0.000000 -0.000000
vn 0.000000 0.881881 0.471471
vn 0.000000 0.881881 0.471471
vn 0.000000 0.881881 0.471471
vn 0.000000 0.881881 0.471471
vn 1.000000 0.000000 0.000000
vn 1.000000 0.000000 0.000000
vn 1.000000 0.000000 0.000000
vn 1.000000 0.000000 0.000000
vn 0.000000 -0.881881 -0.471471
vn 0.000000 -0.881881 -0.471471
vn 0.000000 -0.881881 -0.471471
vn 0.000000 -0.881881 -0.471471
vn -1.000000 0.000000 0.000000
vn -1.000000 0.000000 0.000000
vn -1.000000 0.000000 0.000000
vn -1.000000 0.000000 0.000000
vn 0.000000 -0.471471 0.881881
vn 0.000000 -0.471471 0.881881
vn 0.000000 -0.471471 0.881881
vn 0.000000 -0.471471 0.881881
vn 1.000000 0.000000 0.000000
vn 1.000000 0.000000 0.000000
vn 1.000000 0.000000 0.000000
vn 1.000000 0.000000 0.000000
vn 0.000000 0.471471 -0.881881
vn 0.000000 0.471471 -0.881881
vn 0.000000 0.471471 -0.881881
vn 0.000000 0.471471 -0.881881
vn -1.000000 0.000000 0.000000
vn -1.000000 0.000000 0.000000
vn -1.000000 0.000000 0.000000
vn -1.000000 0.000000 0.000000
vn 0.000000 -0.881881 -0.471471
vn 0.000000 -0.881881 -0.471471
vn 0.000000 -0.881881 -0.471471
vn 0.000000 -0.881881 -0.471471
vn 1.000000 0.000000 0.000000
vn 1.000000 0.000000 0.000000
vn 1.000000 0.000000 0.000000
vn 1.000000 0.000000 0.000000
vn 0.000000 0.759020 -0.651067
vn 0.000000 0.759020 -0.651067
vn 0.000000 0.759020 -0.651067
vn 0.000000 0.759020 -0.651067
vn -1.000000 0.000000 0.000000
vn -1.000000 0.000000 0.000000
vn -1.000000 0.000000 0.000000
vn -1.000000 0.000000 0.000000
vn 0.000000 0.471471 -0.881881
vn 0.000000 0.471471 -0.881881
vn 0.000000 0.471471 -0.881881
vn 0.000000 0.471471 -0.881881
vn -1.000000 0.000000 0.000000
vn -1.000000 0.000000 0.000000
vn -1.000000 0.000000 0.000000
vn -1.000000 0.000000 0.000000
vn 0.000000 -0.471471 0.881881
vn 0.000000 -0.471471 0.881881
vn 0.000000 -0.471471 0.881881
vn 0.000000 -0.471471 0.881881
vn 1.000000 0.000000 0.000000
vn 1.000000 0.000000 0.000000
vn 1.000000 0.000000 0.000000
vn 1.000000 0.000000 0.000000
vn 0.000000 0.881882 0.471470
vn 0.000000 0.881882 0.471470
vn 0.000000 0.881882 0.471470
vn 0.000000 0.881882 0.471470
vn 0.000000 0.881881 0.471471
vn 0.000000 0.881881 0.471471
vn 0.000000 0.881881 0.471471
vn 0.000000 0.881881 0.471471
vn 0.000000 0.881881 0.471472
vn 0.000000 0.881881 0.471472
vn 0.000000 0.881881 0.471472
vn 0.000000 0.881881 0.471472
vn 0.000000 0.881881 0.471471
vn 0.000000 0.881881 0.471471
vn 0.000000 0.881881 0.471471
vn 0.000000 0.881881 0.471471
vn 0.000000 -0.011130 0.999938
vn 0.000000 -0.011130 0.999938
vn 0.000000 -0.011130 0.999938
vn 0.000000 -0.011130 0.999938
vn 1.000000 0.000000 0.000000
vn 1.000000 0.000000 0.000000
vn 1.000000 0.000000 0.000000
vn 1.000000 0.000000 0.000000
vn 0.000000 0.011130 -0.999938
vn 0.000000 0.011130 -0.999938
vn 0.000000 0.011130 -0.999938
vn 0.000000 0.011130 -0.999938
vn -1.000000 0.000000 0.000000
vn -1.000000 0.000000 0.000000
vn -1.000000 0.000000 0.000000
vn -1.000000 0.000000 0.000000
vn 0.000000 0.881881 0.471472
vn 0.000000 0.881881 0.471472
vn 0.000000 0.881881 0.471472
vn 0.000000 0.881881 0.471472
vn 0.000000 0.881881 0.471471
vn 0.000000 0.881881 0.471471
vn 0.000000 0.881881 0.471471
vn 0.000000 0.881881 0.471471
vn 0.000000 0.881882 0.471471
vn 0.000000 0.881882 0.471471
vn 0.000000 0.881882 0.471471
vn 0.000000 0.881882 0.471471
vn 0.000000 0.881881 0.471471
vn 0.000000 0.881881 0.471471
vn 0.000000 0.881881 0.471471
vn 0.000000 0.881881 0.471471
vn 0.000000 0.471471 -0.881881
vn 0.000000 0.471471 -0.881881
vn 0.000000 0.471471 -0.881881
vn 0.000000 0.471471 -0.881881
vn -1.000000 0.000000 0.000000
vn -1.000000 0.000000 0.000000
vn -1.000000 0.000000 0.000000
vn -1.000000 0.000000 0.000000
vn 0.000000 -0.471471 0.881881
vn 0.000000 -0.471471 0.881881
vn 0.000000 -0.471471 0.881881
vn 0.000000 -0.471471 0.881881
vn 1.000000 0.000000 0.000000
vn 1.000000 0.000000 0.000000
vn 1.000000 0.000000 0.000000
vn 1.000000 0.000000 0.000000
vn 0.000000 0.989043 -0.147628
vn 0.000000 0.989043 -0.147628
vn 0.000000 0.989043 -0.147628
vn 0.000000 0.989043 -0.147628
vn -1.000000 0.000000 0.000000
vn -1.000000 0.000000 0.000000
vn -1.000000 0.000000 0.000000
vn -1.000000 0.000000 0.000000
vn 0.000000 -0.989043 0.147628
vn 0.000000 -0.989043 0.147628
vn 0.000000 -0.989043 0.147628
vn 0.000000 -0.989043 0.147628
vn 1.000000 0.000000 0.000000
vn 1.000000 0.000000 0.000000
vn 1.000000 0.000000 0.000000
vn 1.000000 0.000000 0.000000
vn 0.000000 -0.148429 -0.988923
vn 0.000000 -0.148429 -0.988923
vn 0.000000 -0.148429 -0.988923
vn 0.000000 -0.148429 -0.988923
vn -1.000000 0.000000 0.000000
vn -1.000000 0.000000 0.000000
vn -1.000000 0.000000 0.000000
vn -1.000000 0.000000 0.000000
vn 0.000000 0.138080 0.990421
vn 0.000000 0.138080 0.990421
vn 0.000000 0.138080 0.990421
vn 0.000000 0.138080 0.990421
vn 1.000000 0.000000 0.000000
vn 1.000000 0.000000 0.000000
vn 1.000000 0.000000 0.000000
vn 1.000000 0.000000 0.000000
s off
g pCube1
usemtl blinn1SG
f 17/23/1 18/24/2 19/25/3 20/26/4
f 3/3/5 4/4/6 6/6/7 5/5/8
f 9/15/9 10/16/10 11/17/11 12/18/12
f 7/7/13 8/8/14 2/10/15 1/9/16
f 2/2/17 8/11/18 6/12/19 4/4/20
f 7/13/21 1/1/22 3/3/23 5/14/24
f 29/35/25 30/36/26 31/37/27 32/38/28
f 6/6/29 8/8/30 11/17/31 10/16/32
f 8/8/33 7/7/34 12/18/35 11/17/36
f 7/7/37 5/5/38 9/15/39 12/18/40
f 5/5/41 6/6/42 14/20/43 13/19/44
f 6/6/45 10/16/46 15/21/47 14/20/48
f 10/16/49 9/15/50 16/22/51 15/21/52
f 9/15/53 5/5/54 13/19/55 16/22/56
f 1/1/57 2/2/58 18/24/59 17/23/60
f 2/2/61 4/4/62 19/25/63 18/24/64
f 46/51/65 45/52/66 47/53/67 48/54/68
f 3/3/69 1/1/70 17/23/71 20/26/72
f 4/4/73 3/3/74 21/28/75 22/27/76
f 3/3/77 20/26/78 23/29/79 21/28/80
f 20/26/81 19/25/82 24/30/83 23/29/84
f 19/25/85 4/4/86 22/27/87 24/30/88
f 13/19/89 14/20/90 26/32/91 25/31/92
f 14/20/93 15/21/94 27/33/95 26/32/96
f 15/21/97 16/22/98 28/34/99 27/33/100
f 16/22/101 13/19/102 25/31/103 28/34/104
f 25/31/105 26/32/106 30/36/107 29/35/108
f 26/32/109 27/33/110 31/37/111 30/36/112
f 27/33/113 28/34/114 32/38/115 31/37/116
f 28/34/117 25/31/118 29/35/119 32/38/120
f 22/27/121 21/28/122 33/40/123 34/39/124
f 21/28/125 23/29/126 35/41/127 33/40/128
f 23/29/129 24/30/130 36/42/131 35/41/132
f 24/30/133 22/27/134 34/39/135 36/42/136
f 34/39/137 33/40/138 37/44/139 38/43/140
f 33/40/141 35/41/142 39/45/143 37/44/144
f 35/41/145 36/42/146 40/46/147 39/45/148
f 36/42/149 34/39/150 38/43/151 40/46/152
f 38/43/153 37/44/154 41/48/155 42/47/156
f 37/44/157 39/45/158 43/49/159 41/48/160
f 39/45/161 40/46/162 44/50/163 43/49/164
f 40/46/165 38/43/166 42/47/167 44/50/168
f 42/47/169 41/48/170 45/52/171 46/51/172
f 41/48/173 43/49/174 47/53/175 45/52/176
f 43/49/177 44/50/178 48/54/179 47/53/180
f 44/50/181 42/47/182 46/51/183 48/54/184
