# This file uses centimeters as units for non-parametric coordinates.

mtllib ceiling.mtl
g default
v -1.987702 -0.146251 1.987702
v 1.443277 -0.146251 0.460950
v -1.987702 0.146251 1.987702
v 1.443277 0.146251 0.460950
v -1.987702 0.146251 -1.987702
v 1.987702 0.146251 -1.987702
v -1.987702 -0.146251 -1.987702
v 1.987702 -0.146251 -1.987702
v -1.485102 -0.146251 2.672420
v 0.940677 -0.146251 1.145667
v 0.940677 0.146251 1.145667
v -1.485102 0.146251 2.672420
v 2.770719 -0.146251 -1.987702
v 2.226294 -0.146251 0.460950
v 2.770719 0.146251 -1.987702
v 2.226294 0.146251 0.460950
v 1.723694 0.146251 1.145667
v 1.723694 -0.146251 1.145667
v -0.733701 -0.146251 3.417357
v 1.692079 -0.146251 1.890605
v 1.692079 0.146251 1.890605
v -0.733701 0.146251 3.417357
v 2.475096 -0.146251 1.890605
v 2.475096 0.146251 1.890605
v 4.569976 -0.146251 -0.555828
v 2.998652 -0.146251 1.399480
v 4.569976 0.146251 -0.555828
v 2.998652 0.146251 1.399480
vt 0.296587 0.820797
vt 0.296587 0.549947
vt 0.567438 0.820797
vt 0.567438 0.549947
vt 0.567438 0.503296
vt 0.296587 0.503296
vt 0.567438 0.452542
vt 0.296587 0.452542
vt 0.099284 0.448777
vt 0.203304 0.215019
vt 0.370134 0.448777
vt 0.156653 0.249262
vt 0.370134 0.177926
vt 0.052633 0.414534
vt 0.156653 0.195913
vt 0.203304 0.161671
vt 0.001879 0.363340
vt 0.105899 0.198068
vt 0.370134 0.124578
vt 0.105899 0.144719
vt 0.272578 0.001992
vt 0.139360 0.109049
vt 0.573225 0.628477
vt 0.740056 0.665569
vt 0.573225 0.899327
vt 0.740056 0.612221
vt 0.844076 0.899327
vt 0.573225 0.575128
vt 0.786707 0.646464
vt 0.786707 0.699812
vt 0.670781 0.452542
vt 0.890727 0.865084
vt 0.803999 0.559599
vt 0.837460 0.648618
vt 0.941481 0.813890
vt 0.837460 0.595270
vt 0.377130 0.448777
vt 0.377130 0.177926
vt 0.647980 0.448777
vt 0.647980 0.177926
vt 0.647980 0.124578
vt 0.377130 0.124578
vt 0.647980 0.001992
vt 0.377130 0.001992
vt 0.237451 0.723392
vt 0.237451 0.452542
vt 0.290800 0.723392
vt 0.072179 0.723392
vt 0.290800 0.452542
vt 0.072179 0.452542
vt 0.035340 0.727158
vt 0.168558 0.727158
vt 0.035340 0.998008
vt 0.168558 0.998008
vt 0.099284 0.727158
vt 0.099284 0.998008
vt 0.052633 0.727158
vt 0.052633 0.998008
vt 0.001879 0.727158
vt 0.001879 0.998008
vn 0.532666 0.000000 0.846326
vn 0.532666 0.000000 0.846326
vn 0.532666 0.000000 0.846326
vn 0.532666 0.000000 0.846326
vn 0.000000 1.000000 0.000000
vn 0.000000 1.000000 0.000000
vn 0.000000 1.000000 0.000000
vn 0.000000 1.000000 0.000000
vn 0.000000 0.000000 -1.000000
vn 0.000000 0.000000 -1.000000
vn 0.000000 0.000000 -1.000000
vn 0.000000 0.000000 -1.000000
vn 0.000000 -1.000000 0.000000
vn 0.000000 -1.000000 0.000000
vn 0.000000 -1.000000 0.000000
vn 0.000000 -1.000000 0.000000
vn 0.779491 0.000000 0.626414
vn 0.779491 0.000000 0.626414
vn 0.779491 0.000000 0.626414
vn 0.779491 0.000000 0.626414
vn -1.000000 0.000000 0.000000
vn -1.000000 0.000000 0.000000
vn -1.000000 0.000000 0.000000
vn -1.000000 0.000000 0.000000
vn 0.000000 -1.000000 0.000000
vn 0.000000 -1.000000 0.000000
vn 0.000000 -1.000000 0.000000
vn 0.000000 -1.000000 0.000000
vn 0.806139 0.000000 0.591726
vn 0.806139 0.000000 0.591726
vn 0.806139 0.000000 0.591726
vn 0.806139 0.000000 0.591726
vn 0.000000 1.000000 0.000000
vn 0.000000 1.000000 0.000000
vn 0.000000 1.000000 0.000000
vn 0.000000 1.000000 0.000000
vn -0.806139 0.000000 0.591726
vn -0.806139 0.000000 0.591726
vn -0.806139 0.000000 0.591726
vn -0.806139 0.000000 0.591726
vn 0.000000 -1.000000 0.000000
vn 0.000000 -1.000000 0.000000
vn 0.000000 -1.000000 0.000000
vn 0.000000 -1.000000 0.000000
vn 0.000000 0.000000 -1.000000
vn 0.000000 0.000000 -1.000000
vn 0.000000 0.000000 -1.000000
vn 0.000000 0.000000 -1.000000
vn 0.000000 1.000000 0.000000
vn 0.000000 1.000000 0.000000
vn 0.000000 1.000000 0.000000
vn 0.000000 1.000000 0.000000
vn 0.000000 1.000000 0.000000
vn 0.000000 1.000000 0.000000
vn 0.000000 1.000000 0.000000
vn 0.000000 1.000000 0.000000
vn 0.000000 0.000000 1.000000
vn 0.000000 0.000000 1.000000
vn 0.000000 0.000000 1.000000
vn 0.000000 0.000000 1.000000
vn 0.000000 -1.000000 0.000000
vn 0.000000 -1.000000 0.000000
vn 0.000000 -1.000000 0.000000
vn 0.000000 -1.000000 0.000000
vn 0.000000 -1.000000 -0.000000
vn 0.000000 -1.000000 -0.000000
vn 0.000000 -1.000000 -0.000000
vn 0.000000 -1.000000 0.000000
vn 0.000000 1.000000 0.000000
vn 0.000000 1.000000 0.000000
vn 0.000000 1.000000 0.000000
vn 0.000000 1.000000 0.000000
vn -0.704046 0.000000 0.710155
vn -0.704045 0.000000 0.710155
vn -0.704046 0.000000 0.710155
vn -0.704045 0.000000 0.710155
vn 0.000000 -1.000000 0.000000
vn 0.000000 -1.000000 0.000000
vn 0.000000 -1.000000 0.000000
vn 0.000000 -1.000000 0.000000
vn 0.704046 0.000000 -0.710155
vn 0.704046 0.000000 -0.710155
vn 0.704046 0.000000 -0.710155
vn 0.704045 0.000000 -0.710155
vn 0.000000 1.000000 0.000000
vn 0.000000 1.000000 0.000000
vn 0.000000 1.000000 0.000000
vn 0.000000 1.000000 0.000000
vn 0.000000 -1.000000 0.000000
vn 0.000000 -1.000000 0.000000
vn 0.000000 -1.000000 0.000000
vn 0.000000 -1.000000 0.000000
vn 0.622696 0.000000 -0.782464
vn 0.622696 0.000000 -0.782464
vn 0.622696 0.000000 -0.782464
vn 0.622696 0.000000 -0.782464
vn 0.000000 1.000000 0.000000
vn 0.000000 1.000000 0.000000
vn 0.000000 1.000000 0.000000
vn 0.000000 1.000000 0.000000
vn -0.772152 0.000000 0.635438
vn -0.772152 0.000000 0.635438
vn -0.772152 0.000000 0.635438
vn -0.772152 0.000000 0.635438
s 1
g pCube1
usemtl lambert3SG
f 19/50/1 20/46/2 22/48/3
f 22/48/3 20/46/2 21/45/4
s 2
f 3/9/5 4/10/6 5/11/7
f 5/11/7 4/10/6 6/13/8
s 3
f 5/37/9 6/38/10 7/39/11
f 7/39/11 6/38/10 8/40/12
s 4
f 8/23/13 2/24/14 7/25/15
f 7/25/15 2/24/14 1/27/16
s 5
f 26/51/17 25/52/18 28/53/19
f 28/53/19 25/52/18 27/54/20
s 6
f 7/1/21 1/2/22 5/3/23
f 5/3/23 1/2/22 3/4/24
s 7
f 2/24/25 10/30/26 1/27/27
f 1/27/27 10/30/26 9/32/28
s 8
f 14/55/29 16/56/30 18/57/31
f 18/57/31 16/56/30 17/58/32
s 9
f 4/10/33 3/9/34 11/12/35
f 11/12/35 3/9/34 12/14/36
s 10
f 3/4/37 1/2/38 12/5/39
f 12/5/39 1/2/38 9/6/40
s 11
f 2/24/41 8/23/42 14/26/43
f 14/26/43 8/23/42 13/28/44
s 12
f 8/40/45 6/38/46 13/41/47
f 13/41/47 6/38/46 15/42/48
s 13
f 4/10/49 16/16/50 6/13/51
f 6/13/51 16/16/50 15/19/52
s 14
f 11/12/53 17/15/54 4/10/55
f 4/10/55 17/15/54 16/16/56
s 15
f 21/45/57 20/46/58 24/47/59
f 24/47/59 20/46/58 23/49/60
s 16
f 10/30/61 2/24/62 18/29/63
f 18/29/63 2/24/62 14/26/64
s 17
f 9/32/65 10/30/66 19/35/67
f 19/35/67 10/30/66 20/34/68
s 18
f 12/14/69 22/17/70 11/12/71
f 11/12/71 22/17/70 21/18/72
s 19
f 12/5/73 9/6/74 22/7/75
f 22/7/75 9/6/74 19/8/76
s 20
f 10/30/77 18/29/78 20/34/79
f 20/34/79 18/29/78 23/36/80
s 21
f 18/57/81 17/58/82 23/59/83
f 23/59/83 17/58/82 24/60/84
s 22
f 11/12/85 21/18/86 17/15/87
f 17/15/87 21/18/86 24/20/88
s 23
f 13/28/89 25/31/90 14/26/91
f 14/26/91 25/31/90 26/33/92
s 24
f 13/41/93 15/42/94 25/43/95
f 25/43/95 15/42/94 27/44/96
s 25
f 15/19/97 16/16/98 27/21/99
f 27/21/99 16/16/98 28/22/100
s 26
f 16/56/101 14/55/102 28/53/103
f 28/53/103 14/55/102 26/51/104
