# This file uses centimeters as units for non-parametric coordinates.

mtllib ceilingbeam2.mtl
g default
v -0.056243 0.965187 2.174406
v 0.056243 0.965187 2.174406
v -0.056243 1.077364 2.238154
v 0.056243 1.077364 2.238154
v -0.056243 -1.009284 -2.269668
v 0.056243 -1.009284 -2.269668
v -0.056243 -1.033268 -2.142892
v 0.056243 -1.033268 -2.142892
v -0.056243 -1.043742 -2.344110
v 0.056243 -1.043742 -2.344110
v 0.056243 -1.111823 -2.312596
v -0.056243 -1.111823 -2.312596
v -0.056243 -0.668732 -2.427308
v 0.056243 -0.668732 -2.427308
v 0.056243 -0.703190 -2.501750
v -0.056243 -0.703190 -2.501750
v -0.056243 1.049981 2.357588
v 0.056243 1.049981 2.357588
v 0.056243 1.118062 2.326074
v -0.056243 1.118062 2.326074
v -0.056243 1.418244 2.080362
v 0.056243 1.418244 2.080362
v -0.056243 1.458942 2.168282
v 0.056243 1.458942 2.168282
v -0.037021 -0.674620 -2.440029
v 0.037021 -0.674620 -2.440029
v 0.037021 -0.697302 -2.489029
v -0.037021 -0.697302 -2.489029
v -0.037021 0.004383 -2.253331
v 0.037021 0.004383 -2.253331
v 0.037021 -0.018299 -2.302332
v -0.037021 -0.018299 -2.302332
v -0.038200 1.424772 2.094465
v 0.038200 1.424772 2.094465
v -0.038200 1.452414 2.154180
v 0.038200 1.452414 2.154180
v -0.038200 1.502989 2.058259
v 0.038200 1.502989 2.058259
v -0.038200 1.530631 2.117974
v 0.038200 1.530631 2.117974
v -0.038200 1.807073 1.954252
v 0.038200 1.807073 1.954252
v -0.038200 1.834715 2.013968
v 0.038200 1.834715 2.013968
v -0.038200 2.455472 2.015066
v 0.038200 2.455472 2.015066
v -0.038200 2.503931 2.059583
v 0.038200 2.503931 2.059583
v -0.038200 2.455472 1.790586
v 0.038200 2.455472 1.790586
v -0.038200 2.503931 1.835102
v 0.038200 2.503931 1.835102
vt 0.375000 0.000000
vt 0.625000 0.000000
vt 0.375000 0.250000
vt 0.625000 0.250000
vt 0.375000 0.500000
vt 0.625000 0.500000
vt 0.375000 0.750000
vt 0.625000 0.750000
vt 0.375000 1.000000
vt 0.625000 1.000000
vt 0.875000 0.000000
vt 0.875000 0.250000
vt 0.125000 0.000000
vt 0.125000 0.250000
vt 0.375000 0.500000
vt 0.625000 0.500000
vt 0.625000 0.750000
vt 0.375000 0.750000
vt 0.375000 0.500000
vt 0.625000 0.500000
vt 0.625000 0.500000
vt 0.375000 0.500000
vt 0.375000 0.000000
vt 0.625000 0.000000
vt 0.625000 0.250000
vt 0.375000 0.250000
vt 0.625000 0.250000
vt 0.375000 0.250000
vt 0.375000 0.250000
vt 0.625000 0.250000
vt 0.375000 0.500000
vt 0.625000 0.500000
vt 0.625000 0.500000
vt 0.375000 0.500000
vt 0.375000 0.500000
vt 0.625000 0.500000
vt 0.625000 0.500000
vt 0.375000 0.500000
vt 0.625000 0.250000
vt 0.375000 0.250000
vt 0.375000 0.250000
vt 0.625000 0.250000
vt 0.625000 0.250000
vt 0.375000 0.250000
vt 0.375000 0.250000
vt 0.625000 0.250000
vt 0.625000 0.250000
vt 0.375000 0.250000
vt 0.375000 0.250000
vt 0.625000 0.250000
vt 0.625000 0.250000
vt 0.375000 0.250000
vt 0.375000 0.250000
vt 0.625000 0.250000
vt 0.625000 0.250000
vt 0.375000 0.250000
vt 0.375000 0.250000
vt 0.625000 0.250000
vn 0.000000 0.420073 0.907490
vn 0.000000 0.420073 0.907490
vn 0.000000 0.420073 0.907490
vn 0.000000 0.420073 0.907490
vn 0.000000 0.907490 -0.420073
vn 0.000000 0.907490 -0.420073
vn 0.000000 0.907490 -0.420073
vn 0.000000 0.907490 -0.420073
vn 0.000000 -0.420069 -0.907492
vn 0.000000 -0.420069 -0.907492
vn 0.000000 -0.420069 -0.907492
vn 0.000000 -0.420069 -0.907492
vn 0.000000 -0.907490 0.420073
vn 0.000000 -0.907490 0.420073
vn 0.000000 -0.907490 0.420073
vn 0.000000 -0.907490 0.420073
vn 1.000000 -0.000000 0.000000
vn 1.000000 -0.000000 0.000000
vn 1.000000 -0.000000 0.000000
vn 1.000000 -0.000000 0.000000
vn -1.000000 -0.000000 0.000000
vn -1.000000 -0.000000 0.000000
vn -1.000000 -0.000000 0.000000
vn -1.000000 -0.000000 0.000000
vn 0.000000 0.907490 -0.420073
vn 0.000000 0.907490 -0.420073
vn 0.000000 0.907490 -0.420073
vn 0.000000 0.907490 -0.420073
vn 1.000000 0.000000 0.000000
vn 1.000000 0.000000 0.000000
vn 1.000000 0.000000 0.000000
vn 1.000000 0.000000 0.000000
vn 0.000000 -0.907491 0.420072
vn 0.000000 -0.907491 0.420072
vn 0.000000 -0.907491 0.420072
vn 0.000000 -0.907491 0.420072
vn -1.000000 0.000000 0.000000
vn -1.000000 0.000000 0.000000
vn -1.000000 0.000000 0.000000
vn -1.000000 0.000000 0.000000
vn 0.000000 0.420073 0.907490
vn 0.000000 0.420073 0.907490
vn 0.000000 0.420073 0.907490
vn 0.000000 0.420073 0.907490
vn 1.000000 0.000000 0.000000
vn 1.000000 0.000000 0.000000
vn 1.000000 0.000000 0.000000
vn 1.000000 0.000000 0.000000
vn 0.000000 -0.420073 -0.907490
vn 0.000000 -0.420073 -0.907490
vn 0.000000 -0.420073 -0.907490
vn 0.000000 -0.420073 -0.907490
vn -1.000000 0.000000 0.000000
vn -1.000000 0.000000 0.000000
vn -1.000000 0.000000 0.000000
vn -1.000000 0.000000 0.000000
vn 0.000000 -0.907490 0.420073
vn 0.000000 -0.907490 0.420073
vn 0.000000 -0.907490 0.420073
vn 0.000000 -0.907490 0.420073
vn 1.000000 0.000000 0.000000
vn 1.000000 0.000000 0.000000
vn 1.000000 0.000000 0.000000
vn 1.000000 0.000000 0.000000
vn 0.000000 0.676514 -0.736430
vn 0.000000 0.676514 -0.736430
vn 0.000000 0.676514 -0.736430
vn 0.000000 0.676514 -0.736430
vn -1.000000 0.000000 0.000000
vn -1.000000 0.000000 0.000000
vn -1.000000 0.000000 0.000000
vn -1.000000 0.000000 0.000000
vn 0.000000 -0.420073 -0.907490
vn 0.000000 -0.420073 -0.907490
vn 0.000000 -0.420073 -0.907490
vn 0.000000 -0.420073 -0.907490
vn -1.000000 0.000000 0.000000
vn -1.000000 0.000000 0.000000
vn -1.000000 0.000000 0.000000
vn -1.000000 0.000000 0.000000
vn 0.000000 0.420073 0.907490
vn 0.000000 0.420073 0.907490
vn 0.000000 0.420073 0.907490
vn 0.000000 0.420073 0.907490
vn 1.000000 0.000000 0.000000
vn 1.000000 0.000000 0.000000
vn 1.000000 0.000000 0.000000
vn 1.000000 0.000000 0.000000
vn 0.000000 0.907495 -0.420064
vn 0.000000 0.907495 -0.420064
vn 0.000000 0.907495 -0.420064
vn 0.000000 0.907495 -0.420064
vn 0.000002 0.907491 -0.420072
vn 0.000002 0.907491 -0.420072
vn 0.000002 0.907491 -0.420072
vn 0.000002 0.907491 -0.420072
vn 0.000000 0.907493 -0.420068
vn 0.000000 0.907493 -0.420068
vn 0.000000 0.907493 -0.420068
vn 0.000000 0.907493 -0.420068
vn -0.000002 0.907491 -0.420072
vn -0.000002 0.907491 -0.420072
vn -0.000002 0.907491 -0.420072
vn -0.000002 0.907491 -0.420072
vn 0.000000 -0.265119 0.964216
vn 0.000000 -0.265119 0.964216
vn 0.000000 -0.265119 0.964216
vn 0.000000 -0.265119 0.964216
vn 1.000000 0.000000 0.000000
vn 1.000000 0.000000 0.000000
vn 1.000000 0.000000 0.000000
vn 1.000000 0.000000 0.000000
vn 0.000000 0.265118 -0.964216
vn 0.000000 0.265118 -0.964216
vn 0.000000 0.265118 -0.964216
vn 0.000000 0.265118 -0.964216
vn -1.000000 0.000000 0.000000
vn -1.000000 0.000000 0.000000
vn -1.000000 0.000000 0.000000
vn -1.000000 0.000000 0.000000
vn 0.000000 0.907497 -0.420059
vn 0.000000 0.907497 -0.420059
vn 0.000000 0.907497 -0.420059
vn 0.000000 0.907497 -0.420059
vn 0.000006 0.907491 -0.420072
vn 0.000006 0.907491 -0.420072
vn 0.000006 0.907491 -0.420072
vn 0.000006 0.907491 -0.420072
vn 0.000000 0.907490 -0.420073
vn 0.000000 0.907490 -0.420073
vn 0.000000 0.907490 -0.420073
vn 0.000000 0.907490 -0.420073
vn -0.000006 0.907491 -0.420072
vn -0.000006 0.907491 -0.420072
vn -0.000006 0.907491 -0.420072
vn -0.000006 0.907491 -0.420072
vn 0.000000 -0.420073 -0.907490
vn 0.000000 -0.420073 -0.907490
vn 0.000000 -0.420073 -0.907490
vn 0.000000 -0.420073 -0.907490
vn -1.000000 0.000000 0.000000
vn -1.000000 0.000000 0.000000
vn -1.000000 0.000000 0.000000
vn -1.000000 0.000000 0.000000
vn 0.000000 0.420073 0.907490
vn 0.000000 0.420073 0.907490
vn 0.000000 0.420073 0.907490
vn 0.000000 0.420073 0.907490
vn 1.000000 0.000000 0.000000
vn 1.000000 0.000000 0.000000
vn 1.000000 0.000000 0.000000
vn 1.000000 0.000000 0.000000
vn 0.000000 -0.323625 -0.946185
vn 0.000000 -0.323625 -0.946185
vn 0.000000 -0.323625 -0.946185
vn 0.000000 -0.323625 -0.946185
vn -1.000000 -0.000000 0.000000
vn -1.000000 -0.000000 0.000000
vn -1.000000 -0.000000 0.000000
vn -1.000000 -0.000000 0.000000
vn 0.000000 0.323625 0.946185
vn 0.000000 0.323625 0.946185
vn 0.000000 0.323625 0.946185
vn 0.000000 0.323625 0.946185
vn 1.000000 0.000000 0.000000
vn 1.000000 0.000000 0.000000
vn 1.000000 0.000000 0.000000
vn 1.000000 0.000000 0.000000
vn 0.000000 0.093381 -0.995630
vn 0.000000 0.093381 -0.995630
vn 0.000000 0.093381 -0.995630
vn 0.000000 0.093381 -0.995630
vn -1.000000 0.000000 0.000000
vn -1.000000 0.000000 0.000000
vn -1.000000 0.000000 0.000000
vn -1.000000 0.000000 0.000000
vn 0.000000 -0.068004 0.997685
vn 0.000000 -0.068004 0.997685
vn 0.000000 -0.068004 0.997685
vn 0.000000 -0.068004 0.997685
vn 1.000000 0.000000 0.000000
vn 1.000000 0.000000 0.000000
vn 1.000000 0.000000 0.000000
vn 1.000000 0.000000 0.000000
vn 0.000000 -1.000000 0.000000
vn 0.000000 -1.000000 0.000000
vn 0.000000 -1.000000 0.000000
vn 0.000000 -1.000000 0.000000
vn -1.000000 0.000000 0.000000
vn -1.000000 0.000000 0.000000
vn -1.000000 0.000000 0.000000
vn -1.000000 0.000000 0.000000
vn 0.000000 1.000000 -0.000000
vn 0.000000 1.000000 -0.000000
vn 0.000000 1.000000 -0.000000
vn 0.000000 1.000000 -0.000000
vn 1.000000 0.000000 0.000000
vn 1.000000 0.000000 0.000000
vn 1.000000 0.000000 0.000000
vn 1.000000 0.000000 0.000000
s off
g pCube1
usemtl blinn1SG
f 17/23/1 18/24/2 19/25/3 20/26/4
f 3/3/5 4/4/6 6/6/7 5/5/8
f 9/15/9 10/16/10 11/17/11 12/18/12
f 7/7/13 8/8/14 2/10/15 1/9/16
f 2/2/17 8/11/18 6/12/19 4/4/20
f 7/13/21 1/1/22 3/3/23 5/14/24
f 29/35/25 30/36/26 31/37/27 32/38/28
f 6/6/29 8/8/30 11/17/31 10/16/32
f 8/8/33 7/7/34 12/18/35 11/17/36
f 7/7/37 5/5/38 9/15/39 12/18/40
f 5/5/41 6/6/42 14/20/43 13/19/44
f 6/6/45 10/16/46 15/21/47 14/20/48
f 10/16/49 9/15/50 16/22/51 15/21/52
f 9/15/53 5/5/54 13/19/55 16/22/56
f 1/1/57 2/2/58 18/24/59 17/23/60
f 2/2/61 4/4/62 19/25/63 18/24/64
f 50/55/65 49/56/66 51/57/67 52/58/68
f 3/3/69 1/1/70 17/23/71 20/26/72
f 4/4/73 3/3/74 21/28/75 22/27/76
f 3/3/77 20/26/78 23/29/79 21/28/80
f 20/26/81 19/25/82 24/30/83 23/29/84
f 19/25/85 4/4/86 22/27/87 24/30/88
f 13/19/89 14/20/90 26/32/91 25/31/92
f 14/20/93 15/21/94 27/33/95 26/32/96
f 15/21/97 16/22/98 28/34/99 27/33/100
f 16/22/101 13/19/102 25/31/103 28/34/104
f 25/31/105 26/32/106 30/36/107 29/35/108
f 26/32/109 27/33/110 31/37/111 30/36/112
f 27/33/113 28/34/114 32/38/115 31/37/116
f 28/34/117 25/31/118 29/35/119 32/38/120
f 22/27/121 21/28/122 33/40/123 34/39/124
f 21/28/125 23/29/126 35/41/127 33/40/128
f 23/29/129 24/30/130 36/42/131 35/41/132
f 24/30/133 22/27/134 34/39/135 36/42/136
f 34/39/137 33/40/138 37/44/139 38/43/140
f 33/40/141 35/41/142 39/45/143 37/44/144
f 35/41/145 36/42/146 40/46/147 39/45/148
f 36/42/149 34/39/150 38/43/151 40/46/152
f 38/43/153 37/44/154 41/48/155 42/47/156
f 37/44/157 39/45/158 43/49/159 41/48/160
f 39/45/161 40/46/162 44/50/163 43/49/164
f 40/46/165 38/43/166 42/47/167 44/50/168
f 42/47/169 41/48/170 45/52/171 46/51/172
f 41/48/173 43/49/174 47/53/175 45/52/176
f 43/49/177 44/50/178 48/54/179 47/53/180
f 44/50/181 42/47/182 46/51/183 48/54/184
f 46/51/185 45/52/186 49/56/187 50/55/188
f 45/52/189 47/53/190 51/57/191 49/56/192
f 47/53/193 48/54/194 52/58/195 51/57/196
f 48/54/197 46/51/198 50/55/199 52/58/200
