# This file uses centimeters as units for non-parametric coordinates.

mtllib fallingrock.mtl
g default
v -0.191669 1.735245 -0.345492
v 0.051294 1.468800 -0.559017
v 0.158355 1.445359 -0.559017
v 0.929676 1.276480 -0.345491
v 0.728499 1.640812 1.117856
v 0.670762 1.492091 1.425293
v 0.362834 1.459783 1.615300
v 0.090772 1.519351 1.615300
v -0.463759 1.740492 1.425293
v -0.143937 1.724794 0.000000
v -0.685523 1.118280 -0.559017
v -0.220999 1.016574 -0.904509
v 0.695829 0.618704 -1.077617
v 1.113973 0.527152 -0.817100
v 1.411590 0.742498 0.891027
v 1.303391 0.345096 1.187801
v -0.053531 0.045077 1.878720
v -0.411818 0.454611 1.878720
v -0.661376 1.228565 1.387178
v -0.862956 1.157129 0.000000
v -1.784031 0.726123 -0.559017
v -0.353185 0.412841 -0.904509
v 0.838129 0.349137 -1.077617
v 1.013175 0.310811 -0.947426
v 1.371414 0.149125 0.360211
v 1.210122 -0.080886 0.693720
v -0.144817 -0.371853 1.290510
v -1.353026 0.005545 1.829150
v -1.959359 0.471382 1.282540
v -1.961464 0.764971 0.000000
v -1.603880 0.174834 -0.345492
v -0.350466 -0.099598 -0.559017
v 0.039991 -0.014737 -0.559017
v 0.327082 -0.077595 -0.345491
v 0.401150 -0.264163 0.000000
v 0.291490 -0.240154 0.345492
v 0.004399 -0.177295 0.559017
v -1.492116 -0.142764 1.282540
v -1.779208 -0.079906 1.069014
v -1.713539 0.198844 0.000000
v 0.408642 1.799315 0.000000
v -0.178290 -0.162452 0.000000
vt 0.001707 0.743973
vt 0.177504 0.737428
vt 0.006409 0.810867
vt 0.177504 0.824791
vt 0.220117 0.737428
vt 0.019315 0.936338
vt 0.246453 0.824791
vt 0.177504 0.901020
vt 0.246453 0.901020
vt 0.177504 0.962690
vt 0.045651 0.998008
vt 0.220117 0.962690
vt 0.680051 0.523684
vt 0.752604 0.589155
vt 0.713849 0.734365
vt 0.730787 0.487079
vt 0.742574 0.750439
vt 0.628427 0.676196
vt 0.609279 0.457787
vt 0.784572 0.548019
vt 0.827996 0.633583
vt 0.742574 0.766497
vt 0.589837 0.495706
vt 0.855374 0.474411
vt 0.579177 0.633583
vt 0.802731 0.401861
vt 0.596570 0.364378
vt 0.522327 0.291959
vt 0.612628 0.342276
vt 0.479714 0.305805
vt 0.548664 0.255710
vt 0.479714 0.233307
vt 0.591277 0.197058
vt 0.437101 0.291959
vt 0.548664 0.210904
vt 0.394151 0.398440
vt 0.410765 0.255710
vt 0.522327 0.052645
vt 0.320542 0.242864
vt 0.321525 0.074490
vt 0.479714 0.038799
vt 0.347862 0.038241
vt 0.254106 0.087336
vt 0.321525 0.001992
vt 0.313458 0.734007
vt 0.277209 0.710571
vt 0.316895 0.534775
vt 0.274175 0.672652
vt 0.347809 0.734007
vt 0.420456 0.710571
vt 0.381508 0.534775
vt 0.387534 0.492162
vt 0.351232 0.465825
vt 0.337714 0.465825
vt 0.372109 0.423212
vt 0.240325 0.492162
vt 0.251148 0.401861
vt 0.430761 0.465825
vt 0.198353 0.433993
vt 0.288739 0.824791
vt 0.252436 0.799098
vt 0.331966 0.737428
vt 0.001707 0.291959
vt 0.013723 0.255710
vt 0.123216 0.398440
vt 0.195160 0.242864
vt 0.155268 0.188892
vt 0.013723 0.221359
vt 0.247802 0.242864
vt 0.068601 0.138406
vt 0.234204 0.087336
vt 0.001707 0.148712
vt 0.194072 0.001992
vt 0.573919 0.523871
vt 0.497690 0.582523
vt 0.497690 0.401861
vt 0.573919 0.582523
vt 0.436020 0.438110
vt 0.550167 0.703484
vt 0.521442 0.727740
vt 0.550167 0.756280
vn -0.226089 0.475257 -0.850303
vn -0.270559 0.568735 -0.776748
vn -0.296258 0.622756 -0.724159
vn -0.328382 0.690283 -0.644728
vn 0.121586 0.555318 -0.822702
vn 0.097162 0.570914 -0.815240
vn 0.094962 0.572292 -0.814533
vn 0.094660 0.572480 -0.814436
vn 0.331733 0.646615 -0.686908
vn 0.369234 0.629585 -0.683585
vn 0.420995 0.603769 -0.676924
vn 0.526715 0.541791 -0.655007
vn 0.789896 0.611682 -0.043699
vn 0.831387 0.548841 -0.087007
vn 0.878741 0.454333 -0.146275
vn 0.913292 0.352766 -0.203602
vn 0.778759 0.494810 0.385613
vn 0.772620 0.432004 0.465221
vn 0.737635 0.296731 0.606502
vn 0.728381 0.271484 0.629092
vn 0.513925 0.107230 0.851107
vn 0.458151 0.046144 0.887676
vn 0.450457 0.037999 0.891989
vn 0.447363 0.034740 0.893678
vn 0.047851 0.218545 0.974653
vn 0.150077 0.140796 0.978598
vn 0.091582 0.185802 0.978310
vn 0.155808 0.136312 0.978337
vn -0.306726 0.047628 0.950605
vn -0.388347 0.329310 0.860663
vn -0.383631 0.309810 0.869969
vn -0.402988 0.394529 0.825801
vn -0.907284 0.365695 -0.207613
vn -0.684406 0.729081 0.005517
vn -0.811365 0.576534 -0.096411
vn -0.618895 0.783908 0.049566
vn -0.615985 0.780222 0.108704
vn -0.668211 0.741777 -0.057099
vn -0.696154 0.690074 -0.197909
vn -0.704278 0.656909 -0.269190
vn -0.574183 0.125716 -0.809017
vn -0.247933 0.329392 -0.911060
vn -0.206756 0.350049 -0.913629
vn -0.136731 0.383009 -0.913569
vn -0.169804 0.037178 -0.984776
vn -0.156270 -0.033773 -0.987137
vn -0.167727 0.025993 -0.985491
vn -0.147437 -0.077830 -0.986005
vn 0.551003 0.290867 -0.782171
vn 0.566770 0.263928 -0.780458
vn 0.560745 0.274365 -0.781210
vn 0.612079 0.178860 -0.770304
vn 0.978347 0.097214 -0.182719
vn 0.978715 0.085522 -0.186554
vn 0.960913 -0.121043 -0.248988
vn 0.923066 -0.258483 -0.284843
vn 0.976997 -0.175075 0.121761
vn 0.964098 -0.229498 0.133588
vn 0.947462 -0.284937 0.145348
vn 0.904659 -0.391975 0.167176
vn 0.415941 -0.771128 0.482033
vn 0.412690 -0.762160 0.498799
vn 0.405571 -0.742954 0.532477
vn 0.400652 -0.729973 0.553731
vn -0.650051 -0.568708 0.503990
vn 0.087077 -0.558825 0.824702
vn 0.064790 -0.564657 0.822779
vn 0.205700 -0.522473 0.827472
vn -0.262219 0.455693 0.850638
vn -0.307788 0.472501 0.825839
vn -0.323956 0.478204 0.816317
vn -0.348425 0.486564 0.801159
vn -0.505417 0.862386 0.029034
vn -0.440301 0.892192 0.100637
vn -0.442402 0.891400 0.098417
vn -0.328622 0.920531 0.211260
vn -0.331335 0.928133 -0.169666
vn -0.331335 0.928133 -0.169666
vn -0.331335 0.928133 -0.169666
vn -0.331335 0.928133 -0.169666
vn -0.299609 -0.428138 -0.852603
vn -0.267727 -0.511258 -0.816662
vn -0.290358 -0.453426 -0.842673
vn -0.255026 -0.541468 -0.801108
vn -0.139497 -0.696784 -0.703586
vn -0.087003 -0.673287 -0.734244
vn -0.093609 -0.676392 -0.730569
vn 0.120516 -0.554508 -0.823406
vn 0.126101 -0.892831 -0.432380
vn 0.126101 -0.892831 -0.432380
vn 0.126101 -0.892830 -0.432380
vn 0.126100 -0.892831 -0.432380
vn 0.452510 -0.861458 -0.230486
vn 0.410236 -0.872738 -0.264641
vn 0.429275 -0.868032 -0.249486
vn 0.067756 -0.871735 -0.485270
vn 0.471703 -0.815835 -0.334531
vn 0.428611 -0.861506 -0.272213
vn 0.243707 -0.969443 -0.028074
vn 0.129342 -0.985531 0.109542
vn 0.188808 -0.980765 -0.049510
vn 0.149553 -0.986384 -0.068417
vn 0.151053 -0.986205 -0.067699
vn -0.418914 -0.852655 -0.312236
vn -0.161794 -0.941214 0.296546
vn -0.167155 -0.978998 0.116713
vn -0.163216 -0.966747 -0.196877
vn -0.159097 -0.945549 -0.283944
vn -0.747178 -0.568453 0.344363
vn -0.716893 -0.545412 0.434270
vn -0.721261 -0.548736 0.422696
vn -0.593968 -0.451891 0.665580
vn -0.912299 -0.399523 -0.089959
vn -0.924590 -0.367865 -0.099042
vn -0.942702 -0.313533 -0.114059
vn -0.956304 -0.263171 -0.127368
vn -0.885916 -0.387970 -0.254229
vn -0.885916 -0.387970 -0.254229
vn -0.885916 -0.387970 -0.254229
vn -0.885916 -0.387970 -0.254229
vn 0.273786 0.741016 -0.613137
vn 0.273786 0.741016 -0.613137
vn 0.273786 0.741016 -0.613137
vn 0.174043 0.794903 -0.581238
vn 0.174043 0.794903 -0.581238
vn 0.174043 0.794903 -0.581238
vn 0.326542 0.725637 -0.605658
vn 0.326542 0.725637 -0.605658
vn 0.326542 0.725637 -0.605658
vn 0.675318 0.732085 -0.089427
vn 0.675318 0.732085 -0.089427
vn 0.675318 0.732085 -0.089427
vn -0.563089 0.780427 0.271778
vn -0.563090 0.780427 0.271778
vn -0.563090 0.780427 0.271778
vn 0.024676 0.978176 0.206310
vn 0.024676 0.978176 0.206310
vn 0.024676 0.978176 0.206310
vn 0.209257 0.955737 0.206828
vn 0.209257 0.955737 0.206828
vn 0.209257 0.955737 0.206828
vn 0.295636 0.929782 0.219327
vn 0.295636 0.929782 0.219327
vn 0.295636 0.929782 0.219327
vn -0.133539 0.990201 -0.040870
vn -0.133539 0.990201 -0.040870
vn -0.133539 0.990200 -0.040870
vn -0.133494 0.989868 0.048386
vn -0.133494 0.989868 0.048386
vn -0.133494 0.989868 0.048386
vn -0.220464 -0.974505 -0.041667
vn -0.220464 -0.974505 -0.041667
vn -0.220464 -0.974505 -0.041667
vn 0.209191 -0.962513 -0.172652
vn 0.209191 -0.962513 -0.172652
vn 0.209191 -0.962513 -0.172652
vn -0.016766 -0.965044 -0.261551
vn -0.016766 -0.965044 -0.261551
vn -0.016766 -0.965044 -0.261551
vn -0.154958 -0.882783 -0.443489
vn -0.154958 -0.882783 -0.443489
vn -0.154958 -0.882783 -0.443489
vn -0.172875 -0.984850 0.013571
vn -0.172875 -0.984850 0.013571
vn -0.172875 -0.984850 0.013571
vn -0.188459 -0.981438 0.035529
vn -0.188459 -0.981438 0.035529
vn -0.188459 -0.981438 0.035529
vn -0.030993 -0.999385 -0.016408
vn -0.030993 -0.999385 -0.016408
vn -0.030993 -0.999385 -0.016408
vn -0.128758 -0.984776 -0.116782
vn -0.128758 -0.984776 -0.116782
vn -0.128758 -0.984776 -0.116782
vn -0.221273 -0.940254 -0.258768
vn -0.221273 -0.940254 -0.258768
vn -0.221273 -0.940254 -0.258768
vn -0.229073 -0.973396 -0.005063
vn -0.229073 -0.973396 -0.005063
vn -0.229073 -0.973396 -0.005063
s 1
g pSphere1
usemtl lambert2SG
f 1/60/1 2/61/2 11/62/3
f 11/58/3 2/53/2 12/55/4
s 2
f 2/53/5 3/54/6 12/55/7
f 3/54/6 13/57/8 12/55/7
s 3
f 3/54/9 4/56/10 13/57/11
f 13/57/11 4/56/10 14/59/12
s 4
f 5/23/13 15/13/14 4/18/15
f 4/18/15 15/13/14 14/15/16
s 5
f 5/23/17 6/19/18 15/13/19
f 15/13/19 6/19/18 16/16/20
s 6
f 6/63/21 7/64/22 16/65/23
f 16/65/23 7/64/22 17/66/24
s 7
f 8/68/25 18/67/26 7/64/27
f 7/64/27 18/67/26 17/66/28
s 8
f 9/72/29 19/70/30 8/68/31
f 8/68/31 19/70/30 18/67/32
s 9
f 9/1/33 10/2/34 19/3/35
f 19/3/35 10/2/34 20/4/36
s 10
f 10/2/37 1/5/38 20/4/39
f 20/4/39 1/5/38 11/7/40
s 11
f 12/77/41 22/75/42 11/74/43
f 11/74/43 22/75/42 21/76/44
s 12
f 12/77/45 13/79/46 22/75/47
f 22/75/47 13/79/46 23/80/48
s 13
f 13/79/49 14/81/50 23/80/51
f 23/22/51 14/15/50 24/17/52
s 14
f 15/13/53 25/14/54 14/15/55
f 14/15/55 25/14/54 24/17/56
s 15
f 15/13/57 16/16/58 25/14/59
f 25/14/59 16/16/58 26/20/60
s 16
f 17/26/61 27/24/62 16/16/63
f 16/16/63 27/24/62 26/20/64
s 17
f 17/66/65 18/67/66 27/69/67
f 27/69/67 18/67/66 28/71/68
s 18
f 18/67/69 19/70/70 28/71/71
f 28/71/71 19/70/70 29/73/72
s 19
f 19/3/73 20/4/74 29/6/75
f 29/6/75 20/4/74 30/8/76
s 20
f 11/7/77 21/9/78 20/4/79
f 20/4/79 21/9/78 30/8/80
s 21
f 21/76/81 22/75/82 31/78/83
f 31/38/83 22/33/82 32/35/84
s 22
f 23/29/85 33/31/86 22/33/87
f 22/33/87 33/31/86 32/35/88
s 23
f 24/27/89 34/28/90 23/29/91
f 23/29/91 34/28/90 33/31/92
s 24
f 25/14/93 35/21/94 24/17/95
f 24/27/95 35/30/94 34/28/96
s 25
f 25/14/97 26/20/98 35/21/99
f 35/30/99 26/36/98 36/34/100
s 26
f 26/36/101 27/39/102 36/34/103
f 36/34/103 27/39/102 37/37/104
s 27
f 28/43/105 38/40/106 27/39/107
f 27/39/107 38/40/106 37/37/108
s 28
f 28/43/109 29/44/110 38/40/111
f 38/40/111 29/44/110 39/42/112
s 29
f 30/8/113 40/10/114 29/6/115
f 29/6/115 40/10/114 39/11/116
s 30
f 30/8/117 21/9/118 40/10/119
f 40/10/119 21/9/118 31/12/120
s off
f 2/53/121 1/52/122 41/47/123
f 3/54/124 2/53/125 41/47/126
f 4/56/127 3/54/128 41/47/129
f 5/23/130 4/18/131 41/25/132
f 6/46/133 5/48/134 41/47/135
f 7/45/136 6/46/137 41/47/138
f 8/49/139 7/45/140 41/47/141
f 9/50/142 8/49/143 41/47/144
f 10/51/145 9/50/146 41/47/147
f 1/52/148 10/51/149 41/47/150
f 31/38/151 32/35/152 42/32/153
f 32/35/154 33/31/155 42/32/156
f 33/31/157 34/28/158 42/32/159
f 34/28/160 35/30/161 42/32/162
f 35/30/163 36/34/164 42/32/165
f 36/34/166 37/37/167 42/32/168
f 37/37/169 38/40/170 42/32/171
f 38/40/172 39/42/173 42/32/174
f 39/42/175 40/41/176 42/32/177
f 40/41/178 31/38/179 42/32/180
