# This file uses centimeters as units for non-parametric coordinates.

mtllib kouenn_arm2.mtl
g default
v 1.082427 0.091878 -0.472212
v 1.082427 -0.091878 -0.472212
v 1.082427 -0.183756 -0.313075
v 1.082427 -0.091878 -0.153937
v 1.082427 0.091878 -0.153937
v 1.082427 0.183756 -0.313075
v -1.082427 0.091878 -0.472212
v -1.082427 -0.091878 -0.472212
v -1.082427 -0.183756 -0.313075
v -1.082427 -0.091878 -0.153937
v -1.082427 0.091878 -0.153937
v -1.082427 0.183756 -0.313075
v 1.082427 -0.000000 -0.313075
v -1.082427 0.000000 -0.313075
vt 0.873964 0.697136
vt 0.717714 0.697136
vt 0.639589 0.832453
vt 0.717714 0.967769
vt 0.873964 0.967769
vt 0.952089 0.832453
vt 0.740797 0.727416
vt 0.762813 0.727416
vt 0.784829 0.727416
vt 0.806846 0.727416
vt 0.828862 0.727416
vt 0.850878 0.727416
vt 0.872895 0.727416
vt 0.740797 0.926060
vt 0.762813 0.926060
vt 0.784829 0.926060
vt 0.806846 0.926060
vt 0.828862 0.926060
vt 0.850878 0.926060
vt 0.872895 0.926060
vt 0.894250 0.710124
vt 0.738000 0.710124
vt 0.659875 0.845441
vt 0.738000 0.980757
vt 0.894250 0.980757
vt 0.972375 0.845441
vt 0.795839 0.826203
vt 0.816125 0.839190
vn 0.000000 0.000000 -1.000000
vn 0.000000 0.000000 -1.000000
vn 0.000000 0.000000 -1.000000
vn 0.000000 0.000000 -1.000000
vn -0.000000 -0.866025 -0.500000
vn -0.000000 -0.866025 -0.500000
vn -0.000000 -0.866025 -0.500000
vn -0.000000 -0.866025 -0.500000
vn -0.000000 -0.866026 0.500000
vn -0.000000 -0.866026 0.500000
vn -0.000000 -0.866026 0.500000
vn -0.000000 -0.866026 0.500000
vn -0.000000 -0.000000 1.000000
vn -0.000000 -0.000000 1.000000
vn -0.000000 -0.000000 1.000000
vn -0.000000 -0.000000 1.000000
vn 0.000000 0.866025 0.500000
vn 0.000000 0.866025 0.500000
vn 0.000000 0.866025 0.500000
vn 0.000000 0.866025 0.500000
vn 0.000000 0.866026 -0.500000
vn 0.000000 0.866026 -0.500000
vn 0.000000 0.866026 -0.500000
vn 0.000000 0.866026 -0.500000
vn 1.000000 -0.000000 0.000000
vn 1.000000 -0.000000 0.000000
vn 1.000000 -0.000000 0.000000
vn 1.000000 -0.000000 0.000000
vn 1.000000 -0.000000 -0.000000
vn 1.000000 -0.000000 -0.000000
vn 1.000000 -0.000000 0.000000
vn -1.000000 0.000000 0.000000
vn -1.000000 0.000000 -0.000000
vn -1.000000 0.000000 0.000000
vn -1.000000 0.000000 -0.000000
vn -1.000000 0.000000 0.000000
vn -1.000000 0.000000 0.000000
vn -1.000000 0.000000 0.000000
s off
g pasted__pasted__pCylinder3 pasted__group7 group8
usemtl lambert3SG
f 1/7/1 2/8/2 8/15/3 7/14/4
f 2/8/5 3/9/6 9/16/7 8/15/8
f 3/9/9 4/10/10 10/17/11 9/16/12
f 4/10/13 5/11/14 11/18/15 10/17/16
f 5/11/17 6/12/18 12/19/19 11/18/20
f 6/12/21 1/13/22 7/20/23 12/19/24
s 1
f 2/2/25 1/1/26 13/27/27
f 3/3/28 2/2/25 13/27/27
f 4/4/29 3/3/28 13/27/27
f 5/5/30 4/4/29 13/27/27
f 6/6/31 5/5/30 13/27/27
f 1/1/26 6/6/31 13/27/27
s 2
f 7/25/32 8/24/33 14/28/34
f 8/24/33 9/23/35 14/28/34
f 9/23/35 10/22/36 14/28/34
f 10/22/36 11/21/37 14/28/34
f 11/21/37 12/26/38 14/28/34
f 12/26/38 7/25/32 14/28/34
g default
v 1.082427 0.361322 -0.314454
v 1.082427 0.177566 -0.314454
v 1.082427 0.085688 -0.155317
v 1.082427 0.177566 0.003821
v 1.082427 0.361322 0.003821
v 1.082427 0.453200 -0.155317
v -1.082427 0.361322 -0.314454
v -1.082427 0.177566 -0.314454
v -1.082427 0.085688 -0.155317
v -1.082427 0.177566 0.003821
v -1.082427 0.361322 0.003821
v -1.082427 0.453200 -0.155317
v 1.082427 0.269444 -0.155317
v -1.082427 0.269444 -0.155317
vt 0.901012 0.692065
vt 0.744762 0.692065
vt 0.666637 0.827381
vt 0.744762 0.962698
vt 0.901012 0.962698
vt 0.979137 0.827381
vt 0.708640 0.727416
vt 0.730656 0.727416
vt 0.752672 0.727416
vt 0.774689 0.727416
vt 0.796705 0.727416
vt 0.818721 0.727416
vt 0.840738 0.727416
vt 0.708640 0.926060
vt 0.730656 0.926060
vt 0.752672 0.926060
vt 0.774689 0.926060
vt 0.796705 0.926060
vt 0.818721 0.926060
vt 0.840738 0.926060
vt 0.890869 0.710124
vt 0.734619 0.710124
vt 0.656494 0.845441
vt 0.734619 0.980757
vt 0.890869 0.980757
vt 0.968994 0.845441
vt 0.822887 0.821131
vt 0.812744 0.839190
vn 0.000000 0.000000 -1.000000
vn 0.000000 0.000000 -1.000000
vn 0.000000 0.000000 -1.000000
vn 0.000000 0.000000 -1.000000
vn -0.000000 -0.866025 -0.500000
vn -0.000000 -0.866025 -0.500000
vn -0.000000 -0.866025 -0.500000
vn -0.000000 -0.866025 -0.500000
vn -0.000000 -0.866026 0.500000
vn -0.000000 -0.866026 0.500000
vn -0.000000 -0.866026 0.500000
vn -0.000000 -0.866026 0.500000
vn -0.000000 -0.000000 1.000000
vn -0.000000 -0.000000 1.000000
vn -0.000000 -0.000000 1.000000
vn -0.000000 -0.000000 1.000000
vn 0.000000 0.866025 0.500000
vn 0.000000 0.866025 0.500000
vn 0.000000 0.866025 0.500000
vn 0.000000 0.866025 0.500000
vn 0.000000 0.866026 -0.500000
vn 0.000000 0.866026 -0.500000
vn 0.000000 0.866026 -0.500000
vn 0.000000 0.866026 -0.500000
vn 1.000000 -0.000000 0.000000
vn 1.000000 -0.000000 0.000000
vn 1.000000 -0.000000 0.000000
vn 1.000000 -0.000000 0.000000
vn 1.000000 -0.000000 -0.000000
vn 1.000000 -0.000000 -0.000000
vn 1.000000 -0.000000 0.000000
vn -1.000000 0.000000 0.000000
vn -1.000000 0.000000 -0.000000
vn -1.000000 0.000000 0.000000
vn -1.000000 0.000000 -0.000000
vn -1.000000 0.000000 0.000000
vn -1.000000 0.000000 0.000000
vn -1.000000 0.000000 0.000000
s off
g pasted__pasted__pCylinder3 pasted__group7 group8 pasted__pasted__pCylinder3
usemtl lambert3SG
f 15/35/39 16/36/40 22/43/41 21/42/42
f 16/36/43 17/37/44 23/44/45 22/43/46
f 17/37/47 18/38/48 24/45/49 23/44/50
f 18/38/51 19/39/52 25/46/53 24/45/54
f 19/39/55 20/40/56 26/47/57 25/46/58
f 20/40/59 15/41/60 21/48/61 26/47/62
s 1
f 16/30/63 15/29/64 27/55/65
f 17/31/66 16/30/63 27/55/65
f 18/32/67 17/31/66 27/55/65
f 19/33/68 18/32/67 27/55/65
f 20/34/69 19/33/68 27/55/65
f 15/29/64 20/34/69 27/55/65
s 2
f 21/53/70 22/52/71 28/56/72
f 22/52/71 23/51/73 28/56/72
f 23/51/73 24/50/74 28/56/72
f 24/50/74 25/49/75 28/56/72
f 25/49/75 26/54/76 28/56/72
f 26/54/76 21/53/70 28/56/72
g default
v 1.082427 0.361322 0.002910
v 1.082427 0.177566 0.002910
v 1.082427 0.085688 0.162048
v 1.082427 0.177566 0.321186
v 1.082427 0.361322 0.321186
v 1.082427 0.453200 0.162048
v -1.082427 0.361322 0.002910
v -1.082427 0.177566 0.002910
v -1.082427 0.085688 0.162048
v -1.082427 0.177566 0.321186
v -1.082427 0.361322 0.321186
v -1.082427 0.453200 0.162048
v 1.082427 0.269444 0.162048
v -1.082427 0.269444 0.162048
vt 0.882416 0.705589
vt 0.726166 0.705589
vt 0.648041 0.840905
vt 0.726166 0.976222
vt 0.882416 0.976222
vt 0.960541 0.840905
vt 0.708640 0.727416
vt 0.730656 0.727416
vt 0.752672 0.727416
vt 0.774689 0.727416
vt 0.796705 0.727416
vt 0.818721 0.727416
vt 0.840738 0.727416
vt 0.708640 0.926060
vt 0.730656 0.926060
vt 0.752672 0.926060
vt 0.774689 0.926060
vt 0.796705 0.926060
vt 0.818721 0.926060
vt 0.840738 0.926060
vt 0.892559 0.710124
vt 0.736309 0.710124
vt 0.658184 0.845441
vt 0.736309 0.980757
vt 0.892559 0.980757
vt 0.970684 0.845441
vt 0.804291 0.834655
vt 0.814434 0.839190
vn 0.000000 0.000000 -1.000000
vn 0.000000 0.000000 -1.000000
vn 0.000000 0.000000 -1.000000
vn 0.000000 0.000000 -1.000000
vn -0.000000 -0.866025 -0.500000
vn -0.000000 -0.866025 -0.500000
vn -0.000000 -0.866025 -0.500000
vn -0.000000 -0.866025 -0.500000
vn -0.000000 -0.866026 0.500000
vn -0.000000 -0.866026 0.500000
vn -0.000000 -0.866026 0.500000
vn -0.000000 -0.866026 0.500000
vn -0.000000 -0.000000 1.000000
vn -0.000000 -0.000000 1.000000
vn -0.000000 -0.000000 1.000000
vn -0.000000 -0.000000 1.000000
vn 0.000000 0.866025 0.500000
vn 0.000000 0.866025 0.500000
vn 0.000000 0.866025 0.500000
vn 0.000000 0.866025 0.500000
vn 0.000000 0.866026 -0.500000
vn 0.000000 0.866026 -0.500000
vn 0.000000 0.866026 -0.500000
vn 0.000000 0.866026 -0.500000
vn 1.000000 -0.000000 0.000000
vn 1.000000 -0.000000 0.000000
vn 1.000000 -0.000000 0.000000
vn 1.000000 -0.000000 0.000000
vn 1.000000 -0.000000 -0.000000
vn 1.000000 -0.000000 -0.000000
vn 1.000000 -0.000000 0.000000
vn -1.000000 0.000000 0.000000
vn -1.000000 0.000000 -0.000000
vn -1.000000 0.000000 0.000000
vn -1.000000 0.000000 -0.000000
vn -1.000000 0.000000 0.000000
vn -1.000000 0.000000 0.000000
vn -1.000000 0.000000 0.000000
s off
g pasted__pasted__pCylinder3 pasted__group7 group8 pasted__pCylinder3
usemtl lambert3SG
f 29/63/77 30/64/78 36/71/79 35/70/80
f 30/64/81 31/65/82 37/72/83 36/71/84
f 31/65/85 32/66/86 38/73/87 37/72/88
f 32/66/89 33/67/90 39/74/91 38/73/92
f 33/67/93 34/68/94 40/75/95 39/74/96
f 34/68/97 29/69/98 35/76/99 40/75/100
s 1
f 30/58/101 29/57/102 41/83/103
f 31/59/104 30/58/101 41/83/103
f 32/60/105 31/59/104 41/83/103
f 33/61/106 32/60/105 41/83/103
f 34/62/107 33/61/106 41/83/103
f 29/57/102 34/62/107 41/83/103
s 2
f 35/81/108 36/80/109 42/84/110
f 36/80/109 37/79/111 42/84/110
f 37/79/111 38/78/112 42/84/110
f 38/78/112 39/77/113 42/84/110
f 39/77/113 40/82/114 42/84/110
f 40/82/114 35/81/108 42/84/110
g default
v 1.082427 0.091878 0.155115
v 1.082427 -0.091878 0.155115
v 1.082427 -0.183756 0.314253
v 1.082427 -0.091878 0.473390
v 1.082427 0.091878 0.473390
v 1.082427 0.183756 0.314253
v -1.082427 0.091878 0.155115
v -1.082427 -0.091878 0.155115
v -1.082427 -0.183756 0.314253
v -1.082427 -0.091878 0.473390
v -1.082427 0.091878 0.473390
v -1.082427 0.183756 0.314253
v 1.082427 -0.000000 0.314253
v -1.082427 0.000000 0.314253
vt 0.892559 0.692065
vt 0.736309 0.692065
vt 0.658184 0.827381
vt 0.736309 0.962698
vt 0.892559 0.962698
vt 0.970684 0.827381
vt 0.708640 0.727416
vt 0.730656 0.727416
vt 0.752672 0.727416
vt 0.774689 0.727416
vt 0.796705 0.727416
vt 0.818721 0.727416
vt 0.840738 0.727416
vt 0.708640 0.926060
vt 0.730656 0.926060
vt 0.752672 0.926060
vt 0.774689 0.926060
vt 0.796705 0.926060
vt 0.818721 0.926060
vt 0.840738 0.926060
vt 0.895940 0.710124
vt 0.739690 0.710124
vt 0.661565 0.845441
vt 0.739690 0.980757
vt 0.895940 0.980757
vt 0.974065 0.845441
vt 0.814434 0.821131
vt 0.817815 0.839190
vn 0.000000 0.000000 -1.000000
vn 0.000000 0.000000 -1.000000
vn 0.000000 0.000000 -1.000000
vn 0.000000 0.000000 -1.000000
vn -0.000000 -0.866025 -0.500000
vn -0.000000 -0.866025 -0.500000
vn -0.000000 -0.866025 -0.500000
vn -0.000000 -0.866025 -0.500000
vn -0.000000 -0.866026 0.500000
vn -0.000000 -0.866026 0.500000
vn -0.000000 -0.866026 0.500000
vn -0.000000 -0.866026 0.500000
vn -0.000000 -0.000000 1.000000
vn -0.000000 -0.000000 1.000000
vn -0.000000 -0.000000 1.000000
vn -0.000000 -0.000000 1.000000
vn 0.000000 0.866025 0.500000
vn 0.000000 0.866025 0.500000
vn 0.000000 0.866025 0.500000
vn 0.000000 0.866025 0.500000
vn 0.000000 0.866026 -0.500000
vn 0.000000 0.866026 -0.500000
vn 0.000000 0.866026 -0.500000
vn 0.000000 0.866026 -0.500000
vn 1.000000 -0.000000 0.000000
vn 1.000000 -0.000000 0.000000
vn 1.000000 -0.000000 0.000000
vn 1.000000 -0.000000 0.000000
vn 1.000000 -0.000000 -0.000000
vn 1.000000 -0.000000 -0.000000
vn 1.000000 -0.000000 0.000000
vn -1.000000 0.000000 0.000000
vn -1.000000 0.000000 -0.000000
vn -1.000000 0.000000 0.000000
vn -1.000000 0.000000 -0.000000
vn -1.000000 0.000000 0.000000
vn -1.000000 0.000000 0.000000
vn -1.000000 0.000000 0.000000
s off
g pasted__pasted__pCylinder3 pasted__group7 group8 pasted__pCylinder4
usemtl lambert3SG
f 43/91/115 44/92/116 50/99/117 49/98/118
f 44/92/119 45/93/120 51/100/121 50/99/122
f 45/93/123 46/94/124 52/101/125 51/100/126
f 46/94/127 47/95/128 53/102/129 52/101/130
f 47/95/131 48/96/132 54/103/133 53/102/134
f 48/96/135 43/97/136 49/104/137 54/103/138
s 1
f 44/86/139 43/85/140 55/111/141
f 45/87/142 44/86/139 55/111/141
f 46/88/143 45/87/142 55/111/141
f 47/89/144 46/88/143 55/111/141
f 48/90/145 47/89/144 55/111/141
f 43/85/140 48/90/145 55/111/141
s 2
f 49/109/146 50/108/147 56/112/148
f 50/108/147 51/107/149 56/112/148
f 51/107/149 52/106/150 56/112/148
f 52/106/150 53/105/151 56/112/148
f 53/105/151 54/110/152 56/112/148
f 54/110/152 49/109/146 56/112/148
g default
v 1.082427 -0.177083 0.002910
v 1.082427 -0.360839 0.002910
v 1.082427 -0.452717 0.162048
v 1.082427 -0.360839 0.321186
v 1.082427 -0.177083 0.321186
v 1.082427 -0.085205 0.162048
v -1.082427 -0.177083 0.002910
v -1.082427 -0.360839 0.002910
v -1.082427 -0.452717 0.162048
v -1.082427 -0.360839 0.321186
v -1.082427 -0.177083 0.321186
v -1.082427 -0.085205 0.162048
v 1.082427 -0.268961 0.162048
v -1.082427 -0.268961 0.162048
vt 0.897631 0.702208
vt 0.741381 0.702208
vt 0.663256 0.837524
vt 0.741381 0.972841
vt 0.897631 0.972841
vt 0.975756 0.837524
vt 0.708640 0.727416
vt 0.730656 0.727416
vt 0.752672 0.727416
vt 0.774689 0.727416
vt 0.796705 0.727416
vt 0.818721 0.727416
vt 0.840738 0.727416
vt 0.708640 0.926060
vt 0.730656 0.926060
vt 0.752672 0.926060
vt 0.774689 0.926060
vt 0.796705 0.926060
vt 0.818721 0.926060
vt 0.840738 0.926060
vt 0.877345 0.710124
vt 0.721095 0.710124
vt 0.642970 0.845441
vt 0.721095 0.980757
vt 0.877345 0.980757
vt 0.955470 0.845441
vt 0.819506 0.831275
vt 0.799220 0.839190
vn 0.000000 0.000000 -1.000000
vn 0.000000 0.000000 -1.000000
vn 0.000000 0.000000 -1.000000
vn 0.000000 0.000000 -1.000000
vn -0.000000 -0.866025 -0.500000
vn -0.000000 -0.866025 -0.500000
vn -0.000000 -0.866025 -0.500000
vn -0.000000 -0.866025 -0.500000
vn -0.000000 -0.866026 0.500000
vn -0.000000 -0.866026 0.500000
vn -0.000000 -0.866026 0.500000
vn -0.000000 -0.866026 0.500000
vn -0.000000 -0.000000 1.000000
vn -0.000000 -0.000000 1.000000
vn -0.000000 -0.000000 1.000000
vn -0.000000 -0.000000 1.000000
vn 0.000000 0.866025 0.500000
vn 0.000000 0.866025 0.500000
vn 0.000000 0.866025 0.500000
vn 0.000000 0.866025 0.500000
vn 0.000000 0.866026 -0.500000
vn 0.000000 0.866026 -0.500000
vn 0.000000 0.866026 -0.500000
vn 0.000000 0.866026 -0.500000
vn 1.000000 -0.000000 0.000000
vn 1.000000 -0.000000 0.000000
vn 1.000000 -0.000000 0.000000
vn 1.000000 -0.000000 0.000000
vn 1.000000 -0.000000 -0.000000
vn 1.000000 -0.000000 -0.000000
vn 1.000000 -0.000000 0.000000
vn -1.000000 0.000000 0.000000
vn -1.000000 0.000000 -0.000000
vn -1.000000 0.000000 0.000000
vn -1.000000 0.000000 -0.000000
vn -1.000000 0.000000 0.000000
vn -1.000000 0.000000 0.000000
vn -1.000000 0.000000 0.000000
s off
g pasted__pasted__pCylinder3 pasted__group7 group8 pasted__pasted__pCylinder4
usemtl lambert3SG
f 57/119/153 58/120/154 64/127/155 63/126/156
f 58/120/157 59/121/158 65/128/159 64/127/160
f 59/121/161 60/122/162 66/129/163 65/128/164
f 60/122/165 61/123/166 67/130/167 66/129/168
f 61/123/169 62/124/170 68/131/171 67/130/172
f 62/124/173 57/125/174 63/132/175 68/131/176
s 1
f 58/114/177 57/113/178 69/139/179
f 59/115/180 58/114/177 69/139/179
f 60/116/181 59/115/180 69/139/179
f 61/117/182 60/116/181 69/139/179
f 62/118/183 61/117/182 69/139/179
f 57/113/178 62/118/183 69/139/179
s 2
f 63/137/184 64/136/185 70/140/186
f 64/136/185 65/135/187 70/140/186
f 65/135/187 66/134/188 70/140/186
f 66/134/188 67/133/189 70/140/186
f 67/133/189 68/138/190 70/140/186
f 68/138/190 63/137/184 70/140/186
g default
v 1.082427 -0.184175 -0.314454
v 1.082427 -0.367931 -0.314454
v 1.082427 -0.459809 -0.155317
v 1.082427 -0.367931 0.003821
v 1.082427 -0.184175 0.003821
v 1.082427 -0.092297 -0.155317
v -1.082427 -0.184175 -0.314454
v -1.082427 -0.367931 -0.314454
v -1.082427 -0.459809 -0.155317
v -1.082427 -0.367931 0.003821
v -1.082427 -0.184175 0.003821
v -1.082427 -0.092297 -0.155317
v 1.082427 -0.276053 -0.155317
v -1.082427 -0.276053 -0.155317
vt 0.870583 0.698827
vt 0.714333 0.698827
vt 0.636208 0.834143
vt 0.714333 0.969460
vt 0.870583 0.969460
vt 0.948708 0.834143
vt 0.708640 0.727416
vt 0.730656 0.727416
vt 0.752672 0.727416
vt 0.774689 0.727416
vt 0.796705 0.727416
vt 0.818721 0.727416
vt 0.840738 0.727416
vt 0.708640 0.926060
vt 0.730656 0.926060
vt 0.752672 0.926060
vt 0.774689 0.926060
vt 0.796705 0.926060
vt 0.818721 0.926060
vt 0.840738 0.926060
vt 0.877345 0.710124
vt 0.721095 0.710124
vt 0.642970 0.845441
vt 0.721095 0.980757
vt 0.877345 0.980757
vt 0.955470 0.845441
vt 0.792458 0.827893
vt 0.799220 0.839190
vn 0.000000 0.000000 -1.000000
vn 0.000000 0.000000 -1.000000
vn 0.000000 0.000000 -1.000000
vn 0.000000 0.000000 -1.000000
vn -0.000000 -0.866025 -0.500000
vn -0.000000 -0.866025 -0.500000
vn -0.000000 -0.866025 -0.500000
vn -0.000000 -0.866025 -0.500000
vn -0.000000 -0.866026 0.500000
vn -0.000000 -0.866026 0.500000
vn -0.000000 -0.866026 0.500000
vn -0.000000 -0.866026 0.500000
vn -0.000000 -0.000000 1.000000
vn -0.000000 -0.000000 1.000000
vn -0.000000 -0.000000 1.000000
vn -0.000000 -0.000000 1.000000
vn 0.000000 0.866025 0.500000
vn 0.000000 0.866025 0.500000
vn 0.000000 0.866025 0.500000
vn 0.000000 0.866025 0.500000
vn 0.000000 0.866026 -0.500000
vn 0.000000 0.866026 -0.500000
vn 0.000000 0.866026 -0.500000
vn 0.000000 0.866026 -0.500000
vn 1.000000 -0.000000 0.000000
vn 1.000000 -0.000000 0.000000
vn 1.000000 -0.000000 0.000000
vn 1.000000 -0.000000 0.000000
vn 1.000000 -0.000000 -0.000000
vn 1.000000 -0.000000 -0.000000
vn 1.000000 -0.000000 0.000000
vn -1.000000 0.000000 0.000000
vn -1.000000 0.000000 -0.000000
vn -1.000000 0.000000 0.000000
vn -1.000000 0.000000 -0.000000
vn -1.000000 0.000000 0.000000
vn -1.000000 0.000000 0.000000
vn -1.000000 0.000000 0.000000
s off
g pasted__pasted__pCylinder3 pasted__group7 group8 pasted__pasted__pasted__pCylinder3
usemtl lambert3SG
f 71/147/191 72/148/192 78/155/193 77/154/194
f 72/148/195 73/149/196 79/156/197 78/155/198
f 73/149/199 74/150/200 80/157/201 79/156/202
f 74/150/203 75/151/204 81/158/205 80/157/206
f 75/151/207 76/152/208 82/159/209 81/158/210
f 76/152/211 71/153/212 77/160/213 82/159/214
s 1
f 72/142/215 71/141/216 83/167/217
f 73/143/218 72/142/215 83/167/217
f 74/144/219 73/143/218 83/167/217
f 75/145/220 74/144/219 83/167/217
f 76/146/221 75/145/220 83/167/217
f 71/141/216 76/146/221 83/167/217
s 2
f 77/165/222 78/164/223 84/168/224
f 78/164/223 79/163/225 84/168/224
f 79/163/225 80/162/226 84/168/224
f 80/162/226 81/161/227 84/168/224
f 81/161/227 82/166/228 84/168/224
f 82/166/228 77/165/222 84/168/224
