# This file uses centimeters as units for non-parametric coordinates.

mtllib Ldesk.mtl
g default
v -1.000000 0.062500 -2.000000
v 1.000000 0.062500 -2.000000
v -1.000000 -0.062500 -2.000000
v 1.000000 -0.062500 -2.000000
v 1.000000 -0.062500 -1.458308
v -1.000000 -0.062500 -1.458308
v 1.000000 -0.062500 -1.541703
v -1.000000 -0.062500 -1.541703
v 1.000000 -0.062500 -1.374914
v -1.000000 -0.062500 -1.374914
v 0.000000 -0.062500 -1.541703
v 0.000000 -0.062500 -1.374914
v -0.190734 -0.062500 -1.541703
v -0.190734 -0.062500 -1.374914
v 0.190734 -0.062500 -1.541703
v 0.190734 -0.062500 -1.374914
v 0.000000 -1.289612 -1.374914
v -0.190734 -1.289612 -1.374914
v -0.190734 -1.289612 -1.541703
v 0.000000 -1.289612 -1.541703
v 0.190734 -1.289612 -1.541703
v 0.190734 -1.289612 -1.374914
v 0.000000 -1.404932 -1.259703
v -0.454237 -1.404932 -1.259703
v -0.454237 -1.404932 -1.656913
v 0.000000 -1.404932 -1.656913
v 0.454237 -1.404932 -1.656913
v 0.454237 -1.404932 -1.259703
v 0.000000 -1.289612 -1.259703
v -0.454237 -1.289612 -1.259703
v -0.454237 -1.289612 -1.656913
v 0.000000 -1.289612 -1.656913
v 0.454237 -1.289612 -1.656913
v 0.454237 -1.289612 -1.259703
v -1.000000 0.062500 -0.029666
v 1.000000 0.062500 -0.029666
v 1.000000 -0.062500 -0.029666
v -1.000000 -0.062500 -0.029666
v -1.000000 0.062500 1.940668
v 1.000000 0.062500 1.940668
v -1.000000 -0.062500 1.940668
v 1.000000 -0.062500 1.940668
v 1.000000 -0.062500 1.398976
v -1.000000 -0.062500 1.398976
v 1.000000 -0.062500 1.482370
v -1.000000 -0.062500 1.482370
v 1.000000 -0.062500 1.315582
v -1.000000 -0.062500 1.315582
v 0.000000 -0.062500 1.482370
v 0.000000 -0.062500 1.315582
v -0.190734 -0.062500 1.482370
v -0.190734 -0.062500 1.315582
v 0.190734 -0.062500 1.482370
v 0.190734 -0.062500 1.315582
v 0.000000 -1.289612 1.315582
v -0.190734 -1.289612 1.315582
v -0.190734 -1.289612 1.482370
v 0.000000 -1.289612 1.482370
v 0.190734 -1.289612 1.482370
v 0.190734 -1.289612 1.315582
v 0.000000 -1.404932 1.200371
v -0.454237 -1.404932 1.200371
v -0.454237 -1.404932 1.597581
v 0.000000 -1.404932 1.597581
v 0.454237 -1.404932 1.597581
v 0.454237 -1.404932 1.200371
v 0.000000 -1.289612 1.200371
v -0.454237 -1.289612 1.200371
v -0.454237 -1.289612 1.597581
v 0.000000 -1.289612 1.597581
v 0.454237 -1.289612 1.597581
v 0.454237 -1.289612 1.200371
vt 0.375000 0.500000
vt 0.625000 0.500000
vt 0.625000 0.750000
vt 0.375000 0.750000
vt 0.625000 0.781250
vt 0.562445 0.781277
vt 0.500000 0.781277
vt 0.437555 0.781277
vt 0.375000 0.781250
vt 0.125000 0.000000
vt 0.156250 0.000000
vt 0.187500 0.000000
vt 0.218750 0.000000
vt 0.249326 0.000000
vt 0.248146 0.250000
vt 0.125000 0.250000
vt 0.375000 0.812500
vt 0.437555 0.843723
vt 0.375000 0.843750
vt 0.500000 0.843723
vt 0.562445 0.843723
vt 0.625000 0.843750
vt 0.625000 0.874326
vt 0.375000 0.874326
vt 0.500000 0.843750
vt 0.437500 0.843750
vt 0.437500 0.781250
vt 0.500000 0.781250
vt 0.562445 0.781277
vt 0.562445 0.843723
vt 0.625000 0.812500
vt 0.437500 0.843750
vt 0.500000 0.843750
vt 0.437500 0.781250
vt 0.500000 0.781250
vt 0.562500 0.781250
vt 0.562500 0.843750
vt 0.500000 0.843750
vt 0.437500 0.843750
vt 0.437500 0.781250
vt 0.500000 0.781250
vt 0.562500 0.781250
vt 0.562500 0.843750
vt 0.375000 0.376854
vt 0.625000 0.376854
vt 0.751854 0.250000
vt 0.750674 0.000000
vt 0.781250 0.000000
vt 0.812500 0.000000
vt 0.843750 0.000000
vt 0.875000 0.000000
vt 0.875000 0.250000
vt 0.375000 0.500000
vt 0.375000 0.750000
vt 0.625000 0.750000
vt 0.625000 0.500000
vt 0.375000 0.781250
vt 0.437500 0.781250
vt 0.500000 0.781250
vt 0.562500 0.781250
vt 0.625000 0.781250
vt 0.125000 0.000000
vt 0.125000 0.250000
vt 0.248146 0.250000
vt 0.249326 0.000000
vt 0.218750 0.000000
vt 0.187500 0.000000
vt 0.156250 0.000000
vt 0.375000 0.812500
vt 0.375000 0.843750
vt 0.437500 0.843750
vt 0.375000 0.874326
vt 0.625000 0.874326
vt 0.625000 0.843750
vt 0.562500 0.843750
vt 0.500000 0.843750
vt 0.500000 0.843750
vt 0.562500 0.843750
vt 0.562500 0.781250
vt 0.500000 0.781250
vt 0.437500 0.781250
vt 0.437500 0.843750
vt 0.625000 0.812500
vt 0.500000 0.843750
vt 0.437500 0.843750
vt 0.437500 0.781250
vt 0.500000 0.781250
vt 0.562500 0.781250
vt 0.562500 0.843750
vt 0.500000 0.843750
vt 0.437500 0.843750
vt 0.437500 0.781250
vt 0.500000 0.781250
vt 0.562500 0.781250
vt 0.562500 0.843750
vt 0.375000 0.376854
vt 0.625000 0.376854
vt 0.751854 0.250000
vt 0.875000 0.250000
vt 0.875000 0.000000
vt 0.843750 0.000000
vt 0.812500 0.000000
vt 0.781250 0.000000
vt 0.750674 0.000000
vn 0.000000 0.000000 -1.000000
vn 0.000000 0.000000 -1.000000
vn 0.000000 0.000000 -1.000000
vn 0.000000 0.000000 -1.000000
vn 0.000000 -1.000000 0.000000
vn 0.000000 -1.000000 0.000000
vn 0.000000 -1.000000 0.000000
vn 0.000000 -1.000000 0.000000
vn 0.000000 -1.000000 0.000000
vn 0.000000 -1.000000 0.000000
vn 0.000000 -1.000000 0.000000
vn -1.000000 0.000000 0.000000
vn -1.000000 0.000000 0.000000
vn -1.000000 0.000000 0.000000
vn -1.000000 0.000000 0.000000
vn -1.000000 0.000000 0.000000
vn -1.000000 0.000000 0.000000
vn -1.000000 0.000000 0.000000
vn 0.000000 -1.000000 0.000000
vn 0.000000 -1.000000 0.000000
vn 0.000000 -1.000000 0.000000
vn 0.000000 -1.000000 0.000000
vn 0.000000 -1.000000 0.000000
vn 0.000000 -1.000000 0.000000
vn 0.000000 -1.000000 0.000000
vn 0.000000 -1.000000 0.000000
vn 0.000000 -1.000000 0.000000
vn 0.000000 -1.000000 0.000000
vn 0.000000 -1.000000 0.000000
vn 0.000000 -1.000000 0.000000
vn 0.000000 -1.000000 0.000000
vn 0.000000 -1.000000 0.000000
vn 0.000000 -1.000000 0.000000
vn 0.000000 -1.000000 0.000000
vn 0.000000 -1.000000 0.000000
vn 0.000000 -1.000000 0.000000
vn 0.000000 -1.000000 0.000000
vn 0.000000 -1.000000 0.000000
vn 0.000000 -1.000000 0.000000
vn 0.000000 -1.000000 0.000000
vn 0.000000 -1.000000 0.000000
vn 0.000000 0.000000 1.000000
vn 0.000000 0.000000 1.000000
vn 0.000000 0.000000 1.000000
vn 0.000000 0.000000 1.000000
vn -1.000000 0.000000 0.000000
vn -1.000000 0.000000 0.000000
vn -1.000000 0.000000 0.000000
vn -1.000000 0.000000 0.000000
vn 0.000000 0.000000 -1.000000
vn 0.000000 0.000000 -1.000000
vn 0.000000 0.000000 -1.000000
vn 0.000000 0.000000 -1.000000
vn 0.000000 0.000000 -1.000000
vn 0.000000 0.000000 -1.000000
vn 0.000000 0.000000 -1.000000
vn 0.000000 0.000000 -1.000000
vn 1.000000 0.000000 0.000000
vn 1.000000 0.000000 0.000000
vn 1.000000 0.000000 0.000000
vn 1.000000 0.000000 0.000000
vn 0.000000 0.000000 1.000000
vn 0.000000 0.000000 1.000000
vn 0.000000 0.000000 1.000000
vn 0.000000 0.000000 1.000000
vn 0.000000 0.000000 1.000000
vn 0.000000 0.000000 1.000000
vn 0.000000 0.000000 1.000000
vn 0.000000 0.000000 1.000000
vn -1.000000 0.000000 0.000000
vn -1.000000 0.000000 0.000000
vn -1.000000 0.000000 0.000000
vn -1.000000 0.000000 0.000000
vn 0.000000 0.000000 -1.000000
vn 0.000000 0.000000 -1.000000
vn 0.000000 0.000000 -1.000000
vn 0.000000 0.000000 -1.000000
vn 0.000000 0.000000 -1.000000
vn 0.000000 0.000000 -1.000000
vn 0.000000 0.000000 -1.000000
vn 0.000000 0.000000 -1.000000
vn 1.000000 0.000000 0.000000
vn 1.000000 0.000000 0.000000
vn 1.000000 0.000000 0.000000
vn 1.000000 0.000000 0.000000
vn 0.000000 0.000000 1.000000
vn 0.000000 0.000000 1.000000
vn 0.000000 0.000000 1.000000
vn 0.000000 0.000000 1.000000
vn 0.000000 1.000000 0.000000
vn 0.000000 1.000000 0.000000
vn 0.000000 1.000000 0.000000
vn 0.000000 1.000000 0.000000
vn 0.000000 1.000000 0.000000
vn 0.000000 1.000000 0.000000
vn 0.000000 1.000000 0.000000
vn 0.000000 1.000000 0.000000
vn 0.000000 1.000000 -0.000001
vn 0.000000 1.000000 -0.000001
vn 0.000000 1.000000 -0.000001
vn 0.000000 1.000000 -0.000001
vn 0.000000 1.000000 0.000000
vn 0.000000 1.000000 0.000000
vn 0.000000 1.000000 0.000000
vn 0.000000 1.000000 0.000000
vn 0.000000 1.000000 0.000000
vn 0.000000 1.000000 0.000000
vn 0.000000 1.000000 0.000000
vn 0.000000 1.000000 0.000000
vn 0.000000 1.000000 0.000001
vn 0.000000 1.000000 0.000001
vn 0.000000 1.000000 0.000001
vn 0.000000 1.000000 0.000001
vn 0.000000 1.000000 0.000000
vn 0.000000 1.000000 0.000000
vn 0.000000 1.000000 0.000000
vn 0.000000 1.000000 0.000000
vn 1.000000 0.000000 0.000000
vn 1.000000 0.000000 0.000000
vn 1.000000 0.000000 0.000000
vn 1.000000 0.000000 0.000000
vn 1.000000 0.000000 0.000000
vn 1.000000 0.000000 0.000000
vn 1.000000 0.000000 0.000000
vn 0.000000 0.000000 1.000000
vn 0.000000 0.000000 1.000000
vn 0.000000 0.000000 1.000000
vn 0.000000 0.000000 1.000000
vn 0.000000 -1.000000 0.000000
vn 0.000000 -1.000000 0.000000
vn 0.000000 -1.000000 0.000000
vn 0.000000 -1.000000 0.000000
vn 0.000000 -1.000000 0.000000
vn 0.000000 -1.000000 0.000000
vn 0.000000 -1.000000 0.000000
vn -1.000000 0.000000 0.000000
vn -1.000000 0.000000 0.000000
vn -1.000000 0.000000 0.000000
vn -1.000000 0.000000 0.000000
vn -1.000000 0.000000 0.000000
vn -1.000000 0.000000 0.000000
vn -1.000000 0.000000 0.000000
vn 0.000000 -1.000000 0.000000
vn 0.000000 -1.000000 0.000000
vn 0.000000 -1.000000 0.000000
vn 0.000000 -1.000000 0.000000
vn 0.000000 -1.000000 0.000000
vn 0.000000 -1.000000 0.000000
vn 0.000000 -1.000000 0.000000
vn 0.000000 -1.000000 0.000000
vn 0.000000 -1.000000 0.000000
vn 0.000000 -1.000000 0.000000
vn 0.000000 -1.000000 0.000000
vn 0.000000 -1.000000 0.000000
vn 0.000000 -1.000000 0.000000
vn 0.000000 -1.000000 0.000000
vn 0.000000 -1.000000 0.000000
vn 0.000000 -1.000000 0.000000
vn 0.000000 -1.000000 0.000000
vn 0.000000 -1.000000 0.000000
vn 0.000000 -1.000000 0.000000
vn 0.000000 -1.000000 0.000000
vn 0.000000 -1.000000 0.000000
vn 0.000000 -1.000000 0.000000
vn 0.000000 -1.000000 0.000000
vn 0.000000 0.000000 -1.000000
vn 0.000000 0.000000 -1.000000
vn 0.000000 0.000000 -1.000000
vn 0.000000 0.000000 -1.000000
vn -1.000000 0.000000 0.000000
vn -1.000000 0.000000 0.000000
vn -1.000000 0.000000 0.000000
vn -1.000000 0.000000 0.000000
vn 0.000000 0.000000 1.000000
vn 0.000000 0.000000 1.000000
vn 0.000000 0.000000 1.000000
vn 0.000000 0.000000 1.000000
vn 0.000000 0.000000 1.000000
vn 0.000000 0.000000 1.000000
vn 0.000000 0.000000 1.000000
vn 0.000000 0.000000 1.000000
vn 1.000000 0.000000 0.000000
vn 1.000000 0.000000 0.000000
vn 1.000000 0.000000 0.000000
vn 1.000000 0.000000 0.000000
vn 0.000000 0.000000 -1.000000
vn 0.000000 0.000000 -1.000000
vn 0.000000 0.000000 -1.000000
vn 0.000000 0.000000 -1.000000
vn 0.000000 0.000000 -1.000000
vn 0.000000 0.000000 -1.000000
vn 0.000000 0.000000 -1.000000
vn 0.000000 0.000000 -1.000000
vn -1.000000 0.000000 0.000000
vn -1.000000 0.000000 0.000000
vn -1.000000 0.000000 0.000000
vn -1.000000 0.000000 0.000000
vn 0.000000 0.000000 1.000000
vn 0.000000 0.000000 1.000000
vn 0.000000 0.000000 1.000000
vn 0.000000 0.000000 1.000000
vn 0.000000 0.000000 1.000000
vn 0.000000 0.000000 1.000000
vn 0.000000 0.000000 1.000000
vn 0.000000 0.000000 1.000000
vn 1.000000 0.000000 0.000000
vn 1.000000 0.000000 0.000000
vn 1.000000 0.000000 0.000000
vn 1.000000 0.000000 0.000000
vn 0.000000 0.000000 -1.000000
vn 0.000000 0.000000 -1.000000
vn 0.000000 0.000000 -1.000000
vn 0.000000 0.000000 -1.000000
vn 0.000000 1.000000 -0.000001
vn 0.000000 1.000000 -0.000001
vn 0.000000 1.000000 -0.000001
vn 0.000000 1.000000 -0.000001
vn 0.000000 1.000000 0.000000
vn 0.000000 1.000000 0.000000
vn 0.000000 1.000000 0.000000
vn 0.000000 1.000000 0.000000
vn 0.000000 1.000000 0.000001
vn 0.000000 1.000000 0.000001
vn 0.000000 1.000000 0.000001
vn 0.000000 1.000000 0.000001
vn 0.000000 1.000000 0.000001
vn 0.000000 1.000000 0.000001
vn 0.000000 1.000000 0.000001
vn 0.000000 1.000000 0.000001
vn 0.000000 1.000000 0.000000
vn 0.000000 1.000000 0.000000
vn 0.000000 1.000000 0.000000
vn 0.000000 1.000000 0.000000
vn 0.000000 1.000000 -0.000001
vn 0.000000 1.000000 -0.000001
vn 0.000000 1.000000 -0.000001
vn 0.000000 1.000000 -0.000001
vn 0.000000 1.000000 0.000000
vn 0.000000 1.000000 0.000000
vn 0.000000 1.000000 0.000000
vn 0.000000 1.000000 0.000000
vn 1.000000 0.000000 0.000000
vn 1.000000 0.000000 0.000000
vn 1.000000 0.000000 0.000000
vn 1.000000 0.000000 0.000000
vn 1.000000 0.000000 0.000000
vn 1.000000 0.000000 0.000000
vn 1.000000 0.000000 0.000000
s 1
g pCube1
usemtl lambert2SG
f 1/1/1 2/2/2 3/4/3
f 3/4/3 2/2/2 4/3/4
s 2
f 3/4/5 4/3/6 8/9/7
f 8/9/7 4/3/6 13/8/8
f 13/8/8 4/3/6 11/7/9
f 11/7/9 4/3/6 15/6/10
f 4/3/6 7/5/11 15/6/10
s 3
f 3/10/12 8/11/13 1/16/14
f 1/16/14 8/11/13 35/15/15
f 8/11/13 6/12/16 35/15/15
f 6/12/16 10/13/17 35/15/15
f 10/13/17 38/14/18 35/15/15
s 4
f 8/9/19 13/8/20 6/17/21
f 13/8/20 14/18/22 6/17/21
f 6/17/21 14/18/22 10/19/23
s 5
f 10/19/24 14/18/25 38/24/26
f 38/24/26 14/18/25 37/23/27
f 14/18/25 12/20/28 37/23/27
f 12/20/28 16/21/29 37/23/27
f 16/21/29 9/22/30 37/23/27
s 6
f 24/26/31 25/27/32 23/25/33
f 25/27/32 26/28/34 23/25/33
f 23/25/33 26/28/34 28/30/35
f 26/28/34 27/29/36 28/30/35
s 7
f 16/21/37 15/6/38 9/22/39
f 9/22/39 15/6/38 5/31/40
f 15/6/38 7/5/41 5/31/40
s 8
f 12/20/42 14/18/43 17/33/44
f 17/33/44 14/18/43 18/32/45
s 9
f 14/18/46 13/8/47 18/32/48
f 18/32/48 13/8/47 19/34/49
s 10
f 13/8/50 11/7/51 19/34/52
f 19/34/52 11/7/51 20/35/53
s 11
f 11/7/54 15/6/55 20/35/56
f 20/35/56 15/6/55 21/36/57
s 12
f 15/6/58 16/21/59 21/36/60
f 21/36/60 16/21/59 22/37/61
s 13
f 16/21/62 12/20/63 22/37/64
f 22/37/64 12/20/63 17/33/65
s 14
f 29/38/66 30/39/67 23/25/68
f 23/25/68 30/39/67 24/26/69
s 15
f 30/39/70 31/40/71 24/26/72
f 24/26/72 31/40/71 25/27/73
s 16
f 31/40/74 32/41/75 25/27/76
f 25/27/76 32/41/75 26/28/77
s 17
f 32/41/78 33/42/79 26/28/80
f 26/28/80 33/42/79 27/29/81
s 18
f 33/42/82 34/43/83 27/29/84
f 27/29/84 34/43/83 28/30/85
s 19
f 34/43/86 29/38/87 28/30/88
f 28/30/88 29/38/87 23/25/89
s 20
f 17/33/90 18/32/91 29/38/92
f 29/38/92 18/32/91 30/39/93
s 21
f 18/32/94 19/34/95 30/39/96
f 30/39/96 19/34/95 31/40/97
s 22
f 20/35/98 32/41/99 19/34/100
f 19/34/100 32/41/99 31/40/101
s 23
f 20/35/102 21/36/103 32/41/104
f 32/41/104 21/36/103 33/42/105
s 24
f 21/36/106 22/37/107 33/42/108
f 33/42/108 22/37/107 34/43/109
s 25
f 17/33/110 29/38/111 22/37/112
f 22/37/112 29/38/111 34/43/113
s 26
f 35/44/114 36/45/115 1/1/116
f 1/1/116 36/45/115 2/2/117
s 27
f 36/46/118 37/47/119 2/52/120
f 37/47/119 9/48/121 2/52/120
f 9/48/121 5/49/122 2/52/120
f 5/49/122 7/50/123 2/52/120
f 7/50/123 4/51/124 2/52/120
s 28
f 39/53/125 41/54/126 40/56/127
f 40/56/127 41/54/126 42/55/128
s 29
f 41/54/129 46/57/130 42/55/131
f 46/57/130 51/58/132 42/55/131
f 51/58/132 49/59/133 42/55/131
f 49/59/133 53/60/134 42/55/131
f 53/60/134 45/61/135 42/55/131
s 30
f 41/62/136 39/63/137 46/68/138
f 39/63/137 35/64/139 46/68/138
f 46/68/138 35/64/139 44/67/140
f 44/67/140 35/64/139 48/66/141
f 35/64/139 38/65/142 48/66/141
s 31
f 48/70/143 52/71/144 44/69/145
f 52/71/144 51/58/146 44/69/145
f 44/69/145 51/58/146 46/57/147
s 32
f 48/70/148 38/72/149 52/71/150
f 38/72/149 37/73/151 52/71/150
f 52/71/150 37/73/151 50/76/152
f 50/76/152 37/73/151 54/75/153
f 37/73/151 47/74/154 54/75/153
s 33
f 66/78/155 65/79/156 61/77/157
f 65/79/156 64/80/158 61/77/157
f 61/77/157 64/80/158 62/82/159
f 64/80/158 63/81/160 62/82/159
s 34
f 54/75/161 47/74/162 53/60/163
f 47/74/162 43/83/164 53/60/163
f 43/83/164 45/61/165 53/60/163
s 35
f 50/76/166 55/84/167 52/71/168
f 52/71/168 55/84/167 56/85/169
s 36
f 52/71/170 56/85/171 51/58/172
f 51/58/172 56/85/171 57/86/173
s 37
f 51/58/174 57/86/175 49/59/176
f 49/59/176 57/86/175 58/87/177
s 38
f 49/59/178 58/87/179 53/60/180
f 53/60/180 58/87/179 59/88/181
s 39
f 53/60/182 59/88/183 54/75/184
f 54/75/184 59/88/183 60/89/185
s 40
f 54/75/186 60/89/187 50/76/188
f 50/76/188 60/89/187 55/84/189
s 41
f 67/90/190 61/77/191 68/91/192
f 68/91/192 61/77/191 62/82/193
s 42
f 68/91/194 62/82/195 69/92/196
f 69/92/196 62/82/195 63/81/197
s 43
f 69/92/198 63/81/199 70/93/200
f 70/93/200 63/81/199 64/80/201
s 44
f 70/93/202 64/80/203 71/94/204
f 71/94/204 64/80/203 65/79/205
s 45
f 71/94/206 65/79/207 72/95/208
f 72/95/208 65/79/207 66/78/209
s 46
f 72/95/210 66/78/211 67/90/212
f 67/90/212 66/78/211 61/77/213
s 47
f 55/84/214 67/90/215 56/85/216
f 56/85/216 67/90/215 68/91/217
s 48
f 56/85/218 68/91/219 57/86/220
f 57/86/220 68/91/219 69/92/221
s 49
f 69/92/222 70/93/223 57/86/224
f 57/86/224 70/93/223 58/87/225
s 50
f 58/87/226 70/93/227 59/88/228
f 59/88/228 70/93/227 71/94/229
s 51
f 59/88/230 71/94/231 60/89/232
f 60/89/232 71/94/231 72/95/233
s 52
f 72/95/234 67/90/235 60/89/236
f 60/89/236 67/90/235 55/84/237
s 53
f 35/96/238 39/53/239 36/97/240
f 36/97/240 39/53/239 40/56/241
s 54
f 36/98/242 40/99/243 37/104/244
f 37/104/244 40/99/243 47/103/245
f 47/103/245 40/99/243 43/102/246
f 43/102/246 40/99/243 45/101/247
f 40/99/243 42/100/248 45/101/247
