# This file uses centimeters as units for non-parametric coordinates.

mtllib Ldesk.mtl
g default
v 2.559801 -0.031554 -0.067949
v 2.559804 -0.031554 2.858825
v 2.559801 0.143918 -0.067949
v 2.559804 0.143917 2.858825
v 3.677153 0.143918 -0.067951
v 3.677155 0.143917 2.858824
v 3.677153 -0.031554 -0.067951
v 3.677155 -0.031554 2.858824
v 2.954559 0.195300 0.569619
v 2.954557 0.195301 2.193258
v 2.954559 2.060820 0.569619
v 2.954557 2.060820 2.193258
v 3.314882 2.060820 0.569620
v 3.314882 2.060820 2.193258
v 3.314882 0.195300 0.569620
v 3.314882 0.195300 2.193258
v -0.948358 -0.031554 -4.698193
v -3.875134 -0.031554 -4.698193
v -0.948358 0.143918 -4.698193
v -3.875134 0.143917 -4.698193
v -0.948357 0.143918 -3.580842
v -3.875134 0.143917 -3.580839
v -0.948357 -0.031554 -3.580842
v -3.875134 -0.031554 -3.580839
v -4.461892 2.092507 2.662127
v 4.467813 2.092505 2.662127
v -4.461892 2.332558 2.662127
v 4.467813 2.332556 2.662127
v -4.461892 2.332558 -4.833458
v -0.006878 2.332556 -1.009094
v -4.461892 2.092507 -4.833460
v -0.006878 2.092505 -1.009096
v 4.467813 2.332556 -1.006677
v -4.461892 2.332558 -1.006677
v -4.461892 2.092507 -1.006678
v 4.467813 2.092505 -1.006679
v -0.012217 2.332558 -1.006677
v -0.012217 2.332558 2.662127
v -0.012217 2.092507 2.662127
v -0.012217 2.092507 -1.006678
v -0.012217 2.092507 -4.833460
v -0.012217 2.332558 -4.833458
v -2.408127 0.091282 1.372710
v -2.152092 0.091282 1.372711
v -2.227083 0.091282 1.553754
v -2.408127 0.091282 1.628745
v -2.589171 0.091282 1.553754
v -2.664164 0.091282 1.372710
v -2.589171 0.091282 1.191666
v -2.408127 0.091282 1.116675
v -2.227083 0.091282 1.191666
v -2.152092 2.083376 1.372711
v -2.227083 2.083376 1.553754
v -2.408127 2.083376 1.628745
v -2.589171 2.083376 1.553754
v -2.664164 2.083376 1.372710
v -2.589171 2.083376 1.191666
v -2.408127 2.083376 1.116675
v -2.227083 2.083376 1.191666
v -2.408127 2.083376 1.372710
v -1.585928 0.195301 -4.303436
v -3.209569 0.195301 -4.303438
v -1.585928 2.060820 -4.303436
v -3.209569 2.060820 -4.303438
v -1.585929 2.060820 -3.943113
v -3.209569 2.060820 -3.943115
v -1.585929 0.195300 -3.943113
v -3.209569 0.195300 -3.943115
v -2.408127 -0.037504 1.372710
v -1.414778 -0.037504 1.372710
v -1.705727 -0.037504 2.075124
v -2.408127 -0.037504 2.366073
v -3.110540 -0.037504 2.075124
v -3.401491 -0.037504 1.372710
v -3.110540 -0.037504 0.670297
v -2.408127 -0.037504 0.379348
v -1.705727 -0.037504 0.670297
v -1.414778 0.081243 1.372710
v -1.705727 0.081243 2.075124
v -2.408127 0.081243 2.366073
v -3.110540 0.081243 2.075124
v -3.401491 0.081243 1.372710
v -3.110540 0.081243 0.670297
v -2.408127 0.081243 0.379348
v -1.705727 0.081243 0.670297
v -2.408127 0.081243 1.372710
vt 0.967856 0.395676
vt 0.967856 0.226513
vt 0.977998 0.395676
vt 0.977998 0.226513
vt 0.891004 0.521594
vt 0.891004 0.690757
vt 0.880862 0.521594
vt 0.880862 0.690757
vt 0.185997 0.521594
vt 0.279840 0.521594
vt 0.185997 0.629418
vt 0.279840 0.629418
vt 0.179861 0.629418
vt 0.086017 0.629418
vt 0.179861 0.521594
vt 0.086017 0.521594
vt 0.458242 0.704996
vt 0.458242 0.640415
vt 0.468384 0.704996
vt 0.468384 0.640415
vt 0.475782 0.704996
vt 0.475782 0.640415
vt 0.485924 0.704996
vt 0.485924 0.640415
vt 0.918426 0.213531
vt 0.918426 0.434713
vt 0.904552 0.213531
vt 0.904552 0.434713
vt 0.904552 0.001480
vt 0.918426 0.001480
vt 0.998008 0.226513
vt 0.998008 0.438565
vt 0.984133 0.226513
vt 0.984133 0.438565
vt 0.982742 0.001480
vt 0.982742 0.222522
vt 0.968867 0.001480
vt 0.968867 0.222522
vt 0.619558 0.636734
vt 0.609094 0.636734
vt 0.619558 0.521594
vt 0.609094 0.521594
vt 0.630022 0.521594
vt 0.630022 0.636734
vt 0.575896 0.636734
vt 0.565432 0.636734
vt 0.575896 0.521594
vt 0.565432 0.521594
vt 0.554967 0.636734
vt 0.554967 0.521594
vt 0.204878 0.633409
vt 0.225704 0.633409
vt 0.204878 0.741233
vt 0.225704 0.741233
vt 0.232163 0.633409
vt 0.252989 0.633409
vt 0.232163 0.741233
vt 0.252989 0.741233
vt 0.375453 0.681013
vt 0.375453 0.721612
vt 0.368590 0.681013
vt 0.368590 0.721612
vt 0.368590 0.640415
vt 0.375453 0.640415
vt 0.389096 0.640415
vt 0.389096 0.681013
vt 0.382233 0.640415
vt 0.382233 0.681013
vt 0.389096 0.721612
vt 0.382233 0.721612
vt 0.897140 0.690757
vt 0.897140 0.521594
vt 0.961721 0.690757
vt 0.961721 0.521594
vt 0.874727 0.521594
vt 0.874727 0.690757
vt 0.810146 0.521594
vt 0.810146 0.690757
vt 0.259449 0.727253
vt 0.259449 0.633409
vt 0.280275 0.727253
vt 0.280275 0.633409
vt 0.307560 0.640415
vt 0.307560 0.734259
vt 0.286734 0.640415
vt 0.286734 0.734259
vt 0.787733 0.521594
vt 0.787733 0.690757
vt 0.723152 0.521594
vt 0.723152 0.690757
vt 0.700739 0.521594
vt 0.700739 0.690757
vt 0.636158 0.521594
vt 0.636158 0.690757
vt 0.214043 0.260418
vt 0.214043 0.517602
vt 0.001992 0.260418
vt 0.435225 0.517602
vt 0.001992 0.517602
vt 0.001992 0.001480
vt 0.435225 0.260418
vt 0.214043 0.001480
vt 0.897322 0.260418
vt 0.897322 0.517602
vt 0.685271 0.260418
vt 0.685271 0.517602
vt 0.685271 0.001480
vt 0.464089 0.260418
vt 0.685131 0.260110
vt 0.897322 0.001480
vt 0.464089 0.517602
vt 0.508121 0.640725
vt 0.518585 0.645060
vt 0.508121 0.655524
vt 0.522920 0.655524
vt 0.497657 0.645060
vt 0.518585 0.665988
vt 0.493323 0.655524
vt 0.508121 0.670322
vt 0.497657 0.665988
vt 0.545151 0.655524
vt 0.534687 0.645060
vt 0.545151 0.640725
vt 0.530353 0.655524
vt 0.555615 0.645060
vt 0.534687 0.665988
vt 0.559950 0.655524
vt 0.545151 0.670322
vt 0.555615 0.665988
vt 0.334845 0.640415
vt 0.334846 0.734259
vt 0.314019 0.640415
vt 0.314019 0.734259
vt 0.362131 0.640415
vt 0.362131 0.734259
vt 0.341305 0.640415
vt 0.341305 0.734259
vt 0.521769 0.579009
vt 0.504952 0.619607
vt 0.464355 0.579009
vt 0.464355 0.636424
vt 0.504952 0.538410
vt 0.423756 0.619607
vt 0.464355 0.521594
vt 0.406940 0.579009
vt 0.423756 0.538410
vt 0.343391 0.579009
vt 0.383988 0.538410
vt 0.400805 0.579009
vt 0.343391 0.521594
vt 0.383988 0.619607
vt 0.302792 0.538410
vt 0.343391 0.636423
vt 0.285976 0.579009
vt 0.302792 0.619607
vt 0.433303 0.640415
vt 0.433303 0.704996
vt 0.423161 0.640415
vt 0.423161 0.704996
vt 0.440701 0.704996
vt 0.440701 0.640415
vt 0.450843 0.704996
vt 0.450843 0.640415
vt 0.079882 0.629418
vt 0.059056 0.629418
vt 0.079882 0.521594
vt 0.059056 0.521594
vt 0.032095 0.521594
vt 0.052921 0.521594
vt 0.032095 0.629418
vt 0.052921 0.629418
vt 0.804010 0.521594
vt 0.804010 0.690757
vt 0.793868 0.521594
vt 0.793868 0.690757
vt 0.717016 0.521594
vt 0.717016 0.690757
vt 0.706874 0.521594
vt 0.706874 0.690757
vt 0.939865 0.001480
vt 0.939865 0.260110
vt 0.925990 0.001480
vt 0.925990 0.260110
vt 0.456525 0.260418
vt 0.456525 0.517602
vt 0.442650 0.260418
vt 0.442650 0.517602
vt 0.442650 0.001480
vt 0.456525 0.001480
vt 0.961303 0.001480
vt 0.961303 0.258664
vt 0.947429 0.001480
vt 0.947429 0.258664
vt 0.602959 0.636734
vt 0.592495 0.636734
vt 0.602959 0.521594
vt 0.592495 0.521594
vt 0.582031 0.636734
vt 0.582031 0.521594
vt 0.527904 0.521594
vt 0.538368 0.521594
vt 0.527904 0.636734
vt 0.538368 0.636734
vt 0.548832 0.521594
vt 0.548832 0.636734
vt 0.095836 0.741233
vt 0.001992 0.741233
vt 0.095836 0.633409
vt 0.001992 0.633409
vt 0.197376 0.741234
vt 0.103532 0.741234
vt 0.197376 0.633410
vt 0.103532 0.633409
vt 0.402739 0.640415
vt 0.402739 0.681013
vt 0.395875 0.640415
vt 0.395875 0.681013
vt 0.402739 0.721611
vt 0.395875 0.721611
vt 0.409518 0.721611
vt 0.409518 0.681013
vt 0.416381 0.721611
vt 0.416381 0.681013
vt 0.409518 0.640415
vt 0.416381 0.640415
vn -1.000000 0.000001 0.000001
vn -1.000000 0.000000 0.000001
vn -1.000000 0.000001 0.000001
vn -1.000000 0.000000 0.000001
vn 0.000000 1.000000 0.000000
vn 0.000000 1.000000 0.000000
vn 0.000000 1.000000 0.000000
vn 0.000000 1.000000 0.000000
vn 1.000000 0.000000 -0.000001
vn 1.000000 0.000000 -0.000001
vn 1.000000 0.000000 -0.000001
vn 1.000000 0.000000 -0.000001
vn 0.000000 -1.000000 -0.000000
vn 0.000000 -1.000000 0.000000
vn 0.000000 -1.000000 -0.000000
vn 0.000000 -1.000000 0.000000
vn -0.000002 -0.000003 -1.000000
vn -0.000002 -0.000001 -1.000000
vn -0.000002 -0.000003 -1.000000
vn -0.000002 -0.000001 -1.000000
vn 0.000001 0.000000 1.000000
vn 0.000000 0.000000 1.000000
vn 0.000001 0.000000 1.000000
vn 0.000000 0.000000 1.000000
vn -1.000000 0.000000 -0.000001
vn -1.000000 0.000000 -0.000001
vn -1.000000 0.000000 -0.000001
vn -1.000000 0.000000 -0.000001
vn 0.000000 1.000000 0.000000
vn 0.000000 1.000000 0.000000
vn 0.000000 1.000000 0.000000
vn 0.000000 1.000000 0.000000
vn 1.000000 0.000000 0.000000
vn 1.000000 0.000000 0.000000
vn 1.000000 0.000000 0.000000
vn 1.000000 0.000000 0.000000
vn -0.000000 -1.000000 -0.000000
vn -0.000001 -1.000000 0.000000
vn -0.000000 -1.000000 -0.000000
vn -0.000001 -1.000000 0.000000
vn 0.000001 0.000000 -1.000000
vn 0.000001 0.000000 -1.000000
vn 0.000001 0.000000 -1.000000
vn 0.000001 0.000000 -1.000000
vn 0.000000 0.000000 1.000000
vn 0.000000 0.000000 1.000000
vn 0.000000 0.000000 1.000000
vn 0.000000 0.000000 1.000000
vn 0.000000 0.000000 -1.000000
vn 0.000000 0.000000 -1.000000
vn 0.000000 0.000000 -1.000000
vn 0.000000 0.000000 -1.000000
vn -0.000000 1.000000 0.000000
vn -0.000000 1.000000 0.000000
vn -0.000000 1.000000 0.000000
vn -0.000000 1.000000 0.000000
vn 0.000001 0.000000 1.000000
vn 0.000001 0.000000 1.000000
vn 0.000001 0.000000 1.000000
vn 0.000001 0.000000 1.000000
vn 0.000000 -1.000000 -0.000000
vn 0.000000 -1.000000 -0.000000
vn 0.000000 -1.000000 -0.000000
vn 0.000000 -1.000000 0.000000
vn 1.000000 0.000000 -0.000001
vn 1.000000 0.000000 -0.000001
vn 1.000000 0.000000 -0.000001
vn 1.000000 0.000000 -0.000001
vn -1.000000 0.000000 0.000000
vn -1.000000 0.000000 0.000000
vn -1.000000 0.000000 0.000000
vn -1.000000 0.000000 0.000000
vn -1.000000 -0.000000 0.000000
vn -1.000000 0.000003 0.000000
vn -1.000000 -0.000000 0.000000
vn -1.000000 0.000003 0.000000
vn -1.000000 0.000000 0.000000
vn -1.000000 0.000000 0.000000
vn -1.000000 0.000000 0.000000
vn -1.000000 0.000000 0.000000
vn 1.000000 -0.000001 0.000000
vn 1.000000 -0.000000 0.000000
vn 1.000000 -0.000001 0.000000
vn 1.000000 0.000000 0.000000
vn 0.000540 0.000005 -1.000000
vn 0.000540 0.000010 -1.000000
vn 0.000540 0.000006 -1.000000
vn 0.000540 0.000010 -1.000000
vn 0.000000 1.000000 0.000000
vn 0.000000 1.000000 0.000000
vn 0.000000 1.000000 0.000000
vn 0.000000 1.000000 0.000000
vn 0.000000 1.000000 0.000000
vn 0.000000 1.000000 0.000000
vn 0.000000 1.000000 0.000000
vn 0.000000 1.000000 0.000000
vn 0.000000 0.000000 1.000000
vn 0.000000 0.000000 1.000000
vn 0.000000 0.000000 1.000000
vn 0.000000 0.000000 1.000000
vn 0.000000 0.000000 1.000000
vn -0.000000 0.000000 1.000000
vn -0.000000 0.000000 1.000000
vn -0.000000 0.000000 1.000000
vn -0.000000 -1.000000 0.000000
vn -0.000000 -1.000000 0.000000
vn -0.000000 -1.000000 0.000000
vn -0.000000 -1.000000 0.000000
vn -0.000000 -1.000000 0.000000
vn -0.000000 -1.000000 0.000000
vn -0.000000 -1.000000 0.000000
vn -0.000000 -1.000000 0.000000
vn -0.000000 -1.000000 0.000000
vn -0.000000 -1.000000 0.000000
vn -0.000000 -1.000000 0.000000
vn -0.000000 -1.000000 0.000000
vn -0.000295 -1.000000 0.000000
vn -0.000171 -1.000000 0.000266
vn -0.000247 -1.000000 0.000104
vn -0.000000 -1.000000 0.000635
vn 0.000000 0.000010 -1.000000
vn 0.000000 0.000010 -1.000000
vn 0.000000 0.000010 -1.000000
vn 0.000000 0.000010 -1.000000
vn 0.999999 0.000000 -0.001396
vn 0.999999 0.000000 -0.001396
vn 0.999999 0.000000 -0.001396
vn 0.999999 0.000000 -0.001396
vn 0.000000 1.000000 0.000000
vn 0.000000 1.000000 0.000000
vn 0.000000 1.000000 0.000000
vn 0.000000 1.000000 0.000000
vn 0.000000 -1.000000 0.000000
vn 0.000000 -1.000000 0.000000
vn 0.000000 -1.000000 0.000000
vn 0.923878 -0.000000 0.382687
vn 0.923878 -0.000000 0.382687
vn 0.923879 -0.000000 0.382686
vn 0.923879 0.000000 0.382686
vn 0.000000 1.000000 0.000000
vn 0.000000 1.000000 0.000000
vn 0.000000 1.000000 0.000000
vn 0.000000 -1.000000 0.000000
vn 0.000000 -1.000000 0.000000
vn 0.000000 -1.000000 0.000000
vn 0.382685 0.000000 0.923879
vn 0.382685 0.000000 0.923879
vn 0.382685 0.000000 0.923879
vn 0.382685 0.000000 0.923879
vn 0.000000 1.000000 0.000000
vn 0.000000 1.000000 0.000000
vn 0.000000 1.000000 0.000000
vn 0.000000 -1.000000 0.000000
vn 0.000000 -1.000000 0.000000
vn 0.000000 -1.000000 0.000000
vn -0.382684 0.000000 0.923879
vn -0.382684 0.000000 0.923880
vn -0.382684 0.000000 0.923880
vn -0.382684 0.000000 0.923879
vn 0.000000 1.000000 0.000000
vn 0.000000 1.000000 0.000000
vn 0.000000 1.000000 0.000000
vn 0.000000 -1.000000 0.000000
vn 0.000000 -1.000000 0.000000
vn 0.000000 -1.000000 0.000000
vn -0.923876 0.000000 0.382693
vn -0.923876 0.000000 0.382693
vn -0.923876 0.000000 0.382693
vn -0.923876 0.000000 0.382693
vn 0.000000 1.000000 -0.000002
vn 0.000000 1.000000 -0.000002
vn 0.000000 1.000000 -0.000002
vn 0.000000 -1.000000 0.000000
vn 0.000000 -1.000000 0.000000
vn 0.000000 -1.000000 0.000000
vn -0.923876 0.000000 -0.382693
vn -0.923876 0.000000 -0.382693
vn -0.923876 0.000000 -0.382693
vn -0.923876 0.000000 -0.382693
vn 0.000000 1.000000 0.000002
vn 0.000000 1.000000 0.000002
vn 0.000000 1.000000 0.000002
vn 0.000000 -1.000000 0.000000
vn 0.000000 -1.000000 0.000000
vn 0.000000 -1.000000 0.000000
vn -0.382684 0.000000 -0.923879
vn -0.382684 0.000000 -0.923880
vn -0.382683 0.000000 -0.923880
vn -0.382683 0.000000 -0.923880
vn 0.000000 1.000000 0.000000
vn 0.000000 1.000000 0.000000
vn 0.000000 1.000000 0.000000
vn 0.000000 -1.000000 0.000000
vn 0.000000 -1.000000 0.000000
vn 0.000000 -1.000000 0.000000
vn 0.382685 0.000000 -0.923879
vn 0.382685 0.000000 -0.923879
vn 0.382685 0.000000 -0.923879
vn 0.382685 0.000000 -0.923879
vn 0.000000 1.000000 0.000000
vn 0.000000 1.000000 0.000000
vn 0.000000 1.000000 0.000000
vn 0.000000 -1.000000 -0.000000
vn 0.000000 -1.000000 -0.000000
vn 0.000000 -1.000000 -0.000000
vn 0.923878 0.000000 -0.382687
vn 0.923878 -0.000000 -0.382686
vn 0.923879 -0.000000 -0.382685
vn 0.923879 -0.000000 -0.382685
vn 0.000000 1.000000 0.000000
vn 0.000000 1.000000 0.000000
vn 0.000000 1.000000 0.000000
vn 0.000001 0.000000 -1.000000
vn 0.000001 0.000000 -1.000000
vn 0.000001 0.000000 -1.000000
vn 0.000001 0.000000 -1.000000
vn 0.000000 1.000000 0.000000
vn 0.000000 1.000000 0.000000
vn 0.000000 1.000000 0.000000
vn 0.000000 1.000000 0.000000
vn -0.000001 0.000000 1.000000
vn -0.000001 0.000000 1.000000
vn -0.000001 0.000000 1.000000
vn -0.000001 0.000000 1.000000
vn 0.000000 -1.000000 -0.000000
vn -0.000000 -1.000000 -0.000001
vn 0.000000 -1.000000 -0.000000
vn -0.000000 -1.000000 -0.000001
vn 1.000000 0.000000 0.000004
vn 1.000000 0.000000 0.000004
vn 1.000000 0.000000 0.000004
vn 1.000000 0.000000 0.000004
vn -1.000000 0.000000 0.000000
vn -1.000000 0.000000 0.000000
vn -1.000000 0.000000 0.000000
vn -1.000000 0.000000 0.000000
vn -0.000000 -1.000000 -0.000000
vn -0.000000 -1.000000 -0.000000
vn -0.000000 -1.000000 -0.000000
vn 0.923880 0.000002 0.382683
vn 0.923879 0.000000 0.382684
vn 0.923880 0.000002 0.382683
vn 0.923879 0.000000 0.382684
vn 0.000000 1.000000 0.000000
vn 0.000000 1.000000 0.000000
vn 0.000000 1.000000 0.000000
vn -0.000000 -1.000000 0.000000
vn -0.000000 -1.000000 0.000000
vn -0.000000 -1.000000 0.000000
vn 0.382690 0.000000 0.923877
vn 0.382690 0.000000 0.923877
vn 0.382690 0.000000 0.923877
vn 0.382690 0.000000 0.923877
vn 0.000000 1.000000 0.000000
vn 0.000000 1.000000 0.000000
vn 0.000000 1.000000 0.000000
vn 0.000000 -1.000000 0.000000
vn 0.000000 -1.000000 0.000000
vn 0.000000 -1.000000 0.000000
vn -0.382684 0.000000 0.923879
vn -0.382683 0.000000 0.923880
vn -0.382684 0.000000 0.923880
vn -0.382683 0.000000 0.923880
vn 0.000000 1.000000 0.000000
vn 0.000000 1.000000 0.000000
vn 0.000000 1.000000 0.000000
vn 0.000000 -1.000000 -0.000000
vn 0.000000 -1.000000 -0.000000
vn 0.000000 -1.000000 -0.000000
vn -0.923879 0.000000 0.382686
vn -0.923879 0.000000 0.382685
vn -0.923879 0.000000 0.382685
vn -0.923879 0.000000 0.382686
vn 0.000000 1.000000 0.000000
vn 0.000000 1.000000 0.000000
vn 0.000000 1.000000 0.000000
vn 0.000000 -1.000000 0.000000
vn 0.000000 -1.000000 0.000000
vn 0.000000 -1.000000 0.000000
vn -0.923879 0.000000 -0.382686
vn -0.923879 0.000000 -0.382686
vn -0.923879 0.000000 -0.382686
vn -0.923879 0.000000 -0.382686
vn 0.000000 1.000000 0.000000
vn 0.000000 1.000000 0.000000
vn 0.000000 1.000000 0.000000
vn 0.000000 -1.000000 0.000000
vn 0.000000 -1.000000 0.000000
vn 0.000000 -1.000000 0.000000
vn -0.382683 0.000000 -0.923880
vn -0.382683 0.000000 -0.923880
vn -0.382683 0.000000 -0.923880
vn -0.382683 0.000000 -0.923880
vn 0.000000 1.000000 0.000000
vn 0.000000 1.000000 0.000000
vn 0.000000 1.000000 0.000000
vn -0.000000 -1.000000 0.000000
vn -0.000000 -1.000000 0.000000
vn -0.000000 -1.000000 0.000000
vn 0.382690 0.000000 -0.923877
vn 0.382690 0.000000 -0.923877
vn 0.382690 0.000000 -0.923877
vn 0.382690 0.000000 -0.923877
vn 0.000000 1.000000 0.000000
vn 0.000000 1.000000 0.000000
vn 0.000000 1.000000 0.000000
vn -0.000000 -1.000000 0.000000
vn -0.000000 -1.000000 0.000000
vn -0.000000 -1.000000 0.000000
vn 0.923880 0.000000 -0.382683
vn 0.923880 0.000002 -0.382683
vn 0.923880 0.000000 -0.382683
vn 0.923880 0.000002 -0.382683
vn 0.000000 1.000000 -0.000000
vn 0.000000 1.000000 -0.000000
vn 0.000000 1.000000 -0.000000
s 1
g L_desk:name7
usemtl lambert2SG
f 1/1/1 2/2/2 3/3/3
f 3/3/3 2/2/2 4/4/4
s 2
f 3/71/5 4/72/6 5/73/7
f 5/73/7 4/72/6 6/74/8
s 3
f 5/5/9 6/6/10 7/7/11
f 7/7/11 6/6/10 8/8/12
s 4
f 7/75/13 8/76/14 1/77/15
f 1/77/15 8/76/14 2/78/16
s 5
f 7/156/17 1/157/18 5/158/19
f 5/158/19 1/157/18 3/159/20
s 6
f 2/160/21 8/161/22 4/162/23
f 4/162/23 8/161/22 6/163/24
s 7
f 9/9/25 10/10/26 11/11/27
f 11/11/27 10/10/26 12/12/28
s 8
f 11/79/29 12/80/30 13/81/31
f 13/81/31 12/80/30 14/82/32
s 9
f 13/13/33 14/14/34 15/15/35
f 15/15/35 14/14/34 16/16/36
s 10
f 15/83/37 16/84/38 9/85/39
f 9/85/39 16/84/38 10/86/40
s 11
f 15/164/41 9/165/42 13/166/43
f 13/166/43 9/165/42 11/167/44
s 12
f 10/168/45 16/169/46 12/170/47
f 12/170/47 16/169/46 14/171/48
s 13
f 17/172/49 18/173/50 19/174/51
f 19/174/51 18/173/50 20/175/52
s 14
f 19/87/53 20/88/54 21/89/55
f 21/89/55 20/88/54 22/90/56
s 15
f 21/176/57 22/177/58 23/178/59
f 23/178/59 22/177/58 24/179/60
s 16
f 23/91/61 24/92/62 17/93/63
f 17/93/63 24/92/62 18/94/64
s 17
f 23/17/65 17/18/66 21/19/67
f 21/19/67 17/18/66 19/20/68
s 18
f 18/21/69 24/22/70 20/23/71
f 20/23/71 24/22/70 22/24/72
s 19
f 34/25/73 29/26/74 35/27/75
f 35/27/75 29/26/74 31/28/76
s 20
f 35/27/77 25/29/78 34/25/79
f 34/25/79 25/29/78 27/30/80
s 21
f 33/31/81 28/32/82 36/33/83
f 36/33/83 28/32/82 26/34/84
s 22
f 36/180/85 32/181/86 33/182/87
f 33/182/87 32/181/86 30/183/88
s 23
f 37/95/89 34/96/90 38/97/91
f 38/97/91 34/96/90 27/99/92
s 24
f 38/97/93 28/100/94 37/95/95
f 37/95/95 28/100/94 33/102/96
s 25
f 38/184/97 27/185/98 39/186/99
f 39/186/99 27/185/98 25/187/100
s 26
f 39/186/101 26/188/102 38/184/103
f 38/184/103 26/188/102 28/189/104
s 27
f 39/103/105 25/104/106 40/105/107
f 40/105/107 25/104/106 35/106/108
s 28
f 40/105/109 36/107/110 39/103/111
f 39/103/111 36/107/110 26/110/112
s 29
f 40/105/113 35/106/114 41/108/115
f 41/108/115 35/106/114 31/111/116
s 30
f 41/108/117 32/109/118 40/105/119
f 40/105/119 32/109/118 36/107/120
s 31
f 41/190/121 31/191/122 42/192/123
f 42/192/123 31/191/122 29/193/124
s 32
f 42/35/125 30/36/126 41/37/127
f 41/37/127 30/36/126 32/38/128
s 33
f 42/101/129 29/98/130 37/95/131
f 37/95/131 29/98/130 34/96/132
s off
f 44/112/133 45/113/134 43/114/135
s 34
f 52/39/136 53/40/137 44/41/138
f 44/41/138 53/40/137 45/42/139
s off
f 60/121/140 53/122/141 52/123/142
f 45/113/143 46/115/144 43/114/145
s 35
f 53/194/146 54/195/147 45/196/148
f 45/196/148 54/195/147 46/197/149
s off
f 60/121/150 54/124/151 53/122/152
f 46/115/153 47/117/154 43/114/155
s 36
f 54/195/156 55/198/157 46/197/158
f 46/197/158 55/198/157 47/199/159
s off
f 60/121/160 55/126/161 54/124/162
f 47/117/163 48/119/164 43/114/165
s 37
f 55/45/166 56/46/167 47/47/168
f 47/47/168 56/46/167 48/48/169
s off
f 60/121/170 56/128/171 55/126/172
f 48/119/173 49/120/174 43/114/175
s 38
f 56/46/176 57/49/177 48/48/178
f 48/48/178 57/49/177 49/50/179
s off
f 60/121/180 57/129/181 56/128/182
f 49/120/183 50/118/184 43/114/185
s 39
f 57/200/186 58/201/187 49/202/188
f 49/202/188 58/201/187 50/203/189
s off
f 60/121/190 58/127/191 57/129/192
f 50/118/193 51/116/194 43/114/195
s 40
f 58/201/196 59/204/197 50/203/198
f 50/203/198 59/204/197 51/205/199
s off
f 60/121/200 59/125/201 58/127/202
f 51/116/203 44/112/204 43/114/205
s 41
f 59/44/206 52/39/207 51/43/208
f 51/43/208 52/39/207 44/41/209
s off
f 60/121/210 52/123/211 59/125/212
s 42
f 61/206/213 62/207/214 63/208/215
f 63/208/215 62/207/214 64/209/216
s 43
f 63/130/217 64/131/218 65/132/219
f 65/132/219 64/131/218 66/133/220
s 44
f 65/210/221 66/211/222 67/212/223
f 67/212/223 66/211/222 68/213/224
s 45
f 67/134/225 68/135/226 61/136/227
f 61/136/227 68/135/226 62/137/228
s 46
f 67/51/229 61/52/230 65/53/231
f 65/53/231 61/52/230 63/54/232
s 47
f 62/55/233 68/56/234 64/57/235
f 64/57/235 68/56/234 66/58/236
s off
f 70/138/237 71/139/238 69/140/239
s 48
f 78/59/240 79/60/241 70/61/242
f 70/61/242 79/60/241 71/62/243
s off
f 86/147/244 79/148/245 78/149/246
f 71/139/247 72/141/248 69/140/249
s 49
f 79/214/250 80/215/251 71/216/252
f 71/216/252 80/215/251 72/217/253
s off
f 86/147/254 80/150/255 79/148/256
f 72/141/257 73/143/258 69/140/259
s 50
f 80/215/260 81/218/261 72/217/262
f 72/217/262 81/218/261 73/219/263
s off
f 86/147/264 81/152/265 80/150/266
f 73/143/267 74/145/268 69/140/269
s 51
f 81/65/270 82/66/271 73/67/272
f 73/67/272 82/66/271 74/68/273
s off
f 86/147/274 82/154/275 81/152/276
f 74/145/277 75/146/278 69/140/279
s 52
f 82/66/280 83/69/281 74/68/282
f 74/68/282 83/69/281 75/70/283
s off
f 86/147/284 83/155/285 82/154/286
f 75/146/287 76/144/288 69/140/289
s 53
f 83/220/290 84/221/291 75/222/292
f 75/222/292 84/221/291 76/223/293
s off
f 86/147/294 84/153/295 83/155/296
f 76/144/297 77/142/298 69/140/299
s 54
f 84/221/300 85/224/301 76/223/302
f 76/223/302 85/224/301 77/225/303
s off
f 86/147/304 85/151/305 84/153/306
f 77/142/307 70/138/308 69/140/309
s 55
f 85/64/310 78/59/311 77/63/312
f 77/63/312 78/59/311 70/61/313
s off
f 86/147/314 78/149/315 85/151/316
