# This file uses centimeters as units for non-parametric coordinates.

mtllib ryokunoukin_left.mtl
g default
v 0.314001 0.030919 -0.015523
v 0.252163 0.030919 -0.015523
v 0.314001 -0.030919 -0.015523
v 0.252163 -0.030919 -0.015523
v 0.314001 -0.030919 -0.077361
v 0.252163 -0.030919 -0.077361
v 0.314001 0.030919 -0.077361
v 0.252163 0.030919 -0.077361
v 0.314001 0.030919 0.258910
v 0.252163 0.030919 0.258910
v 0.252163 -0.030919 0.258910
v 0.314001 -0.030919 0.258910
v 0.082066 0.030919 -0.077361
v 0.082066 0.030919 -0.015523
v 0.082066 -0.030919 -0.077361
v 0.082066 -0.030919 -0.015523
vt 0.484233 0.436931
vt 0.515767 0.436931
vt 0.484233 0.468466
vt 0.515767 0.468466
vt 0.484233 0.500000
vt 0.515767 0.500000
vt 0.484233 0.531534
vt 0.515767 0.531534
vt 0.484233 0.563069
vt 0.515767 0.563069
vt 0.547302 0.436931
vt 0.547302 0.468466
vt 0.452698 0.436931
vt 0.452698 0.468466
vt 0.484233 0.436931
vt 0.515767 0.436931
vt 0.515767 0.468466
vt 0.484233 0.468466
vt 0.515767 0.436931
vt 0.547302 0.436931
vt 0.547302 0.468466
vt 0.515767 0.468466
vn 0.000000 0.000000 1.000000
vn 0.000000 0.000000 1.000000
vn 0.000000 0.000000 1.000000
vn 0.000000 0.000000 1.000000
vn -0.000000 -1.000000 0.000000
vn -0.000000 -1.000000 0.000000
vn -0.000000 -1.000000 0.000000
vn -0.000000 -1.000000 0.000000
vn -0.000000 0.000000 -1.000000
vn -0.000000 0.000000 -1.000000
vn -0.000000 0.000000 -1.000000
vn -0.000000 0.000000 -1.000000
vn 0.000000 1.000000 0.000000
vn 0.000000 1.000000 0.000000
vn 0.000000 1.000000 0.000000
vn 0.000000 1.000000 0.000000
vn -1.000000 0.000000 0.000000
vn -1.000000 0.000000 0.000000
vn -1.000000 0.000000 0.000000
vn -1.000000 0.000000 0.000000
vn 1.000000 -0.000000 0.000000
vn 1.000000 -0.000000 0.000000
vn 1.000000 -0.000000 0.000000
vn 1.000000 -0.000000 0.000000
vn 0.000000 1.000000 0.000000
vn 0.000000 1.000000 0.000000
vn 0.000000 1.000000 0.000000
vn 0.000000 1.000000 0.000000
vn -1.000000 0.000000 0.000000
vn -1.000000 0.000000 0.000000
vn -1.000000 0.000000 0.000000
vn -1.000000 0.000000 0.000000
vn -0.000000 -1.000000 0.000000
vn -0.000000 -1.000000 0.000000
vn -0.000000 -1.000000 0.000000
vn -0.000000 -1.000000 0.000000
vn 1.000000 -0.000000 0.000000
vn 1.000000 -0.000000 0.000000
vn 1.000000 -0.000000 0.000000
vn 1.000000 -0.000000 0.000000
vn 0.000000 1.000000 0.000000
vn 0.000000 1.000000 0.000000
vn -0.000000 0.000000 -1.000000
vn -0.000000 0.000000 -1.000000
vn -0.000000 -1.000000 0.000000
vn -0.000000 -1.000000 0.000000
vn 0.000000 0.000000 1.000000
vn 0.000000 0.000000 1.000000
vn 0.000000 0.000000 1.000000
vn 0.000000 0.000000 1.000000
s off
g pasted__pCube3 group9
usemtl lambert6SG
f 9/15/1 10/16/2 11/17/3 12/18/4
s 1
f 3/3/5 4/4/6 6/6/7 5/5/8
s 2
f 5/5/9 6/6/10 8/8/11 7/7/12
s 3
f 7/7/13 8/8/14 2/10/15 1/9/16
s off
f 14/19/17 13/20/18 15/21/19 16/22/20
f 7/13/21 1/1/22 3/3/23 5/14/24
f 1/1/25 2/2/26 10/16/27 9/15/28
f 2/2/29 4/4/30 11/17/31 10/16/32
f 4/4/33 3/3/34 12/18/35 11/17/36
f 3/3/37 1/1/38 9/15/39 12/18/40
s 3
f 2/2/15 8/11/14 13/20/41 14/19/42
s 2
f 8/11/11 6/12/10 15/21/43 13/20/44
s 1
f 6/12/7 4/4/6 16/22/45 15/21/46
s off
f 4/4/47 2/2/48 14/19/49 16/22/50
