# This file uses centimeters as units for non-parametric coordinates.

mtllib saw.mtl
g default
v 1.743330 0.479365 0.012843
v 0.954235 0.629311 -0.004548
v 0.573928 0.666710 -0.004548
v 0.275578 0.717995 -0.004548
v 0.111917 0.735666 -0.004548
v 0.000343 0.717995 -0.004548
v -0.100309 0.666710 -0.004548
v -0.180186 0.586832 -0.004548
v -0.231471 0.486180 -0.004548
v -0.249142 0.374607 -0.004548
v -0.231471 0.263034 -0.004548
v -0.180186 0.162382 -0.004548
v -0.100309 0.082504 -0.004548
v 0.000343 0.031219 -0.004548
v 0.164005 0.013548 -0.004548
v 0.473276 0.031219 -0.004548
v 0.874357 0.082504 -0.004548
v 1.391962 0.172668 0.005828
v 1.859998 0.277820 0.024198
v 2.125709 0.389358 0.024198
v 1.743330 0.479365 0.035553
v 0.954235 0.629311 0.052943
v 0.573928 0.666710 0.052943
v 0.275578 0.717995 0.052943
v 0.111917 0.735666 0.052943
v 0.000343 0.717995 0.052943
v -0.100309 0.666710 0.052943
v -0.180186 0.586832 0.052943
v -0.231471 0.486180 0.052943
v -0.249142 0.374607 0.052943
v -0.231471 0.263034 0.052943
v -0.180186 0.162382 0.052943
v -0.100309 0.082504 0.052943
v 0.000343 0.031219 0.052943
v 0.164005 0.013548 0.052943
v 0.473276 0.031219 0.052943
v 0.874357 0.082504 0.052943
v 1.391962 0.172668 0.042568
v 1.859998 0.277820 0.024198
v 2.125709 0.389358 0.024198
v 0.280319 0.374607 -0.004548
v 0.280319 0.374607 0.052943
vt 0.840907 0.699254
vt 0.872260 0.699254
vt 0.840907 0.924198
vt 0.872260 0.924198
vt 0.816024 0.924198
vt 0.907016 0.699254
vt 0.816024 0.699254
vt 0.907016 0.924198
vt 0.941772 0.699254
vt 0.941772 0.924198
vt 0.973126 0.699254
vt 0.973126 0.924198
vt 0.998008 0.699254
vt 0.998008 0.924198
vt 0.035122 0.366766
vt 0.071082 0.120958
vt 0.114464 0.576695
vt 0.114464 0.001845
vt 0.023472 0.485234
vt 0.144614 0.084615
vt 0.007497 0.578172
vt 0.177370 0.230411
vt 0.001992 0.629153
vt 0.205456 0.391648
vt 0.007497 0.663909
vt 0.221432 0.516588
vt 0.023472 0.695263
vt 0.226936 0.612927
vt 0.048355 0.720145
vt 0.221432 0.663909
vt 0.079708 0.736121
vt 0.205456 0.695263
vt 0.114464 0.741625
vt 0.180574 0.720145
vt 0.149220 0.736121
vt 0.389966 0.120958
vt 0.425926 0.366766
vt 0.346584 0.576695
vt 0.437576 0.485234
vt 0.346584 0.001845
vt 0.453552 0.578172
vt 0.316435 0.084615
vt 0.459057 0.629153
vt 0.283679 0.230411
vt 0.453552 0.663909
vt 0.255593 0.391648
vt 0.437576 0.695263
vt 0.239617 0.516588
vt 0.412694 0.720145
vt 0.234112 0.612927
vt 0.381340 0.736121
vt 0.239617 0.663909
vt 0.346584 0.741625
vt 0.255593 0.695263
vt 0.311829 0.736121
vt 0.280475 0.720145
vt 0.622938 0.120958
vt 0.690982 0.366766
vt 0.534082 0.120958
vt 0.466038 0.366766
vt 0.578509 0.001845
vt 0.690982 0.485234
vt 0.578511 0.001845
vt 0.466038 0.485234
vt 0.690982 0.578172
vt 0.466038 0.578172
vt 0.690982 0.629153
vt 0.466038 0.629153
vt 0.690982 0.663909
vt 0.466038 0.663909
vt 0.690982 0.695263
vt 0.466038 0.695263
vt 0.697963 0.695263
vt 0.697963 0.663909
vt 0.922907 0.695263
vt 0.922907 0.663909
vt 0.697963 0.612927
vt 0.922907 0.612927
vt 0.697963 0.516588
vt 0.922907 0.516588
vt 0.697963 0.391648
vt 0.922907 0.391648
vt 0.738559 0.230411
vt 0.882312 0.230411
vt 0.810436 0.084615
vt 0.810434 0.084615
vt 0.810434 0.001845
vt 0.810436 0.001845
vn 0.197142 0.980375 -0.000000
vn 0.151417 0.988470 -0.000000
vn 0.193568 0.981087 -0.000000
vn 0.154489 0.987994 -0.000000
vn 0.129574 0.991570 -0.000000
vn 0.129574 0.991570 -0.000000
vn 0.147617 0.989045 -0.000000
vn 0.147617 0.989045 -0.000000
vn -0.000000 1.000000 -0.000000
vn 0.000000 1.000000 -0.000000
vn -0.309017 0.951056 -0.000000
vn -0.309017 0.951056 -0.000000
vn -0.587785 0.809017 -0.000000
vn -0.587785 0.809017 -0.000000
vn -0.809017 0.587785 -0.000000
vn -0.809017 0.587785 -0.000000
vn -0.951057 0.309017 -0.000000
vn -0.951057 0.309017 -0.000000
vn -1.000000 0.000000 -0.000000
vn -1.000000 -0.000000 0.000000
vn -0.951057 -0.309017 0.000000
vn -0.951057 -0.309017 0.000000
vn -0.809017 -0.587785 0.000000
vn -0.809017 -0.587785 0.000000
vn -0.587785 -0.809017 0.000000
vn -0.587785 -0.809017 0.000000
vn -0.252438 -0.967613 0.000000
vn -0.252439 -0.967613 0.000000
vn 0.000000 -1.000000 0.000000
vn 0.000000 -1.000000 0.000000
vn 0.096619 -0.995321 0.000000
vn 0.096619 -0.995321 0.000000
vn 0.150308 -0.988639 0.000000
vn 0.148310 -0.988941 0.000000
vn 0.185780 -0.982591 0.000000
vn 0.188843 -0.982007 0.000000
vn 0.274015 -0.961725 0.000000
vn 0.219207 -0.975678 0.000000
vn 0.739038 0.673664 -0.000000
vn 0.229151 0.973391 -0.000000
vn 0.013655 -0.036130 -0.999254
vn 0.015808 -0.055036 -0.998359
vn 0.005181 -0.001168 -0.999986
vn 0.000000 -0.000000 -1.000000
vn 0.000000 -0.000000 -1.000000
vn 0.000000 -0.000000 -1.000000
vn 0.000000 -0.000000 -1.000000
vn 0.000000 -0.000000 -1.000000
vn 0.000000 -0.000000 -1.000000
vn 0.000000 -0.000000 -1.000000
vn 0.000000 -0.000000 -1.000000
vn 0.000000 -0.000000 -1.000000
vn 0.000000 -0.000000 -1.000000
vn 0.000000 -0.000000 -1.000000
vn 0.000000 -0.000000 -1.000000
vn 0.000000 -0.000000 -1.000000
vn 0.000000 -0.000000 -1.000000
vn 0.012642 0.025710 -0.999589
vn 0.021707 0.068246 -0.997432
vn 0.016700 -0.024297 -0.999565
vn 0.015918 -0.044901 -0.998865
vn 0.015808 -0.055036 0.998359
vn 0.013655 -0.036130 0.999254
vn 0.005181 -0.001168 0.999986
vn 0.000000 0.000000 1.000000
vn 0.000000 0.000000 1.000000
vn 0.000000 0.000000 1.000000
vn 0.000000 0.000000 1.000000
vn 0.000000 0.000000 1.000000
vn 0.000000 0.000000 1.000000
vn 0.000000 0.000000 1.000000
vn 0.000000 0.000000 1.000000
vn 0.000000 0.000000 1.000000
vn 0.000000 0.000000 1.000000
vn 0.000000 0.000000 1.000000
vn 0.000000 0.000000 1.000000
vn 0.000000 0.000000 1.000000
vn 0.000000 0.000000 1.000000
vn 0.012642 0.025710 0.999589
vn 0.021707 0.068246 0.997432
vn 0.016700 -0.024297 0.999565
vn 0.015918 -0.044901 0.998865
s 1
g pCylinder1
usemtl blinn1SG
f 1/57/1 2/58/2 21/59/3
f 21/59/3 2/58/2 22/60/4
f 2/58/2 3/62/5 22/60/4
f 22/60/4 3/62/5 23/64/6
f 3/62/5 4/65/7 23/64/6
f 23/64/6 4/65/7 24/66/8
f 4/65/7 5/67/9 24/66/8
f 24/66/8 5/67/9 25/68/10
f 5/67/9 6/69/11 25/68/10
f 25/68/10 6/69/11 26/70/12
f 6/69/11 7/71/13 26/70/12
f 26/70/12 7/71/13 27/72/14
f 7/7/13 8/1/15 27/5/14
f 27/5/14 8/1/15 28/3/16
f 8/1/15 9/2/17 28/3/16
f 28/3/16 9/2/17 29/4/18
f 9/2/17 10/6/19 29/4/18
f 29/4/18 10/6/19 30/8/20
f 10/6/19 11/9/21 30/8/20
f 30/8/20 11/9/21 31/10/22
f 11/9/21 12/11/23 31/10/22
f 31/10/22 12/11/23 32/12/24
f 12/11/23 13/13/25 32/12/24
f 32/12/24 13/13/25 33/14/26
f 13/73/25 14/74/27 33/75/26
f 33/75/26 14/74/27 34/76/28
f 14/74/27 15/77/29 34/76/28
f 34/76/28 15/77/29 35/78/30
f 15/77/29 16/79/31 35/78/30
f 35/78/30 16/79/31 36/80/32
f 16/79/31 17/81/33 36/80/32
f 36/80/32 17/81/33 37/82/34
f 17/81/33 18/83/35 37/82/34
f 37/82/34 18/83/35 38/84/36
f 19/86/37 39/85/38 18/83/35
f 18/83/35 39/85/38 38/84/36
f 19/86/37 20/87/39 39/85/38
f 39/85/38 20/87/39 40/88/40
f 20/63/39 1/57/1 40/61/40
f 1/57/1 21/59/3 40/61/40
s 3
f 2/15/41 1/16/42 41/17/43
f 3/19/44 2/15/41 41/17/43
f 4/21/45 3/19/44 41/17/43
f 5/23/46 4/21/45 41/17/43
f 6/25/47 5/23/46 41/17/43
f 7/27/48 6/25/47 41/17/43
f 8/29/49 7/27/48 41/17/43
f 9/31/50 8/29/49 41/17/43
f 10/33/51 9/31/50 41/17/43
f 11/35/52 10/33/51 41/17/43
f 12/34/53 11/35/52 41/17/43
f 13/32/54 12/34/53 41/17/43
f 14/30/55 13/32/54 41/17/43
f 15/28/56 14/30/55 41/17/43
f 16/26/57 15/28/56 41/17/43
f 17/24/58 16/26/57 41/17/43
f 18/22/59 17/24/58 41/17/43
f 19/20/60 18/22/59 41/17/43
f 20/18/61 19/20/60 41/17/43
f 1/16/42 20/18/61 41/17/43
s 4
f 21/36/62 22/37/63 42/38/64
f 22/37/63 23/39/65 42/38/64
f 23/39/65 24/41/66 42/38/64
f 24/41/66 25/43/67 42/38/64
f 25/43/67 26/45/68 42/38/64
f 26/45/68 27/47/69 42/38/64
f 27/47/69 28/49/70 42/38/64
f 28/49/70 29/51/71 42/38/64
f 29/51/71 30/53/72 42/38/64
f 30/53/72 31/55/73 42/38/64
f 31/55/73 32/56/74 42/38/64
f 32/56/74 33/54/75 42/38/64
f 33/54/75 34/52/76 42/38/64
f 34/52/76 35/50/77 42/38/64
f 35/50/77 36/48/78 42/38/64
f 36/48/78 37/46/79 42/38/64
f 37/46/79 38/44/80 42/38/64
f 38/44/80 39/42/81 42/38/64
f 39/42/81 40/40/82 42/38/64
f 40/40/82 21/36/62 42/38/64
