# This file uses centimeters as units for non-parametric coordinates.

mtllib shortrange3.mtl
g default
v -1.374628 0.000000 1.449332
v -1.374628 0.155984 1.755307
v -1.680603 0.155984 1.449332
v 1.680603 0.155984 1.449332
v 1.374628 0.155984 1.755307
v 1.374628 0.000000 1.449332
v -1.680603 0.884016 1.449332
v -1.374628 0.884016 1.755307
v -1.374628 1.040000 1.449332
v 1.374628 1.040000 1.449332
v 1.374628 0.884016 1.755307
v 1.680603 0.884016 1.449332
v -1.680603 0.884016 -1.299925
v -1.374628 1.040000 -1.299925
v -1.374628 0.884016 -1.605900
v 1.374628 0.884016 -1.605900
v 1.374628 1.040000 -1.299925
v 1.680603 0.884016 -1.299925
v -1.680603 0.155984 -1.299925
v -1.374628 0.155984 -1.605900
v -1.374628 0.000000 -1.299925
v 1.374628 0.000000 -1.299925
v 1.374628 0.155984 -1.605900
v 1.680603 0.155984 -1.299925
vt 1.388830 1.379153
vt 1.363109 1.418481
vt 1.009740 1.187362
vt -0.299937 0.274623
vt -0.235140 0.317003
vt 1.645672 0.986457
vt 1.619949 1.025785
vt 1.292303 0.755338
vt 0.047423 -0.115021
vt 0.145692 0.622236
vt 0.499061 0.853355
vt 0.067290 0.514806
vt 0.298408 0.161437
vt 0.428255 0.190212
vt 0.603186 0.921457
vt 0.905616 1.119260
vt 0.524783 0.814027
vt 0.755902 0.460659
vt 0.885749 0.489433
vt 1.188179 0.687236
vt 0.931338 1.079932
vt 1.162457 0.726564
vt 1.266581 0.794666
vt -0.004021 -0.036365
vt 0.171414 0.582908
vt 0.402533 0.229540
vt 0.628908 0.882129
vt 0.860026 0.528761
vt 1.035462 1.148035
vt 0.278542 -0.468390
vt 0.580972 -0.270588
vt -0.517704 0.749027
vt -0.286584 0.395658
vt 0.015845 0.593461
vt -0.215274 0.946830
vt -0.068818 -0.078746
vt 0.349853 0.082782
vt 0.781624 0.421331
vn -0.454181 -0.890909 0.000000
vn -0.454181 -0.890909 0.000000
vn -0.454181 -0.890909 0.000000
vn -0.454181 -0.890909 0.000000
vn 0.000000 -0.890909 0.454181
vn 0.000000 -0.890909 0.454181
vn 0.000000 -0.890909 0.454181
vn 0.000000 -0.890909 0.454181
vn -0.707107 0.000000 0.707107
vn -0.707107 0.000000 0.707107
vn -0.707107 0.000000 0.707107
vn -0.707107 0.000000 0.707107
vn 0.454181 -0.890909 0.000000
vn 0.454181 -0.890909 0.000000
vn 0.454181 -0.890909 0.000000
vn 0.454181 -0.890909 0.000000
vn 0.707107 0.000000 0.707107
vn 0.707107 0.000000 0.707107
vn 0.707107 0.000000 0.707107
vn 0.707107 0.000000 0.707107
vn -0.454181 0.890909 0.000000
vn -0.454181 0.890909 0.000000
vn -0.454181 0.890909 0.000000
vn -0.454181 0.890909 0.000000
vn 0.000000 0.890909 0.454181
vn 0.000000 0.890909 0.454181
vn 0.000000 0.890909 0.454181
vn 0.000000 0.890909 0.454181
vn 0.454181 0.890909 0.000000
vn 0.454181 0.890909 0.000000
vn 0.454181 0.890909 0.000000
vn 0.454181 0.890909 0.000000
vn -0.707107 0.000000 -0.707107
vn -0.707107 0.000000 -0.707107
vn -0.707107 0.000000 -0.707107
vn -0.707107 0.000000 -0.707107
vn 0.000000 0.890909 -0.454181
vn 0.000000 0.890909 -0.454181
vn 0.000000 0.890909 -0.454181
vn 0.000000 0.890909 -0.454181
vn 0.707107 0.000000 -0.707107
vn 0.707107 0.000000 -0.707107
vn 0.707107 0.000000 -0.707107
vn 0.707107 0.000000 -0.707107
vn 0.000000 -0.890909 -0.454181
vn 0.000000 -0.890909 -0.454181
vn 0.000000 -0.890909 -0.454181
vn 0.000000 -0.890909 -0.454181
vn 0.000000 0.000000 1.000000
vn 0.000000 0.000000 1.000000
vn 0.000000 0.000000 1.000000
vn 0.000000 0.000000 1.000000
vn 0.000000 1.000000 0.000000
vn 0.000000 1.000000 0.000000
vn 0.000000 1.000000 0.000000
vn 0.000000 1.000000 0.000000
vn 0.000000 0.000000 -1.000000
vn 0.000000 0.000000 -1.000000
vn 0.000000 0.000000 -1.000000
vn 0.000000 0.000000 -1.000000
vn 0.000000 -1.000000 0.000000
vn 0.000000 -1.000000 0.000000
vn 0.000000 -1.000000 0.000000
vn 0.000000 -1.000000 0.000000
vn 1.000000 0.000000 0.000000
vn 1.000000 0.000000 0.000000
vn 1.000000 0.000000 0.000000
vn 1.000000 0.000000 0.000000
vn -1.000000 0.000000 0.000000
vn -1.000000 0.000000 0.000000
vn -1.000000 0.000000 0.000000
vn -1.000000 0.000000 0.000000
vn -0.413528 -0.811165 0.413528
vn -0.413528 -0.811165 0.413528
vn -0.413528 -0.811165 0.413528
vn 0.413528 -0.811165 0.413528
vn 0.413528 -0.811165 0.413528
vn 0.413528 -0.811165 0.413528
vn -0.413528 0.811165 0.413528
vn -0.413528 0.811165 0.413528
vn -0.413528 0.811165 0.413528
vn 0.413528 0.811165 0.413528
vn 0.413528 0.811165 0.413528
vn 0.413528 0.811165 0.413528
vn -0.413528 0.811165 -0.413528
vn -0.413528 0.811165 -0.413528
vn -0.413528 0.811165 -0.413528
vn 0.413528 0.811165 -0.413528
vn 0.413528 0.811165 -0.413528
vn 0.413528 0.811165 -0.413528
vn -0.413528 -0.811165 -0.413528
vn -0.413528 -0.811165 -0.413528
vn -0.413528 -0.811165 -0.413528
vn 0.413528 -0.811165 -0.413528
vn 0.413528 -0.811165 -0.413528
vn 0.413528 -0.811165 -0.413528
s 1
g pCube1
usemtl blinn1SG
f 1/1/1 3/2/2 21/29/3
f 21/29/3 3/2/2 19/3/4
s 2
f 2/5/5 1/4/6 5/24/7
f 5/24/7 1/4/6 6/36/8
s 3
f 3/33/9 2/5/10 7/34/11
f 7/34/11 2/5/10 8/12/12
s 4
f 4/6/13 6/7/14 24/8/15
f 24/8/15 6/7/14 22/23/16
s 5
f 5/24/17 4/9/18 11/13/19
f 11/13/19 4/9/18 12/37/20
s 6
f 7/10/21 9/25/22 13/11/23
f 13/11/23 9/25/22 14/17/24
s 7
f 9/25/25 8/12/26 10/26/27
f 10/26/27 8/12/26 11/13/28
s 8
f 10/26/29 12/14/30 17/18/31
f 17/18/31 12/14/30 18/38/32
s 9
f 13/15/33 15/27/34 19/16/35
f 19/16/35 15/27/34 20/21/36
s 10
f 15/27/37 14/17/38 16/28/39
f 16/28/39 14/17/38 17/18/40
s 11
f 16/28/41 18/19/42 23/22/43
f 23/22/43 18/19/42 24/20/44
s 12
f 21/29/45 20/21/46 22/23/47
f 22/23/47 20/21/46 23/22/48
s 13
f 2/5/49 5/24/50 8/12/51
f 8/12/51 5/24/50 11/13/52
s 14
f 9/25/53 10/26/54 14/17/55
f 14/17/55 10/26/54 17/18/56
s 15
f 15/27/57 16/28/58 20/21/59
f 20/21/59 16/28/58 23/22/60
s 16
f 21/29/61 22/23/62 1/1/63
f 1/1/63 22/23/62 6/7/64
s 17
f 4/9/65 24/30/66 12/37/67
f 12/37/67 24/30/66 18/31/68
s 18
f 19/32/69 3/33/70 13/35/71
f 13/35/71 3/33/70 7/34/72
s off
f 1/4/73 2/5/74 3/33/75
f 4/9/76 5/24/77 6/36/78
f 7/34/79 8/12/80 9/25/81
f 10/26/82 11/13/83 12/37/84
f 13/11/85 14/17/86 15/27/87
f 16/28/88 17/18/89 18/38/90
f 19/16/91 20/21/92 21/29/93
f 22/23/94 23/22/95 24/20/96
