# This file uses centimeters as units for non-parametric coordinates.

mtllib streptococcus_pyogenes_tail.mtl
g default
v 0.000000 0.004401 -9.034486
v 0.723607 0.517510 -7.467868
v -0.276393 0.842419 -7.465246
v -0.894427 -0.008204 -7.472109
v -0.276393 -0.858827 -7.478972
v 0.723607 -0.533918 -7.476351
v 0.894427 -0.028601 -4.944131
v 0.276393 0.822023 -4.937268
v -0.723607 0.497113 -4.939889
v -0.723607 -0.554315 -4.948373
v 0.276393 -0.879224 -4.950994
v 0.000000 -0.041206 -3.381755
vt 0.711720 0.500000
vt 0.676702 0.538114
vt 0.514479 0.570036
vt 0.533535 0.500000
vt 0.514479 0.429964
vt 0.676702 0.461887
vt 0.641685 0.500000
vt 0.622628 0.570036
vt 0.568553 0.538114
vt 0.568553 0.461887
vt 0.622628 0.429964
vt 0.603571 0.500000
vt 0.730777 0.570036
vt 0.749834 0.500000
vt 0.730777 0.429964
vn 0.280405 0.866360 -0.413272
vn 0.280405 0.866360 -0.413272
vn 0.280405 0.866360 -0.413272
vn -0.734110 0.536735 -0.415931
vn -0.734110 0.536735 -0.415932
vn -0.734110 0.536735 -0.415932
vn -0.734109 -0.529954 -0.424538
vn -0.734109 -0.529954 -0.424538
vn -0.734109 -0.529954 -0.424538
vn 0.280405 -0.859579 -0.427197
vn 0.280405 -0.859579 -0.427197
vn 0.280405 -0.859579 -0.427197
vn 0.907409 0.003391 -0.420235
vn 0.907409 0.003391 -0.420235
vn 0.907409 0.003391 -0.420235
vn 0.308314 0.949406 -0.059758
vn 0.308314 0.949406 -0.059758
vn 0.308314 0.949406 -0.059758
vn -0.807176 0.586973 -0.062682
vn -0.807176 0.586973 -0.062682
vn -0.807176 0.586973 -0.062682
vn -0.807176 -0.585885 -0.072145
vn -0.807176 -0.585885 -0.072145
vn -0.807176 -0.585885 -0.072145
vn 0.308314 -0.948318 -0.075069
vn 0.308314 -0.948318 -0.075069
vn 0.308314 -0.948318 -0.075069
vn 0.997725 0.000544 -0.067414
vn 0.997725 0.000544 -0.067414
vn 0.997725 0.000544 -0.067414
vn 0.807176 0.585885 0.072145
vn 0.807176 0.585885 0.072145
vn 0.807176 0.585885 0.072145
vn -0.308314 0.948318 0.075070
vn -0.308314 0.948318 0.075070
vn -0.308314 0.948318 0.075070
vn -0.997725 -0.000544 0.067414
vn -0.997725 -0.000544 0.067414
vn -0.997725 -0.000544 0.067414
vn -0.308314 -0.949406 0.059758
vn -0.308314 -0.949406 0.059758
vn -0.308314 -0.949406 0.059758
vn 0.807176 -0.586973 0.062682
vn 0.807176 -0.586973 0.062682
vn 0.807176 -0.586973 0.062682
vn 0.734109 0.529954 0.424538
vn 0.734109 0.529954 0.424538
vn 0.734109 0.529954 0.424538
vn -0.280405 0.859579 0.427197
vn -0.280405 0.859579 0.427197
vn -0.280405 0.859579 0.427197
vn -0.907409 -0.003391 0.420235
vn -0.907409 -0.003391 0.420235
vn -0.907409 -0.003391 0.420235
vn -0.280405 -0.866360 0.413272
vn -0.280405 -0.866360 0.413272
vn -0.280405 -0.866360 0.413272
vn 0.734109 -0.536735 0.415931
vn 0.734109 -0.536735 0.415931
vn 0.734109 -0.536735 0.415932
s off
g pasted__pasted__pPlatonic2 group6
usemtl lambert3SG
f 1/1/1 3/13/2 2/2/3
f 1/1/4 4/14/5 3/13/6
f 1/1/7 5/15/8 4/14/9
f 1/1/10 6/6/11 5/15/12
f 1/1/13 2/2/14 6/6/15
f 2/2/16 3/13/17 8/8/18
f 3/3/19 4/4/20 9/9/21
f 4/4/22 5/5/23 10/10/24
f 5/15/25 6/6/26 11/11/27
f 6/6/28 2/2/29 7/7/30
f 2/2/31 8/8/32 7/7/33
f 3/3/34 9/9/35 8/8/36
f 4/4/37 10/10/38 9/9/39
f 5/5/40 11/11/41 10/10/42
f 6/6/43 7/7/44 11/11/45
f 7/7/46 8/8/47 12/12/48
f 8/8/49 9/9/50 12/12/51
f 9/9/52 10/10/53 12/12/54
f 10/10/55 11/11/56 12/12/57
f 11/11/58 7/7/59 12/12/60
g default
v 0.000000 0.000000 -3.953653
v 0.281167 0.204279 -3.738861
v -0.107396 0.330531 -3.738861
v -0.347541 -0.000000 -3.738861
v -0.107396 -0.330531 -3.738861
v 0.281167 -0.204279 -3.738861
v 0.347541 0.000000 -3.391320
v 0.107396 0.330531 -3.391320
v -0.281167 0.204279 -3.391320
v -0.281167 -0.204279 -3.391320
v 0.107396 -0.330531 -3.391320
v 0.000000 0.000000 -3.176528
vt 0.306509 0.500000
vt 0.256895 0.554001
vt 0.027051 0.599229
vt 0.054051 0.500000
vt 0.027051 0.400771
vt 0.256895 0.446000
vt 0.207281 0.500000
vt 0.180280 0.599229
vt 0.103666 0.554001
vt 0.103666 0.446000
vt 0.180280 0.400771
vt 0.153280 0.500000
vt 0.333510 0.599229
vt 0.360510 0.500000
vt 0.333510 0.400771
vn 0.187593 0.577350 -0.794655
vn 0.187593 0.577350 -0.794655
vn 0.187593 0.577350 -0.794655
vn -0.491124 0.356822 -0.794655
vn -0.491124 0.356822 -0.794655
vn -0.491124 0.356822 -0.794655
vn -0.491123 -0.356822 -0.794655
vn -0.491123 -0.356822 -0.794655
vn -0.491123 -0.356822 -0.794655
vn 0.187592 -0.577350 -0.794654
vn 0.187592 -0.577350 -0.794654
vn 0.187592 -0.577350 -0.794654
vn 0.607062 -0.000000 -0.794654
vn 0.607062 -0.000000 -0.794654
vn 0.607062 -0.000000 -0.794654
vn 0.303531 0.934172 -0.187593
vn 0.303531 0.934172 -0.187593
vn 0.303531 0.934172 -0.187593
vn -0.794655 0.577350 -0.187592
vn -0.794655 0.577350 -0.187592
vn -0.794655 0.577350 -0.187592
vn -0.794654 -0.577350 -0.187592
vn -0.794654 -0.577350 -0.187592
vn -0.794654 -0.577350 -0.187592
vn 0.303531 -0.934172 -0.187593
vn 0.303531 -0.934172 -0.187593
vn 0.303531 -0.934172 -0.187593
vn 0.982247 0.000000 -0.187593
vn 0.982247 0.000000 -0.187593
vn 0.982247 0.000000 -0.187593
vn 0.794654 0.577350 0.187592
vn 0.794654 0.577350 0.187592
vn 0.794654 0.577350 0.187592
vn -0.303531 0.934172 0.187593
vn -0.303531 0.934172 0.187593
vn -0.303531 0.934172 0.187593
vn -0.982247 0.000000 0.187593
vn -0.982247 0.000000 0.187593
vn -0.982247 0.000000 0.187593
vn -0.303531 -0.934172 0.187592
vn -0.303531 -0.934172 0.187592
vn -0.303531 -0.934172 0.187592
vn 0.794654 -0.577350 0.187592
vn 0.794654 -0.577350 0.187592
vn 0.794655 -0.577350 0.187592
vn 0.491123 0.356822 0.794654
vn 0.491123 0.356822 0.794654
vn 0.491123 0.356822 0.794654
vn -0.187592 0.577350 0.794654
vn -0.187593 0.577350 0.794654
vn -0.187593 0.577350 0.794654
vn -0.607062 -0.000000 0.794655
vn -0.607062 -0.000000 0.794654
vn -0.607062 -0.000000 0.794655
vn -0.187592 -0.577350 0.794654
vn -0.187592 -0.577350 0.794654
vn -0.187592 -0.577350 0.794654
vn 0.491123 -0.356822 0.794655
vn 0.491123 -0.356822 0.794655
vn 0.491123 -0.356822 0.794655
s off
g pPlatonic3
usemtl lambert3SG
f 13/16/61 15/28/62 14/17/63
f 13/16/64 16/29/65 15/28/66
f 13/16/67 17/30/68 16/29/69
f 13/16/70 18/21/71 17/30/72
f 13/16/73 14/17/74 18/21/75
f 14/17/76 15/28/77 20/23/78
f 15/18/79 16/19/80 21/24/81
f 16/19/82 17/20/83 22/25/84
f 17/30/85 18/21/86 23/26/87
f 18/21/88 14/17/89 19/22/90
f 14/17/91 20/23/92 19/22/93
f 15/18/94 21/24/95 20/23/96
f 16/19/97 22/25/98 21/24/99
f 17/20/100 23/26/101 22/25/102
f 18/21/103 19/22/104 23/26/105
f 19/22/106 20/23/107 24/27/108
f 20/23/109 21/24/110 24/27/111
f 21/24/112 22/25/113 24/27/114
f 22/25/115 23/26/116 24/27/117
f 23/26/118 19/22/119 24/27/120
