# This file uses centimeters as units for non-parametric coordinates.

mtllib streptococcus_pyogenes_head.mtl
g default
v 0.000000 7.279792 0.222988
v 0.723607 7.605565 1.537864
v -0.276394 7.926555 1.588249
v -0.894428 7.086193 1.456338
v -0.276393 6.245832 1.324428
v 0.723607 6.566822 1.374813
v 0.894428 6.772944 3.451943
v 0.276393 7.613305 3.583853
v -0.723608 7.292316 3.533468
v -0.723607 6.253573 3.370416
v 0.276393 5.932583 3.320030
v 0.000000 6.074340 5.766693
vt 0.721077 0.500000
vt 0.681941 0.542596
vt 0.500639 0.578272
vt 0.521937 0.500000
vt 0.500639 0.421728
vt 0.681941 0.457404
vt 0.642805 0.500000
vt 0.621507 0.578272
vt 0.561073 0.542596
vt 0.561073 0.457404
vt 0.621507 0.421728
vt 0.600209 0.500000
vt 0.742375 0.578272
vt 0.763673 0.500000
vt 0.742375 0.421728
vn 0.267357 0.890643 -0.367798
vn 0.267357 0.890643 -0.367798
vn 0.267357 0.890643 -0.367798
vn -0.699945 0.580150 -0.416536
vn -0.699945 0.580150 -0.416536
vn -0.699945 0.580150 -0.416536
vn -0.699945 -0.424627 -0.574255
vn -0.699945 -0.424627 -0.574255
vn -0.699945 -0.424627 -0.574255
vn 0.267355 -0.735120 -0.622993
vn 0.267355 -0.735120 -0.622993
vn 0.267355 -0.735120 -0.622993
vn 0.865180 0.077762 -0.495395
vn 0.865180 0.077762 -0.495395
vn 0.865180 0.077762 -0.495395
vn 0.307919 0.949277 0.063714
vn 0.307919 0.949277 0.063714
vn 0.307919 0.949277 0.063714
vn -0.806140 0.591676 0.007581
vn -0.806140 0.591676 0.007581
vn -0.806140 0.591676 0.007581
vn -0.806139 -0.565544 -0.174067
vn -0.806139 -0.565544 -0.174067
vn -0.806139 -0.565544 -0.174067
vn 0.307918 -0.923144 -0.230200
vn 0.307918 -0.923144 -0.230200
vn 0.307918 -0.923144 -0.230200
vn 0.996444 0.013067 -0.083243
vn 0.996444 0.013067 -0.083243
vn 0.996444 0.013067 -0.083243
vn 0.806139 0.565544 0.174067
vn 0.806139 0.565544 0.174067
vn 0.806139 0.565544 0.174067
vn -0.307917 0.923144 0.230200
vn -0.307917 0.923144 0.230200
vn -0.307917 0.923144 0.230200
vn -0.996444 -0.013068 0.083243
vn -0.996444 -0.013068 0.083243
vn -0.996444 -0.013068 0.083243
vn -0.307918 -0.949277 -0.063714
vn -0.307918 -0.949277 -0.063714
vn -0.307918 -0.949277 -0.063714
vn 0.806139 -0.591677 -0.007582
vn 0.806139 -0.591677 -0.007582
vn 0.806139 -0.591677 -0.007582
vn 0.755398 0.486677 0.438770
vn 0.755398 0.486677 0.438770
vn 0.755398 0.486677 0.438770
vn -0.283508 0.800302 0.528338
vn -0.283508 0.800302 0.528338
vn -0.283508 0.800302 0.528338
vn -0.957265 -0.044849 0.285712
vn -0.957265 -0.044849 0.285712
vn -0.957265 -0.044849 0.285712
vn -0.304616 -0.952249 0.020760
vn -0.304616 -0.952249 0.020760
vn -0.304616 -0.952249 0.020760
vn 0.789982 -0.600454 0.124032
vn 0.789982 -0.600454 0.124032
vn 0.789982 -0.600454 0.124032
s off
g pPlatonic2 group19 group20
usemtl lambert3SG
f 1/1/1 3/13/2 2/2/3
f 1/1/4 4/14/5 3/13/6
f 1/1/7 5/15/8 4/14/9
f 1/1/10 6/6/11 5/15/12
f 1/1/13 2/2/14 6/6/15
f 2/2/16 3/13/17 8/8/18
f 3/3/19 4/4/20 9/9/21
f 4/4/22 5/5/23 10/10/24
f 5/15/25 6/6/26 11/11/27
f 6/6/28 2/2/29 7/7/30
f 2/2/31 8/8/32 7/7/33
f 3/3/34 9/9/35 8/8/36
f 4/4/37 10/10/38 9/9/39
f 5/5/40 11/11/41 10/10/42
f 6/6/43 7/7/44 11/11/45
f 7/7/46 8/8/47 12/12/48
f 8/8/49 9/9/50 12/12/51
f 9/9/52 10/10/53 12/12/54
f 10/10/55 11/11/56 12/12/57
f 11/11/58 7/7/59 12/12/60
