# This file uses centimeters as units for non-parametric coordinates.

mtllib thelpertop.mtl
g default
v 0.151932 0.825759 -0.110385
v 0.058033 0.825759 -0.178607
v -0.058033 0.825759 -0.178607
v -0.151932 0.825759 -0.110385
v -0.187799 0.825759 -0.000000
v -0.151932 0.825759 0.110385
v -0.058033 0.825759 0.178607
v 0.058033 0.825759 0.178607
v 0.151932 0.825759 0.110385
v 0.187799 0.825759 -0.000000
v 0.151932 1.372138 -0.110385
v 0.058033 1.372138 -0.178607
v -0.058033 1.372138 -0.178607
v -0.151932 1.372138 -0.110385
v -0.187799 1.372138 -0.000000
v -0.151932 1.372138 0.110385
v -0.058033 1.372138 0.178607
v 0.058033 1.372138 0.178607
v 0.151932 1.372138 0.110385
v 0.187799 1.372138 -0.000000
v 0.319834 1.513241 -0.232374
v 0.122166 1.513241 -0.375988
v 0.000000 1.527309 0.000000
v -0.122166 1.513241 -0.375988
v -0.319835 1.513241 -0.232373
v -0.395337 1.513241 0.000000
v -0.319835 1.513241 0.232374
v -0.122166 1.513241 0.375988
v 0.122166 1.513241 0.375988
v 0.319834 1.513241 0.232374
v 0.395337 1.513241 0.000000
v 0.319834 1.299634 -0.232374
v 0.122166 1.299634 -0.375988
v -0.122166 1.299634 -0.375988
v -0.319835 1.299634 -0.232373
v -0.395337 1.299634 0.000000
v -0.319835 1.299634 0.232374
v -0.122166 1.299634 0.375988
v 0.122166 1.299634 0.375988
v 0.319834 1.299634 0.232374
v 0.395337 1.299634 0.000000
v -0.566191 1.293678 -0.133851
v -0.570792 1.293678 0.000000
v -0.570792 1.416720 0.000000
v -0.566191 1.416720 -0.133851
v -0.566191 1.293678 0.133851
v -0.566191 1.416720 0.133851
v 0.564497 1.299634 0.232374
v 0.563764 1.299634 0.000000
v 0.563764 1.513241 0.000000
v 0.564497 1.513241 0.232374
v 0.564497 1.299634 -0.232374
v 0.564497 1.513241 -0.232374
v 0.122166 1.299634 -0.559774
v -0.122166 1.299634 -0.559774
v -0.122166 1.513241 -0.559774
v 0.122166 1.513241 -0.559774
v -0.122166 1.299634 0.559774
v 0.122166 1.299634 0.559774
v 0.122166 1.513241 0.559774
v -0.122166 1.513241 0.559774
v -0.091089 1.326803 0.559774
v 0.091089 1.326803 0.559774
v 0.091089 1.486073 0.559774
v -0.091089 1.486073 0.559774
v -0.091089 1.326803 0.458593
v 0.091089 1.326803 0.458593
v 0.091089 1.486073 0.458593
v -0.091089 1.486073 0.458593
v 0.092053 1.325960 -0.559774
v -0.092053 1.325960 -0.559774
v -0.092053 1.486915 -0.559774
v 0.092053 1.486915 -0.559774
v 0.092053 1.325960 -0.488101
v -0.092053 1.325960 -0.488101
v -0.092053 1.486915 -0.488101
v 0.092053 1.486915 -0.488101
v 0.564398 1.328465 0.169645
v 0.563863 1.328465 -0.000000
v 0.563863 1.484410 -0.000000
v 0.564398 1.484410 0.169645
v 0.564398 1.328465 -0.169645
v 0.564398 1.484410 -0.169645
v 0.432298 1.328465 0.169645
v 0.431763 1.328465 -0.000000
v 0.431763 1.484410 -0.000000
v 0.432298 1.484410 0.169645
v 0.432298 1.328465 -0.169645
v 0.432298 1.484410 -0.169645
vt 0.658483 0.493223
vt 0.705873 0.493223
vt 0.705873 0.727790
vt 0.658483 0.727790
vt 0.753263 0.493223
vt 0.753263 0.727790
vt 0.629194 0.493223
vt 0.629194 0.727790
vt 0.782552 0.493223
vt 0.782552 0.727790
vt 0.873939 0.493223
vt 0.921329 0.493223
vt 0.921329 0.727790
vt 0.873939 0.727790
vt 0.968719 0.493223
vt 0.968719 0.727790
vt 0.844651 0.493223
vt 0.844651 0.727790
vt 0.998008 0.493223
vt 0.998008 0.727790
vt 0.300377 0.773391
vt 0.300377 0.715927
vt 0.353200 0.715927
vt 0.353200 0.773391
vt 0.300377 0.658463
vt 0.353200 0.658463
vt 0.242814 0.638884
vt 0.242814 0.566053
vt 0.309763 0.566053
vt 0.309763 0.638884
vt 0.242814 0.493222
vt 0.309763 0.493222
vt 0.001992 0.699427
vt 0.093697 0.699427
vt 0.093697 0.778329
vt 0.001992 0.778329
vt 0.001992 0.637771
vt 0.093697 0.637771
vt 0.110523 0.572124
vt 0.018819 0.572124
vt 0.018819 0.493222
vt 0.110523 0.493222
vt 0.018819 0.633780
vt 0.110523 0.633780
vt 0.200980 0.704531
vt 0.292685 0.704531
vt 0.292685 0.783433
vt 0.200980 0.783433
vt 0.200980 0.642876
vt 0.292685 0.642876
vt 0.193288 0.721777
vt 0.101583 0.721777
vt 0.101583 0.642876
vt 0.193288 0.642876
vt 0.101583 0.783433
vt 0.193288 0.783433
vt 0.601493 0.840810
vt 0.601493 0.909187
vt 0.558054 0.909187
vt 0.558054 0.840810
vt 0.508481 0.874869
vt 0.508481 0.806492
vt 0.551919 0.806492
vt 0.551919 0.874869
vt 0.675303 0.840810
vt 0.675303 0.909911
vt 0.644533 0.909911
vt 0.644533 0.840810
vt 0.607628 0.909911
vt 0.607628 0.840810
vt 0.638398 0.840810
vt 0.638398 0.909911
vt 0.475391 0.692745
vt 0.475391 0.592984
vt 0.487768 0.592984
vt 0.487768 0.665815
vt 0.475391 0.493223
vt 0.487768 0.520153
vt 0.567095 0.692745
vt 0.554717 0.665815
vt 0.567095 0.493223
vt 0.554717 0.520153
vt 0.567095 0.592984
vt 0.554717 0.592984
vt 0.342072 0.106873
vt 0.403727 0.191735
vt 0.242311 0.244182
vt 0.403727 0.296630
vt 0.242311 0.074458
vt 0.482629 0.191735
vt 0.482629 0.296630
vt 0.342072 0.381492
vt 0.242311 0.002151
vt 0.342072 0.001836
vt 0.142549 0.106873
vt 0.242311 0.413906
vt 0.142549 0.001836
vt 0.080894 0.191735
vt 0.299775 0.487256
vt 0.242310 0.489231
vt 0.142549 0.381492
vt 0.080894 0.296630
vt 0.184846 0.487256
vt 0.001992 0.296630
vt 0.001992 0.191735
vt 0.682354 0.178956
vt 0.653065 0.219268
vt 0.568327 0.191735
vt 0.629982 0.106873
vt 0.653065 0.269097
vt 0.568327 0.296630
vt 0.729744 0.163558
vt 0.729744 0.074458
vt 0.682354 0.309409
vt 0.629982 0.381492
vt 0.489425 0.296630
vt 0.489425 0.191735
vt 0.629982 0.001836
vt 0.729744 0.002151
vt 0.777133 0.178956
vt 0.829505 0.106873
vt 0.729744 0.324807
vt 0.729744 0.413906
vt 0.829505 0.001836
vt 0.806422 0.219268
vt 0.891160 0.191735
vt 0.777133 0.309409
vt 0.829505 0.381492
vt 0.729744 0.489231
vt 0.672279 0.487256
vt 0.806422 0.269097
vt 0.891160 0.296630
vt 0.787208 0.487256
vt 0.970062 0.191735
vt 0.970062 0.296630
vt 0.731012 0.919022
vt 0.731012 0.840810
vt 0.774450 0.840810
vt 0.774450 0.919022
vt 0.724877 0.840810
vt 0.724877 0.919022
vt 0.681438 0.919022
vt 0.681438 0.840810
vt 0.922772 0.840668
vt 0.922772 0.919708
vt 0.892003 0.919708
vt 0.892003 0.840668
vt 0.855097 0.919708
vt 0.855097 0.840668
vt 0.885867 0.840668
vt 0.885867 0.919708
vt 0.236678 0.493222
vt 0.236448 0.566053
vt 0.179736 0.566053
vt 0.179966 0.493222
vt 0.236678 0.638884
vt 0.179966 0.638884
vt 0.173371 0.566053
vt 0.173601 0.638884
vt 0.116888 0.638884
vt 0.116658 0.566053
vt 0.173601 0.493222
vt 0.116888 0.493222
vt 0.315898 0.548933
vt 0.345187 0.508620
vt 0.392577 0.493222
vt 0.439967 0.508620
vt 0.469255 0.548933
vt 0.469255 0.598761
vt 0.439967 0.639074
vt 0.392577 0.654472
vt 0.345187 0.639074
vt 0.315898 0.598761
vt 0.838516 0.727790
vt 0.788687 0.727790
vt 0.788687 0.493223
vt 0.838516 0.493223
vt 0.573230 0.493223
vt 0.623059 0.493223
vt 0.623059 0.727790
vt 0.573230 0.727790
vt 0.998008 0.840668
vt 0.998008 0.919708
vt 0.928908 0.919708
vt 0.928908 0.840668
vt 0.780585 0.918880
vt 0.780585 0.840668
vt 0.848962 0.840668
vt 0.848962 0.918880
vt 0.360794 0.658463
vt 0.452499 0.658463
vt 0.455055 0.764227
vt 0.402232 0.764227
vt 0.464697 0.696736
vt 0.556401 0.696736
vt 0.514963 0.802501
vt 0.462140 0.802501
vt 0.655190 0.836819
vt 0.563485 0.836819
vt 0.563485 0.731782
vt 0.655190 0.731782
vt 0.754586 0.836819
vt 0.662882 0.836819
vt 0.662882 0.731782
vt 0.754586 0.731782
vt 0.762278 0.836677
vt 0.762278 0.731782
vt 0.773942 0.745123
vt 0.773942 0.823335
vt 0.853983 0.731782
vt 0.842319 0.745123
vt 0.853983 0.836677
vt 0.842319 0.823335
vt 0.953379 0.731782
vt 0.953379 0.836677
vt 0.942077 0.823749
vt 0.942077 0.744710
vt 0.861675 0.836677
vt 0.872977 0.823749
vt 0.861675 0.731782
vt 0.872977 0.744710
vt 0.502345 0.806492
vt 0.502345 0.873441
vt 0.445633 0.873441
vt 0.445633 0.806492
vt 0.439498 0.768219
vt 0.439498 0.835168
vt 0.382785 0.835168
vt 0.382785 0.768219
vn 0.021977 0.999301 -0.030250
vn 0.021977 0.999301 -0.030250
vn 0.021977 0.999301 -0.030250
vn -0.000000 0.999301 -0.037390
vn -0.000000 0.999301 -0.037390
vn -0.000000 0.999301 -0.037390
vn -0.021977 0.999301 -0.030249
vn -0.021977 0.999301 -0.030249
vn -0.021977 0.999301 -0.030249
vn -0.035560 0.999301 -0.011555
vn -0.035560 0.999301 -0.011555
vn -0.035560 0.999301 -0.011555
vn -0.035560 0.999301 0.011555
vn -0.035560 0.999301 0.011555
vn -0.035560 0.999301 0.011555
vn -0.021977 0.999301 0.030249
vn -0.021977 0.999301 0.030249
vn -0.021977 0.999301 0.030249
vn 0.000000 0.999301 0.037390
vn 0.000000 0.999301 0.037390
vn 0.000000 0.999301 0.037390
vn 0.021977 0.999301 0.030249
vn 0.021977 0.999301 0.030249
vn 0.021977 0.999301 0.030249
vn 0.035560 0.999301 0.011555
vn 0.035560 0.999301 0.011555
vn 0.035560 0.999301 0.011555
vn 0.035560 0.999301 -0.011555
vn 0.035560 0.999301 -0.011555
vn 0.035560 0.999301 -0.011555
vn 0.587786 0.000000 -0.809017
vn 0.587786 0.000000 -0.809017
vn 0.587786 0.000000 -0.809017
vn 0.587786 0.000000 -0.809017
vn -0.000001 0.000000 -1.000000
vn -0.000001 0.000000 -1.000000
vn -0.000001 0.000000 -1.000000
vn -0.000001 0.000000 -1.000000
vn -0.587785 0.000000 -0.809017
vn -0.587785 0.000000 -0.809017
vn -0.587785 0.000000 -0.809017
vn -0.587785 0.000000 -0.809017
vn -0.951056 0.000000 -0.309017
vn -0.951056 0.000000 -0.309017
vn -0.951056 0.000000 -0.309017
vn -0.951056 0.000000 -0.309017
vn -0.951056 0.000000 0.309017
vn -0.951056 0.000000 0.309017
vn -0.951056 0.000000 0.309017
vn -0.951056 0.000000 0.309017
vn -0.587785 0.000000 0.809017
vn -0.587785 0.000000 0.809017
vn -0.587785 0.000000 0.809017
vn -0.587785 0.000000 0.809017
vn 0.000000 0.000000 1.000000
vn 0.000000 0.000000 1.000000
vn 0.000000 0.000000 1.000000
vn 0.000000 0.000000 1.000000
vn 0.587785 0.000000 0.809017
vn 0.587785 0.000000 0.809017
vn 0.587785 0.000000 0.809017
vn 0.587785 0.000000 0.809017
vn 0.951057 0.000000 0.309017
vn 0.951057 0.000000 0.309017
vn 0.951057 0.000000 0.309017
vn 0.951057 0.000000 0.309017
vn 0.951056 0.000000 -0.309017
vn 0.951056 0.000000 -0.309017
vn 0.951056 0.000000 -0.309017
vn 0.951056 0.000000 -0.309017
vn 0.587785 0.000000 -0.809017
vn 0.587785 0.000000 -0.809017
vn 0.587785 0.000000 -0.809017
vn 0.587785 0.000000 -0.809017
vn -0.000001 0.000000 -1.000000
vn -0.000001 0.000000 -1.000000
vn -0.000001 0.000000 -1.000000
vn -0.000001 0.000000 -1.000000
vn -0.587786 0.000000 -0.809017
vn -0.587786 0.000000 -0.809017
vn -0.587786 0.000000 -0.809017
vn -0.587786 0.000000 -0.809017
vn -0.999410 0.000000 -0.034351
vn -0.999410 0.000000 -0.034351
vn -0.999410 0.000000 -0.034351
vn -0.999410 0.000000 -0.034351
vn -0.999410 0.000000 0.034351
vn -0.999410 0.000000 0.034351
vn -0.999410 0.000000 0.034351
vn -0.999410 0.000000 0.034351
vn -0.587785 0.000000 0.809017
vn -0.587785 0.000000 0.809017
vn -0.587785 0.000000 0.809017
vn -0.587785 0.000000 0.809017
vn 0.000000 0.000000 1.000000
vn 0.000000 0.000000 1.000000
vn 0.000000 0.000000 1.000000
vn 0.000000 0.000000 1.000000
vn 0.587785 0.000000 0.809017
vn 0.587785 0.000000 0.809017
vn 0.587785 0.000000 0.809017
vn 0.587785 0.000000 0.809017
vn 0.999995 0.000000 -0.003157
vn 0.999995 0.000000 -0.003157
vn 0.999995 0.000000 -0.003157
vn 0.999995 0.000000 -0.003157
vn 0.999995 0.000000 0.003157
vn 0.999995 0.000000 0.003157
vn 0.999995 0.000000 0.003157
vn 0.999995 0.000000 0.003157
vn -0.202670 -0.938675 0.278951
vn -0.202670 -0.938675 0.278951
vn -0.202670 -0.938675 0.278951
vn -0.202670 -0.938675 0.278951
vn 0.000000 -0.938675 0.344802
vn 0.000000 -0.938675 0.344802
vn 0.000000 -0.938675 0.344802
vn 0.000000 -0.938675 0.344802
vn 0.202670 -0.938675 0.278951
vn 0.202670 -0.938675 0.278951
vn 0.202670 -0.938675 0.278951
vn 0.202670 -0.938675 0.278951
vn 0.327927 -0.938675 0.106550
vn 0.327926 -0.938675 0.106550
vn 0.327927 -0.938675 0.106550
vn 0.327927 -0.938675 0.106550
vn 0.327926 -0.938675 -0.106549
vn 0.327926 -0.938675 -0.106549
vn 0.327926 -0.938675 -0.106549
vn 0.327926 -0.938675 -0.106549
vn 0.202670 -0.938675 -0.278951
vn 0.202670 -0.938675 -0.278951
vn 0.202670 -0.938675 -0.278951
vn 0.202670 -0.938675 -0.278951
vn 0.000000 -0.938675 -0.344802
vn 0.000000 -0.938675 -0.344802
vn 0.000000 -0.938675 -0.344802
vn 0.000000 -0.938675 -0.344802
vn -0.202670 -0.938675 -0.278951
vn -0.202670 -0.938675 -0.278951
vn -0.202670 -0.938675 -0.278951
vn -0.202670 -0.938675 -0.278951
vn -0.327926 -0.938675 -0.106550
vn -0.327927 -0.938675 -0.106550
vn -0.327927 -0.938675 -0.106550
vn -0.327927 -0.938675 -0.106550
vn -0.327927 -0.938675 0.106549
vn -0.327926 -0.938675 0.106549
vn -0.327926 -0.938675 0.106549
vn -0.327927 -0.938675 0.106549
vn 0.029746 -0.999536 0.006507
vn 0.029746 -0.999536 0.006507
vn 0.029746 -0.999536 0.006507
vn 0.029746 -0.999536 0.006507
vn -0.432461 0.896677 -0.094591
vn -0.432461 0.896677 -0.094591
vn -0.432461 0.896678 -0.094591
vn -0.432461 0.896677 -0.094591
vn -0.371324 0.000000 -0.928503
vn -0.371324 0.000000 -0.928503
vn -0.371324 0.000000 -0.928503
vn -0.371324 0.000000 -0.928503
vn 0.029746 -0.999536 -0.006507
vn 0.029746 -0.999536 -0.006507
vn 0.029746 -0.999536 -0.006507
vn 0.029746 -0.999536 -0.006507
vn -0.371324 0.000000 0.928503
vn -0.371324 0.000000 0.928504
vn -0.371324 0.000000 0.928503
vn -0.371324 0.000000 0.928503
vn -0.432461 0.896677 0.094591
vn -0.432461 0.896677 0.094591
vn -0.432461 0.896677 0.094591
vn -0.432461 0.896677 0.094591
vn 0.000000 -1.000000 0.000000
vn 0.000000 -1.000000 0.000000
vn 0.000000 -1.000000 0.000000
vn 0.000000 -1.000000 0.000000
vn 0.000000 1.000000 0.000000
vn 0.000000 1.000000 0.000000
vn 0.000000 1.000000 0.000000
vn 0.000000 1.000000 0.000000
vn 0.000000 0.000000 1.000000
vn 0.000000 0.000000 1.000000
vn 0.000000 0.000000 1.000000
vn 0.000000 0.000000 1.000000
vn 0.000000 -1.000000 -0.000000
vn 0.000000 -1.000000 -0.000000
vn 0.000000 -1.000000 -0.000000
vn 0.000000 -1.000000 -0.000000
vn 0.000000 0.000000 -1.000000
vn 0.000000 0.000000 -1.000000
vn 0.000000 0.000000 -1.000000
vn 0.000000 0.000000 -1.000000
vn 0.000000 1.000000 0.000000
vn 0.000000 1.000000 0.000000
vn 0.000000 1.000000 0.000000
vn 0.000000 1.000000 0.000000
vn 0.000000 -1.000000 0.000000
vn 0.000000 -1.000000 0.000000
vn 0.000000 -1.000000 0.000000
vn 0.000000 -1.000000 0.000000
vn -1.000000 0.000000 0.000000
vn -1.000000 0.000000 0.000000
vn -1.000000 0.000000 0.000000
vn -1.000000 0.000000 0.000000
vn 0.000000 1.000000 0.000000
vn 0.000000 1.000000 0.000000
vn 0.000000 1.000000 0.000000
vn 0.000000 1.000000 0.000000
vn 1.000000 0.000000 0.000000
vn 1.000000 0.000000 0.000000
vn 1.000000 0.000000 0.000000
vn 1.000000 0.000000 0.000000
vn 0.000000 -1.000000 0.000000
vn 0.000000 -1.000000 0.000000
vn 0.000000 -1.000000 0.000000
vn 0.000000 -1.000000 0.000000
vn 1.000000 0.000000 0.000000
vn 1.000000 0.000000 0.000000
vn 1.000000 0.000000 0.000000
vn 1.000000 0.000000 0.000000
vn 0.000000 1.000000 0.000000
vn 0.000000 1.000000 0.000000
vn 0.000000 1.000000 0.000000
vn 0.000000 1.000000 0.000000
vn -1.000000 0.000000 0.000000
vn -1.000000 0.000000 0.000000
vn -1.000000 0.000000 0.000000
vn -1.000000 0.000000 0.000000
vn 0.000000 0.000000 1.000000
vn 0.000000 0.000000 1.000000
vn 0.000000 0.000000 1.000000
vn 0.000000 0.000000 1.000000
vn -0.000001 0.000000 1.000000
vn -0.000001 0.000000 1.000000
vn -0.000001 0.000000 1.000000
vn -0.000001 0.000000 1.000000
vn 0.000000 0.000000 1.000000
vn 0.000000 0.000000 1.000000
vn 0.000000 0.000000 1.000000
vn 0.000000 0.000000 1.000000
vn 0.000001 0.000000 1.000000
vn 0.000001 0.000000 1.000000
vn 0.000001 0.000000 1.000000
vn 0.000001 0.000000 1.000000
vn 0.000000 1.000000 0.000000
vn 0.000000 1.000000 0.000000
vn 0.000000 1.000000 0.000000
vn 0.000000 1.000000 0.000000
vn -1.000000 0.000000 0.000000
vn -1.000000 0.000000 0.000000
vn -1.000000 0.000000 0.000000
vn -1.000000 0.000000 0.000000
vn 0.000000 -1.000000 0.000000
vn 0.000000 -1.000000 0.000000
vn 0.000000 -1.000000 0.000000
vn 0.000000 -1.000000 0.000000
vn 1.000000 0.000000 0.000000
vn 1.000000 0.000000 0.000000
vn 1.000000 0.000000 0.000000
vn 1.000000 0.000000 0.000000
vn -0.000000 0.000000 -1.000000
vn -0.000000 0.000000 -1.000000
vn -0.000000 0.000000 -1.000000
vn -0.000000 0.000000 -1.000000
vn -0.000000 0.000000 -1.000000
vn -0.000000 0.000000 -1.000000
vn -0.000000 0.000000 -1.000000
vn -0.000000 0.000000 -1.000000
vn -0.000000 0.000000 -1.000000
vn -0.000000 0.000000 -1.000000
vn -0.000000 0.000000 -1.000000
vn -0.000000 0.000000 -1.000000
vn -0.000000 0.000000 -1.000000
vn -0.000000 0.000000 -1.000000
vn -0.000000 0.000000 -1.000000
vn -0.000000 0.000000 -1.000000
vn 0.000000 1.000000 0.000000
vn 0.000000 1.000000 0.000000
vn 0.000000 1.000000 0.000000
vn 0.000000 1.000000 0.000000
vn 1.000000 0.000000 0.000000
vn 1.000000 0.000000 0.000000
vn 1.000000 0.000000 0.000000
vn 1.000000 0.000000 0.000000
vn 0.000000 -1.000000 0.000000
vn 0.000000 -1.000000 0.000000
vn 0.000000 -1.000000 0.000000
vn 0.000000 -1.000000 0.000000
vn -1.000000 0.000000 0.000000
vn -1.000000 0.000000 0.000000
vn -1.000000 0.000000 0.000000
vn -1.000000 0.000000 0.000000
vn 0.999989 -0.003436 -0.003156
vn 0.999989 -0.003436 -0.003156
vn 0.999989 -0.003436 -0.003156
vn 0.999989 -0.003436 -0.003156
vn 0.999989 0.003435 -0.003157
vn 0.999989 0.003435 -0.003157
vn 0.999989 0.003435 -0.003157
vn 0.999989 0.003435 -0.003157
vn 0.999999 0.000000 -0.001578
vn 0.999999 0.000000 -0.001578
vn 0.999999 0.000000 -0.001578
vn 0.999999 0.000000 -0.001578
vn 0.999989 -0.003435 0.003156
vn 0.999989 -0.003435 0.003156
vn 0.999989 -0.003435 0.003156
vn 0.999989 -0.003435 0.003156
vn 0.999999 0.000000 0.001578
vn 0.999999 0.000000 0.001578
vn 0.999999 0.000000 0.001578
vn 0.999999 0.000000 0.001578
vn 0.999989 0.003434 0.003157
vn 0.999989 0.003434 0.003157
vn 0.999989 0.003434 0.003157
vn 0.999989 0.003434 0.003157
vn 0.000000 1.000000 0.000000
vn 0.000000 1.000000 0.000000
vn 0.000000 1.000000 0.000000
vn 0.000000 1.000000 0.000000
vn 0.000000 -1.000000 0.000000
vn 0.000000 -1.000000 0.000000
vn 0.000000 -1.000000 0.000000
vn 0.000000 -1.000000 0.000000
vn 0.000000 0.000000 -1.000000
vn 0.000000 0.000000 -1.000000
vn 0.000000 0.000000 -1.000000
vn 0.000000 0.000000 -1.000000
vn 0.000000 1.000000 0.000000
vn 0.000000 1.000000 0.000000
vn 0.000000 1.000000 0.000000
vn 0.000000 1.000000 0.000000
vn 0.000000 0.000000 1.000000
vn 0.000000 0.000000 1.000000
vn 0.000000 0.000000 1.000000
vn 0.000000 0.000000 1.000000
vn 0.000000 -1.000000 0.000000
vn 0.000000 -1.000000 0.000000
vn 0.000000 -1.000000 0.000000
vn 0.000000 -1.000000 0.000000
vn 0.000000 -1.000000 0.000000
vn 0.000000 -1.000000 0.000000
vn 0.000000 -1.000000 0.000000
vn 0.000000 -1.000000 0.000000
vn 0.000000 -1.000000 0.000000
vn 0.000000 -1.000000 0.000000
vn 0.000000 -1.000000 0.000000
vn 0.000000 -1.000000 0.000000
vn 0.000000 -1.000000 0.000000
vn 0.000000 -1.000000 0.000000
s off
g polySurface2 pSphere1
usemtl lambert3SG
f 21/85/1 22/86/2 23/87/3
f 22/86/4 24/88/5 23/87/6
f 24/88/7 25/92/8 23/87/9
f 25/92/10 26/96/11 23/87/12
f 26/96/13 27/101/14 23/87/15
f 27/101/16 28/102/17 23/87/18
f 28/102/19 29/98/20 23/87/21
f 29/98/22 30/95/23 23/87/24
f 30/95/25 31/89/26 23/87/27
f 31/89/28 21/85/29 23/87/30
f 1/15/31 2/19/32 12/20/33 11/16/34
f 2/174/35 3/175/36 13/176/37 12/177/38
f 3/7/39 4/1/40 14/4/41 13/8/42
f 4/1/43 5/2/44 15/3/45 14/4/46
f 5/2/47 6/5/48 16/6/49 15/3/50
f 6/5/51 7/9/52 17/10/53 16/6/54
f 7/178/55 8/179/56 18/180/57 17/181/58
f 8/17/59 9/11/60 19/14/61 18/18/62
f 9/11/63 10/12/64 20/13/65 19/14/66
f 10/12/67 1/15/68 11/16/69 20/13/70
f 32/43/71 33/40/72 22/39/73 21/44/74
f 74/182/75 75/183/76 76/184/77 77/185/78
f 34/33/79 35/37/80 25/38/81 24/34/82
f 42/21/83 43/22/84 44/23/85 45/24/86
f 43/22/87 46/25/88 47/26/89 44/23/90
f 37/55/91 38/52/92 28/51/93 27/56/94
f 66/186/95 67/187/96 68/188/97 69/189/98
f 39/45/99 40/49/100 30/50/101 29/46/102
f 84/27/103 85/28/104 86/29/105 87/30/106
f 85/28/107 88/31/108 89/32/109 86/29/110
f 11/106/111 12/107/112 33/108/113 32/109/114
f 12/107/115 13/110/116 34/111/117 33/108/118
f 13/110/119 14/114/120 35/115/121 34/111/122
f 14/114/123 15/122/124 36/123/125 35/115/126
f 15/122/127 16/127/128 37/128/129 36/123/130
f 16/127/131 17/131/132 38/132/133 37/128/134
f 17/131/135 18/125/136 39/126/137 38/132/138
f 18/125/139 19/120/140 40/121/141 39/126/142
f 19/120/143 20/112/144 41/113/145 40/121/146
f 20/112/147 11/106/148 32/109/149 41/113/150
f 35/115/151 36/123/152 43/129/153 42/130/154
f 26/96/155 25/92/156 45/99/157 44/100/158
f 25/190/159 35/191/160 42/192/161 45/193/162
f 36/123/163 37/128/164 46/133/165 43/129/166
f 37/194/167 27/195/168 47/196/169 46/197/170
f 27/101/171 26/96/172 44/100/173 47/103/174
f 40/121/175 41/113/176 49/119/177 48/124/178
f 31/89/179 30/95/180 51/97/181 50/93/182
f 30/198/183 40/199/184 48/200/185 51/201/186
f 41/113/187 32/109/188 52/118/189 49/119/190
f 32/202/191 21/203/192 53/204/193 52/205/194
f 21/85/195 31/89/196 50/93/197 53/94/198
f 33/108/199 34/111/200 55/116/201 54/117/202
f 34/33/203 24/34/204 56/35/205 55/36/206
f 24/88/207 22/86/208 57/90/209 56/91/210
f 22/39/211 33/40/212 54/41/213 57/42/214
f 38/132/215 39/126/216 59/134/217 58/135/218
f 39/45/219 29/46/220 60/47/221 59/48/222
f 29/98/223 28/102/224 61/104/225 60/105/226
f 28/51/227 38/52/228 58/53/229 61/54/230
f 58/206/231 59/207/232 63/208/233 62/209/234
f 59/207/235 60/210/236 64/211/237 63/208/238
f 60/210/239 61/212/240 65/213/241 64/211/242
f 61/212/243 58/206/244 62/209/245 65/213/246
f 62/136/247 63/137/248 67/138/249 66/139/250
f 63/57/251 64/58/252 68/59/253 67/60/254
f 64/140/255 65/141/256 69/142/257 68/143/258
f 65/61/259 62/62/260 66/63/261 69/64/262
f 54/214/263 55/215/264 71/216/265 70/217/266
f 55/215/267 56/218/268 72/219/269 71/216/270
f 56/218/271 57/220/272 73/221/273 72/219/274
f 57/220/275 54/214/276 70/217/277 73/221/278
f 70/144/279 71/145/280 75/146/281 74/147/282
f 71/65/283 72/66/284 76/67/285 75/68/286
f 72/148/287 73/149/288 77/150/289 76/151/290
f 73/69/291 70/70/292 74/71/293 77/72/294
f 48/73/295 49/74/296 79/75/297 78/76/298
f 50/83/299 51/79/300 81/80/301 80/84/302
f 51/79/303 48/73/304 78/76/305 81/80/306
f 49/74/307 52/77/308 82/78/309 79/75/310
f 52/77/311 53/81/312 83/82/313 82/78/314
f 53/81/315 50/83/316 80/84/317 83/82/318
f 78/152/319 79/153/320 85/154/321 84/155/322
f 80/158/323 81/159/324 87/160/325 86/161/326
f 81/222/327 78/223/328 84/224/329 87/225/330
f 79/153/331 82/156/332 88/157/333 85/154/334
f 82/226/335 83/227/336 89/228/337 88/229/338
f 83/162/339 80/158/340 86/161/341 89/163/342
f 2/164/343 1/165/344 10/166/345 9/167/346 8/168/347 7/169/348 6/170/349 5/171/350 4/172/351 3/173/352
