# This file uses centimeters as units for non-parametric coordinates.

mtllib wall_door_closed.mtl
g default
v -0.269997 -0.018545 2.828901
v 0.269997 -0.018545 2.828901
v -0.130198 3.632070 2.828901
v 0.130198 3.632070 2.828901
v -0.130198 3.632070 -2.827241
v 0.130198 3.632070 -2.827241
v -0.269997 -0.018545 -2.827241
v 0.269997 -0.018545 -2.827241
v 0.269997 2.595464 -2.707178
v 0.269997 2.595464 2.708838
v 0.130198 3.443088 -2.707178
v 0.130198 3.443088 2.708838
v -0.269997 2.595464 2.708838
v -0.269997 2.595464 -2.707178
v -0.130198 3.443088 2.708838
v -0.130198 3.443088 -2.707178
v 0.163898 -0.013532 -2.277319
v 0.163898 -0.013532 2.278979
v 0.163898 2.195729 -2.180602
v 0.163898 2.195729 2.182262
v -0.163898 -0.013532 2.278979
v -0.163898 -0.013532 -2.277319
v -0.163898 2.195729 2.182262
v -0.163898 2.195729 -2.180602
v 0.163898 2.195729 0.000830
v 0.079035 -0.013532 0.000830
v -0.163898 2.195729 0.000830
v -0.079035 -0.013532 0.000830
v 0.039109 2.094419 0.000830
v 0.039109 -0.016420 0.000830
v 0.039109 -0.016420 -2.167542
v 0.039109 2.094419 -2.075486
v 0.039109 -0.016420 2.169202
v 0.039109 2.094419 2.077146
v -0.039109 2.094419 0.000830
v -0.039109 -0.016420 0.000830
v -0.039109 -0.016420 2.169202
v -0.039109 2.094419 2.077146
v -0.039109 -0.016420 -2.167542
v -0.039109 2.094419 -2.075486
v 0.130198 2.595464 -1.949633
v 0.130198 2.595464 1.951293
v 0.130198 3.443088 -1.949633
v 0.130198 3.443088 1.951293
v -0.130198 2.595464 1.951293
v -0.130198 2.595464 -1.949633
v -0.130198 3.443088 1.951293
v -0.130198 3.443088 -1.949633
v 0.251412 2.642493 -1.727404
v 0.251412 2.642493 1.729065
v 0.251412 3.396060 -1.727404
v 0.251412 3.396060 1.729065
v -0.251411 2.642493 1.729065
v -0.251411 2.642493 -1.727404
v -0.251411 3.396060 1.729065
v -0.251411 3.396060 -1.727404
v -0.039109 2.094419 0.003612
v -0.039109 -0.016420 0.003736
v -0.039109 2.094419 -0.001456
v -0.039109 -0.016420 -0.001562
v 0.039109 -0.016420 -0.001759
v 0.039109 2.094419 -0.001173
v 0.039109 2.094419 0.003404
v 0.039109 -0.016420 0.003514
vt 0.907918 0.544524
vt 0.961626 0.544524
vt 0.947721 0.907612
vt 0.921823 0.907612
vt 0.001992 0.001859
vt 0.027891 0.001859
vt 0.027891 0.564416
vt 0.001992 0.564416
vt 0.861980 0.568407
vt 0.887879 0.568407
vt 0.901783 0.931495
vt 0.848075 0.931495
vt 0.035319 0.001859
vt 0.089027 0.001859
vt 0.089027 0.564416
vt 0.035319 0.564416
vt 0.360402 0.455026
vt 0.360402 0.111248
vt 0.435351 0.111248
vt 0.435351 0.455026
vt 0.730703 0.455027
vt 0.730703 0.111248
vt 0.805652 0.111248
vt 0.805652 0.455027
vt 0.095737 0.001859
vt 0.458824 0.001859
vt 0.440028 0.013801
vt 0.355724 0.013801
vt 0.458824 0.564416
vt 0.440028 0.552474
vt 0.095737 0.564416
vt 0.355724 0.552474
vt 0.676192 0.282861
vt 0.466249 0.282848
vt 0.466249 0.067473
vt 0.676192 0.076628
vt 0.466038 0.001859
vt 0.829125 0.001859
vt 0.810329 0.013801
vt 0.726025 0.013801
vt 0.829125 0.564416
vt 0.810329 0.552474
vt 0.466038 0.564416
vt 0.726025 0.552474
vt 0.859303 0.001859
vt 0.859303 0.564416
vt 0.848750 0.509721
vt 0.840310 0.283137
vt 0.848750 0.056554
vt 0.315967 0.066174
vt 0.096235 0.056554
vt 0.315967 0.500101
vt 0.315967 0.283137
vt 0.096235 0.509721
vt 0.865573 0.564416
vt 0.865573 0.001859
vt 0.876125 0.056554
vt 0.884566 0.283137
vt 0.876125 0.509721
vt 0.686268 0.066174
vt 0.466536 0.056554
vt 0.686268 0.500101
vt 0.686268 0.283137
vt 0.466536 0.509721
vt 0.836339 0.498802
vt 0.836339 0.283395
vt 0.836339 0.283137
vt 0.305891 0.076628
vt 0.095948 0.067472
vt 0.305891 0.283137
vt 0.305891 0.282938
vt 0.836339 0.282870
vt 0.836339 0.067473
vt 0.305891 0.489646
vt 0.305891 0.283393
vt 0.095948 0.498802
vt 0.888537 0.067473
vt 0.888537 0.282848
vt 0.888537 0.283137
vt 0.676192 0.283137
vt 0.888537 0.283375
vt 0.888537 0.498802
vt 0.676192 0.489646
vt 0.676192 0.283365
vt 0.466249 0.498802
vt 0.908711 0.001859
vt 0.908711 0.540533
vt 0.894807 0.465188
vt 0.894807 0.077204
vt 0.440028 0.089146
vt 0.355724 0.089146
vt 0.916246 0.001859
vt 0.916246 0.540533
vt 0.916246 0.465188
vt 0.916246 0.077204
vt 0.355724 0.477129
vt 0.440028 0.477129
vt 0.924041 0.540533
vt 0.924041 0.001859
vt 0.937946 0.077204
vt 0.937946 0.465188
vt 0.810329 0.089146
vt 0.726025 0.089146
vt 0.945480 0.540533
vt 0.945480 0.001859
vt 0.945480 0.077204
vt 0.945480 0.465188
vt 0.726025 0.477129
vt 0.810329 0.477129
vt 0.953276 0.389843
vt 0.953276 0.001859
vt 0.965331 0.023962
vt 0.965331 0.367740
vt 0.972765 0.389843
vt 0.972765 0.001859
vt 0.984821 0.023962
vt 0.984821 0.367740
vt 0.998008 0.393834
vt 0.998008 0.781818
vt 0.985952 0.759715
vt 0.985952 0.415937
vt 0.979817 0.393834
vt 0.979817 0.781818
vt 0.967761 0.759715
vt 0.967761 0.415937
vt 0.466249 0.283375
vt 0.095948 0.282880
vt 0.095948 0.283404
vt 0.834161 0.778350
vt 0.834161 0.568407
vt 0.841940 0.568407
vt 0.841940 0.778350
vt 0.820246 0.778350
vt 0.820246 0.568407
vt 0.828025 0.568407
vt 0.828025 0.778350
vn 0.000000 0.000000 1.000000
vn 0.000000 0.000000 1.000000
vn 0.000000 0.000000 1.000000
vn 0.000000 0.000000 1.000000
vn 0.000000 1.000000 0.000000
vn 0.000000 1.000000 0.000000
vn 0.000000 1.000000 0.000000
vn 0.000000 1.000000 0.000000
vn 0.000000 0.000000 -1.000000
vn 0.000000 0.000000 -1.000000
vn 0.000000 0.000000 -1.000000
vn 0.000000 0.000000 -1.000000
vn 0.000000 -1.000000 0.000000
vn 0.000000 -1.000000 0.000000
vn 0.000000 -1.000000 0.000000
vn 0.000000 -1.000000 0.000000
vn 1.000000 0.000000 0.000000
vn 1.000000 0.000000 0.000000
vn 1.000000 0.000000 0.000000
vn 1.000000 0.000000 0.000000
vn -1.000000 0.000000 0.000000
vn -1.000000 0.000000 0.000000
vn -1.000000 0.000000 0.000000
vn -1.000000 0.000000 0.000000
vn 0.845788 0.052572 -0.530922
vn 0.845788 0.052572 -0.530922
vn 0.845788 0.052572 -0.530922
vn 0.845788 0.052572 -0.530922
vn 1.000000 0.000000 0.000000
vn 1.000000 0.000000 0.000000
vn 1.000000 0.000000 0.000000
vn 1.000000 0.000000 0.000000
vn 0.845788 0.052572 0.530922
vn 0.845788 0.052572 0.530922
vn 0.845788 0.052572 0.530922
vn 0.845788 0.052572 0.530922
vn -1.000000 0.000000 0.000000
vn -1.000000 0.000000 0.000000
vn -1.000000 0.000000 0.000000
vn -1.000000 0.000000 0.000000
vn -0.845789 0.052572 0.530922
vn -0.845789 0.052572 0.530922
vn -0.845789 0.052572 0.530922
vn -0.845789 0.052572 0.530922
vn -1.000000 0.000000 0.000000
vn -1.000000 0.000000 0.000000
vn -1.000000 0.000000 0.000000
vn -1.000000 0.000000 0.000000
vn -0.845788 0.052572 -0.530922
vn -0.845788 0.052572 -0.530922
vn -0.845788 0.052572 -0.530922
vn -0.845788 0.052572 -0.530922
vn 0.034803 0.999394 0.000000
vn 0.034803 0.999394 0.000000
vn 0.034803 0.999394 0.000000
vn 0.034803 0.999394 0.000000
vn 0.034803 0.999394 0.000000
vn 0.981675 -0.008556 0.190370
vn 0.981675 -0.008556 0.190370
vn 0.981675 -0.008556 0.190370
vn 0.981675 -0.008556 0.190370
vn 0.966533 -0.256541 0.000000
vn 0.966533 -0.256541 0.000000
vn 0.966533 -0.256541 0.000000
vn 0.966533 -0.256541 0.000000
vn 0.966533 -0.256541 0.000000
vn 0.981675 -0.008556 -0.190370
vn 0.981675 -0.008556 -0.190370
vn 0.981675 -0.008556 -0.190370
vn 0.981675 -0.008556 -0.190370
vn -0.034803 0.999394 -0.000000
vn -0.034803 0.999394 -0.000000
vn -0.034803 0.999394 -0.000000
vn -0.034803 0.999394 -0.000000
vn -0.034803 0.999394 -0.000000
vn -0.981675 -0.008556 -0.190370
vn -0.981675 -0.008556 -0.190370
vn -0.981675 -0.008556 -0.190370
vn -0.981675 -0.008556 -0.190370
vn -0.966533 -0.256541 0.000000
vn -0.966533 -0.256541 0.000000
vn -0.966533 -0.256541 0.000000
vn -0.966533 -0.256541 0.000000
vn -0.966533 -0.256541 0.000000
vn -0.981675 -0.008556 0.190370
vn -0.981675 -0.008556 0.190370
vn -0.981675 -0.008556 0.190370
vn -0.981675 -0.008556 0.190370
vn -0.035502 0.999369 -0.000678
vn -0.035502 0.999369 -0.000678
vn -0.035502 0.999369 -0.000678
vn -0.035502 0.999369 -0.000678
vn -0.035502 0.999369 -0.000678
vn 0.659964 -0.032798 0.750581
vn 0.659964 -0.032798 0.750581
vn 0.659964 -0.032798 0.750581
vn 0.659964 -0.032798 0.750581
vn 0.630290 -0.776360 0.000000
vn 0.630290 -0.776360 0.000000
vn 0.630290 -0.776360 0.000000
vn 0.630290 -0.776360 0.000000
vn 0.630290 -0.776360 0.000000
vn -0.035502 0.999369 0.000678
vn -0.035502 0.999369 0.000678
vn -0.035502 0.999369 0.000678
vn -0.035502 0.999369 0.000678
vn -0.035502 0.999369 0.000678
vn 0.630290 -0.776360 0.000000
vn 0.630290 -0.776360 0.000000
vn 0.630290 -0.776360 0.000000
vn 0.630290 -0.776360 0.000000
vn 0.630290 -0.776360 0.000000
vn 0.659965 -0.032798 -0.750580
vn 0.659965 -0.032798 -0.750580
vn 0.659965 -0.032798 -0.750580
vn 0.659965 -0.032798 -0.750580
vn 0.035502 0.999369 0.000678
vn 0.035502 0.999369 0.000678
vn 0.035502 0.999369 0.000678
vn 0.035502 0.999369 0.000678
vn 0.035502 0.999369 0.000678
vn -0.659965 -0.032798 -0.750580
vn -0.659965 -0.032798 -0.750580
vn -0.659965 -0.032798 -0.750580
vn -0.659965 -0.032798 -0.750580
vn -0.630290 -0.776360 0.000000
vn -0.630290 -0.776360 0.000000
vn -0.630290 -0.776360 0.000000
vn -0.630290 -0.776360 0.000000
vn -0.630290 -0.776360 0.000000
vn 0.035502 0.999369 -0.000678
vn 0.035502 0.999369 -0.000678
vn 0.035502 0.999369 -0.000678
vn 0.035502 0.999369 -0.000678
vn 0.035502 0.999369 -0.000678
vn -0.630289 -0.776360 0.000000
vn -0.630289 -0.776360 0.000000
vn -0.630289 -0.776360 0.000000
vn -0.630289 -0.776360 0.000000
vn -0.630289 -0.776360 0.000000
vn -0.659964 -0.032798 0.750581
vn -0.659964 -0.032798 0.750581
vn -0.659964 -0.032798 0.750581
vn -0.659964 -0.032798 0.750581
vn 0.000000 1.000000 0.000000
vn 0.000000 1.000000 0.000000
vn 0.000000 1.000000 0.000000
vn 0.000000 1.000000 0.000000
vn 0.992430 0.081841 0.091573
vn 0.992430 0.081841 0.091573
vn 0.992430 0.081841 0.091573
vn 0.992430 0.081841 0.091573
vn 0.000000 -0.000000 0.000000
vn 0.000000 -0.000000 0.000000
vn 0.000000 -1.000000 0.000000
vn 0.000000 -1.000000 0.000000
vn 0.992430 0.081841 -0.091573
vn 0.992430 0.081841 -0.091573
vn 0.992430 0.081841 -0.091573
vn 0.992430 0.081841 -0.091573
vn 0.000000 1.000000 0.000000
vn 0.000000 1.000000 0.000000
vn 0.000000 1.000000 0.000000
vn 0.000000 1.000000 0.000000
vn -0.992430 0.081841 -0.091573
vn -0.992430 0.081841 -0.091573
vn -0.992430 0.081841 -0.091573
vn -0.992430 0.081841 -0.091573
vn 0.000000 -0.000000 0.000000
vn 0.000000 -0.000000 0.000000
vn 0.000000 -1.000000 0.000000
vn 0.000000 -1.000000 0.000000
vn -0.992430 0.081841 0.091573
vn -0.992430 0.081841 0.091573
vn -0.992430 0.081841 0.091573
vn -0.992430 0.081841 0.091573
vn 0.361711 -0.932290 0.000000
vn 0.361711 -0.932290 0.000000
vn 0.361711 -0.932290 0.000000
vn 0.361711 -0.932290 0.000000
vn 0.877899 0.000000 -0.478846
vn 0.877899 0.000000 -0.478846
vn 0.877899 0.000000 -0.478846
vn 0.877899 0.000000 -0.478846
vn 0.361711 0.932290 0.000000
vn 0.361711 0.932290 0.000000
vn 0.361711 0.932290 0.000000
vn 0.361711 0.932290 0.000000
vn 0.877899 0.000000 0.478846
vn 0.877899 0.000000 0.478846
vn 0.877899 0.000000 0.478846
vn 0.877899 0.000000 0.478846
vn -0.361711 -0.932290 0.000000
vn -0.361711 -0.932290 0.000000
vn -0.361711 -0.932290 0.000000
vn -0.361711 -0.932290 0.000000
vn -0.877899 0.000000 0.478846
vn -0.877899 0.000000 0.478846
vn -0.877899 0.000000 0.478846
vn -0.877899 0.000000 0.478846
vn -0.361711 0.932290 0.000000
vn -0.361711 0.932290 0.000000
vn -0.361711 0.932290 0.000000
vn -0.361711 0.932290 0.000000
vn -0.877899 0.000000 -0.478846
vn -0.877899 0.000000 -0.478846
vn -0.877899 0.000000 -0.478846
vn -0.877899 0.000000 -0.478846
vn -1.000000 0.000000 -0.000000
vn -1.000000 0.000000 -0.000000
vn -1.000000 0.000000 -0.000000
vn -1.000000 0.000000 -0.000000
vn 1.000000 0.000000 0.000000
vn 1.000000 0.000000 0.000000
vn 1.000000 0.000000 0.000000
vn 1.000000 0.000000 0.000000
vn 1.000000 0.000000 0.000000
vn 1.000000 0.000000 0.000000
vn 1.000000 0.000000 0.000000
vn 1.000000 0.000000 0.000000
vn -0.002742 -0.000055 -0.999996
vn -0.002742 -0.000055 -0.999996
vn -0.002742 -0.000055 -0.999996
vn -0.002742 -0.000055 -0.999996
vn -0.000545 -0.000164 1.000000
vn -0.000545 -0.000164 1.000000
vn -0.000545 -0.000164 1.000000
vn -0.000545 -0.000164 1.000000
s off
g walldoorclosed2:pCube1
usemtl walldoorclosed2:lambert4SG
f 1/1/1 2/2/2 4/3/3 3/4/4
f 3/5/5 4/6/6 6/7/7 5/8/8
f 5/9/9 6/10/10 8/11/11 7/12/12
f 7/13/13 8/14/14 2/15/15 1/16/16
f 50/17/17 49/18/18 51/19/19 52/20/20
f 54/21/21 53/22/22 55/23/23 56/24/24
f 8/25/25 6/26/26 11/27/27 9/28/28
f 6/26/29 4/29/30 12/30/31 11/27/32
f 4/29/33 2/31/34 10/32/35 12/30/36
f 57/33/37 58/34/38 37/35/39 38/36/40
f 1/37/41 3/38/42 15/39/43 13/40/44
f 3/38/45 5/41/46 16/42/47 15/39/48
f 5/41/49 7/43/50 14/44/51 16/42/52
f 2/45/53 8/46/54 17/47/55 26/48/56 18/49/57
f 8/25/58 9/28/59 19/50/60 17/51/61
f 9/28/62 10/32/63 20/52/64 25/53/65 19/50/66
f 10/32/67 2/31/68 18/54/69 20/52/70
f 7/55/71 1/56/72 21/57/73 28/58/74 22/59/75
f 1/37/76 13/40/77 23/60/78 21/61/79
f 13/40/80 14/44/81 24/62/82 27/63/83 23/60/84
f 14/44/85 7/43/86 22/64/87 24/62/88
f 26/48/89 17/47/90 31/65/91 61/66/92 30/67/93
f 17/51/94 19/50/95 32/68/96 31/69/97
f 19/50/98 25/53/99 29/70/100 62/71/101 32/68/102
f 18/49/103 26/48/104 30/67/105 64/72/106 33/73/107
f 25/53/108 20/52/109 34/74/110 63/75/111 29/70/112
f 20/52/113 18/54/114 33/76/115 34/74/116
f 28/58/117 21/57/118 37/77/119 58/78/120 36/79/121
f 21/61/122 23/60/123 38/36/124 37/35/125
f 23/60/126 27/63/127 35/80/128 57/33/129 38/36/130
f 22/59/131 28/58/132 36/79/133 60/81/134 39/82/135
f 27/63/136 24/62/137 40/83/138 59/84/139 35/80/140
f 24/62/141 22/64/142 39/85/143 40/83/144
f 10/86/145 9/87/146 41/88/147 42/89/148
f 9/28/149 11/27/150 43/90/151 41/91/152
f 11/92/153 12/93/154 44/94/155 43/95/156
f 12/30/157 10/32/158 42/96/159 44/97/160
f 14/98/161 13/99/162 45/100/163 46/101/164
f 13/40/165 15/39/166 47/102/167 45/103/168
f 15/104/169 16/105/170 48/106/171 47/107/172
f 16/42/173 14/44/174 46/108/175 48/109/176
f 42/110/177 41/111/178 49/112/179 50/113/180
f 41/91/181 43/90/182 51/19/183 49/18/184
f 43/114/185 44/115/186 52/116/187 51/117/188
f 44/97/189 42/96/190 50/17/191 52/20/192
f 46/118/193 45/119/194 53/120/195 54/121/196
f 45/103/197 47/102/198 55/23/199 53/22/200
f 47/122/201 48/123/202 56/124/203 55/125/204
f 48/109/205 46/108/206 54/21/207 56/24/208
f 39/85/209 60/126/210 59/84/211 40/83/212
f 62/71/213 61/127/214 31/69/215 32/68/216
f 33/76/217 64/128/218 63/75/219 34/74/220
f 58/129/221 57/130/222 63/131/223 64/132/224
f 59/133/225 60/134/226 61/135/227 62/136/228
