# This file uses centimeters as units for non-parametric coordinates.

mtllib door1.mtl
g default
v -0.041214 -0.009585 2.294682
v 0.041214 -0.009585 2.294682
v -0.041214 2.105766 2.294682
v 0.041214 2.105766 2.294682
v -0.041214 2.105766 -0.008947
v 0.041214 2.105766 -0.008947
v -0.041214 -0.009585 -0.008947
v 0.041214 -0.009585 -0.008947
vt 0.001882 0.998008
vt 0.001882 0.668516
vt 0.313670 0.668516
vt 0.313670 0.998008
vt 0.320575 0.998008
vt 0.320575 0.668517
vt 0.632363 0.668517
vt 0.632363 0.998008
vt 0.320575 0.001992
vt 0.650066 0.001992
vt 0.650066 0.331484
vt 0.320575 0.331484
vt 0.295700 0.335254
vt 0.625191 0.335254
vt 0.625191 0.664746
vt 0.295700 0.664746
vt 0.001882 0.331484
vt 0.001882 0.001992
vt 0.313670 0.001992
vt 0.313670 0.331484
vt 0.630987 0.664746
vt 0.630987 0.335254
vt 0.942775 0.335254
vt 0.942775 0.664746
vn 0.000000 0.000000 1.000000
vn 0.000000 0.000000 1.000000
vn 0.000000 0.000000 1.000000
vn 0.000000 0.000000 1.000000
vn 0.000000 1.000000 0.000000
vn 0.000000 1.000000 0.000000
vn 0.000000 1.000000 0.000000
vn 0.000000 1.000000 0.000000
vn 0.000000 0.000000 -1.000000
vn 0.000000 0.000000 -1.000000
vn 0.000000 0.000000 -1.000000
vn 0.000000 0.000000 -1.000000
vn 0.000000 -1.000000 0.000000
vn 0.000000 -1.000000 0.000000
vn 0.000000 -1.000000 0.000000
vn 0.000000 -1.000000 0.000000
vn 1.000000 0.000000 0.000000
vn 1.000000 0.000000 0.000000
vn 1.000000 0.000000 0.000000
vn 1.000000 0.000000 0.000000
vn -1.000000 0.000000 0.000000
vn -1.000000 0.000000 0.000000
vn -1.000000 0.000000 0.000000
vn -1.000000 0.000000 0.000000
s off
g pasted__pCube1 group
usemtl pasted__lambert6SG
f 1/17/1 2/18/2 4/19/3 3/20/4
f 3/9/5 4/10/6 6/11/7 5/12/8
f 5/21/9 6/22/10 8/23/11 7/24/12
f 7/13/13 8/14/14 2/15/15 1/16/16
f 2/1/17 8/2/18 6/3/19 4/4/20
f 7/5/21 1/6/22 3/7/23 5/8/24
