# This file uses centimeters as units for non-parametric coordinates.

mtllib kabe2.mtl
g default
v -0.144922 -0.005409 2.816001
v 0.144922 -0.005409 2.816001
v -0.144922 0.005084 2.816001
v 0.144922 0.005084 2.816001
v -0.144922 0.395094 2.816001
v 0.144922 0.395094 2.816001
v -0.144922 2.178830 2.816001
v 0.144922 2.178830 2.816001
v -0.144922 2.906910 2.816001
v 0.144922 2.906910 2.816001
v -0.144922 3.634990 2.816001
v 0.144922 3.634990 2.816001
v -0.144922 3.634990 1.689601
v 0.144922 3.634990 1.689601
v -0.144922 3.634990 0.563200
v 0.144922 3.634990 0.563200
v -0.144922 3.634990 -0.563200
v 0.144922 3.634990 -0.563200
v -0.144922 3.634990 -1.689601
v 0.144922 3.634990 -1.689601
v -0.144922 3.634990 -2.816001
v 0.144922 3.634990 -2.816001
v -0.144922 2.906910 -2.816001
v 0.144922 2.906910 -2.816001
v -0.144922 2.178830 -2.816001
v 0.144922 2.178830 -2.816001
v -0.144922 0.395094 -2.816001
v 0.144922 0.395094 -2.816001
v -0.144922 0.005084 -2.816001
v 0.144922 0.005084 -2.816001
v -0.144922 -0.005409 -2.816001
v 0.144922 -0.005409 -2.816001
v -0.144922 -0.005409 -1.689601
v 0.144922 -0.005409 -1.689601
v -0.144922 -0.005409 -0.563200
v 0.144922 -0.005409 -0.563200
v -0.144922 -0.005409 0.563200
v 0.144922 -0.005409 0.563200
v -0.144922 -0.005409 1.689601
v 0.144922 -0.005409 1.689601
v 0.144922 0.221830 -1.689601
v 0.144922 0.221830 -0.563200
v 0.144922 0.221830 0.563200
v 0.144922 0.221830 1.689601
v 0.149249 0.336186 -2.778866
v 0.149249 0.336186 -0.816011
v 0.149249 0.336186 0.816010
v 0.149249 0.336186 2.778866
v 0.149249 2.178830 -2.778866
v 0.149249 2.178830 2.778866
v 0.149249 3.543151 -2.778866
v 0.149249 3.543151 -0.816011
v 0.149249 3.543151 0.816010
v 0.149249 3.543151 2.778866
v -0.144922 0.221830 -1.689601
v -0.144922 0.221830 -0.563200
v -0.144922 0.221830 0.563200
v -0.144922 0.221830 1.689601
v -0.149249 0.336186 -2.778866
v -0.149249 0.336186 -0.816011
v -0.149249 0.336186 0.816010
v -0.149249 0.336186 2.778866
v -0.149249 2.469775 -2.778866
v -0.149249 2.469775 2.778866
v -0.149249 3.524677 -2.778866
v -0.149249 3.524677 -0.816011
v -0.149249 3.524677 0.816010
v -0.149249 3.524677 2.778866
v 0.109471 0.409741 -2.641162
v 0.109471 0.409741 -0.616363
v 0.109471 2.548184 -2.641162
v 0.109471 0.409741 0.616363
v 0.109471 0.409741 2.641162
v 0.109471 2.548184 2.641162
v 0.109471 3.382492 -2.641162
v 0.109471 3.382492 -0.616363
v 0.109471 3.382492 0.616363
v 0.109471 3.382492 2.641162
v -0.109471 0.409741 -2.641162
v -0.109471 0.409741 -0.616363
v -0.109471 2.616943 -2.641162
v -0.109471 0.409741 0.616363
v -0.109471 0.409741 2.641162
v -0.109471 2.616943 2.641162
v -0.109471 3.413749 -0.616363
v -0.109471 3.413749 -2.641162
v -0.109471 3.413749 0.616363
v -0.109471 3.413749 2.641162
v 0.012523 0.427969 -2.444210
v 0.012523 0.427969 -0.814737
v 0.012523 1.919888 -2.444210
v 0.012523 1.919888 -0.814737
v 0.012523 0.427969 0.814737
v 0.012523 1.919888 0.814737
v 0.012523 0.427969 2.444210
v 0.012523 1.919888 2.444210
v 0.012523 3.345506 -2.444210
v 0.012523 3.345506 -0.814737
v 0.012523 3.345506 0.814737
v 0.012523 3.345506 2.444210
v -0.012523 0.427972 -2.444210
v -0.012523 0.427972 -0.814737
v -0.012523 1.988647 -0.814737
v -0.012523 1.988647 -2.444210
v -0.012523 0.427972 0.814737
v -0.012523 1.988647 0.814737
v -0.012523 0.427972 2.444210
v -0.012523 1.988647 2.444210
v -0.012523 3.354331 -0.814737
v -0.012523 3.354331 -2.444210
v -0.012523 3.354331 0.814737
v -0.012523 3.354331 2.444210
vt 0.615716 0.328270
vt 0.615716 0.274503
vt 0.616491 0.274503
vt 0.632497 0.328270
vt 0.645292 0.274503
vt 0.640942 0.276276
vt 0.615716 0.382037
vt 0.632497 0.382037
vt 0.640942 0.369969
vt 0.615716 0.435803
vt 0.632497 0.435803
vt 0.640942 0.447870
vt 0.615716 0.489570
vt 0.632497 0.489570
vt 0.640942 0.541564
vt 0.615716 0.543336
vt 0.616491 0.543336
vt 0.645292 0.543336
vt 0.400768 0.632822
vt 0.400768 0.555042
vt 0.483666 0.555042
vt 0.483666 0.632822
vt 0.584518 0.555042
vt 0.584518 0.632822
vt 0.400768 0.710602
vt 0.483666 0.710602
vt 0.584518 0.710602
vt 0.400768 0.788381
vt 0.483666 0.788381
vt 0.584518 0.788381
vt 0.580430 0.276276
vt 0.556295 0.274503
vt 0.610062 0.274503
vt 0.610062 0.328270
vt 0.580430 0.369969
vt 0.610062 0.382037
vt 0.580430 0.447870
vt 0.610062 0.435803
vt 0.580430 0.541564
vt 0.610062 0.489570
vt 0.556295 0.543336
vt 0.610062 0.543336
vt 0.521065 0.551363
vt 0.521065 0.497597
vt 0.537846 0.497597
vt 0.521840 0.551363
vt 0.521065 0.443830
vt 0.537846 0.443830
vt 0.546290 0.549591
vt 0.550641 0.551363
vt 0.521065 0.390064
vt 0.537846 0.390064
vt 0.546290 0.455898
vt 0.521065 0.336297
vt 0.537846 0.336297
vt 0.546290 0.377996
vt 0.521065 0.282531
vt 0.521840 0.282531
vt 0.546290 0.284303
vt 0.550641 0.282531
vt 0.591164 0.780354
vt 0.591164 0.702574
vt 0.706415 0.702574
vt 0.706415 0.780354
vt 0.591164 0.624795
vt 0.706415 0.624795
vt 0.807267 0.702574
vt 0.807267 0.780354
vt 0.591164 0.547015
vt 0.706415 0.547015
vt 0.807267 0.624795
vt 0.807267 0.547015
vt 0.461644 0.551363
vt 0.507264 0.549591
vt 0.515410 0.497597
vt 0.515410 0.551363
vt 0.507264 0.455898
vt 0.515410 0.443830
vt 0.507264 0.377996
vt 0.515410 0.390064
vt 0.507264 0.284303
vt 0.515410 0.336297
vt 0.461644 0.282531
vt 0.515410 0.282531
vt 0.551648 0.001992
vt 0.820481 0.001992
vt 0.820481 0.055759
vt 0.551648 0.055759
vt 0.820481 0.109525
vt 0.551648 0.109525
vt 0.820481 0.163292
vt 0.551648 0.163292
vt 0.820481 0.217058
vt 0.551648 0.217058
vt 0.820481 0.270825
vt 0.551648 0.270825
vt 0.650946 0.274503
vt 0.919779 0.274503
vt 0.919779 0.328270
vt 0.650946 0.328270
vt 0.919779 0.382037
vt 0.650946 0.382037
vt 0.919779 0.435803
vt 0.650946 0.435803
vt 0.919779 0.489570
vt 0.650946 0.489570
vt 0.919779 0.543336
vt 0.650946 0.543336
vt 0.455989 0.454125
vt 0.455989 0.547818
vt 0.419095 0.541245
vt 0.419095 0.444595
vt 0.329174 0.531844
vt 0.329174 0.454064
vt 0.455989 0.376224
vt 0.419095 0.385753
vt 0.329174 0.376284
vt 0.455989 0.282530
vt 0.419095 0.289104
vt 0.329174 0.298505
vt 0.323520 0.282531
vt 0.323520 0.376224
vt 0.286626 0.385754
vt 0.286626 0.289104
vt 0.323520 0.454125
vt 0.286626 0.444595
vt 0.196705 0.376285
vt 0.196705 0.298505
vt 0.323520 0.547818
vt 0.286626 0.541245
vt 0.196705 0.454064
vt 0.196705 0.531844
vt 0.064236 0.547818
vt 0.064236 0.454125
vt 0.101130 0.444595
vt 0.101130 0.541245
vt 0.064236 0.376224
vt 0.101130 0.385754
vt 0.191051 0.454064
vt 0.191051 0.531844
vt 0.064236 0.282531
vt 0.101130 0.289104
vt 0.191051 0.376285
vt 0.191051 0.298505
vt 0.001836 0.645190
vt 0.001836 0.551497
vt 0.038730 0.558070
vt 0.038730 0.654720
vt 0.128651 0.567471
vt 0.128651 0.645251
vt 0.001836 0.723091
vt 0.038730 0.713562
vt 0.128651 0.723031
vt 0.001836 0.816784
vt 0.038730 0.810211
vt 0.128651 0.800810
vt 0.001836 0.274839
vt 0.001836 0.006006
vt 0.002611 0.006006
vt 0.002611 0.274839
vt 0.031412 0.006006
vt 0.031412 0.274839
vt 0.163136 0.006006
vt 0.163136 0.274839
vt 0.027062 0.001992
vt 0.163136 0.001992
vt 0.216902 0.006006
vt 0.216902 0.274839
vt 0.027062 0.278852
vt 0.184621 0.278852
vt 0.241037 0.001992
vt 0.270669 0.006006
vt 0.270669 0.274839
vt 0.262522 0.278852
vt 0.276832 0.274839
vt 0.276832 0.006005
vt 0.330598 0.006005
vt 0.330598 0.274839
vt 0.384364 0.006005
vt 0.384364 0.274839
vt 0.384364 0.001992
vt 0.306463 0.001992
vt 0.516088 0.006005
vt 0.516088 0.274839
vt 0.362879 0.278852
vt 0.284978 0.278852
vt 0.520438 0.001992
vt 0.544889 0.006005
vt 0.544889 0.274839
vt 0.520438 0.278852
vt 0.545664 0.006005
vt 0.545664 0.274839
vt 0.919779 0.784033
vt 0.919779 0.920107
vt 0.882885 0.920107
vt 0.882885 0.789465
vt 0.919779 0.998008
vt 0.882885 0.978948
vt 0.792964 0.873709
vt 0.792964 0.790811
vt 0.792964 0.974561
vt 0.787310 0.861934
vt 0.787310 0.998008
vt 0.750416 0.992576
vt 0.750416 0.861934
vt 0.660495 0.991230
vt 0.660495 0.908332
vt 0.787310 0.784033
vt 0.750416 0.803092
vt 0.660495 0.807480
vt 0.134933 0.709056
vt 0.134933 0.551497
vt 0.171827 0.556929
vt 0.171827 0.719924
vt 0.261748 0.558275
vt 0.261748 0.673526
vt 0.134933 0.786958
vt 0.171827 0.778766
vt 0.261748 0.774378
vt 0.267851 0.786957
vt 0.267851 0.629398
vt 0.304745 0.618530
vt 0.304745 0.781526
vt 0.267851 0.551497
vt 0.304745 0.559688
vt 0.394666 0.664928
vt 0.394666 0.780179
vt 0.394666 0.564076
vn 0.000000 0.000000 1.000000
vn 0.000000 0.000000 1.000000
vn 0.000000 0.000000 1.000000
vn 0.000000 0.000000 1.000000
vn 0.000000 0.000000 1.000000
vn 0.000000 0.000000 1.000000
vn 0.000000 0.000000 1.000000
vn 0.000000 0.000000 1.000000
vn 0.000000 0.000000 1.000000
vn 0.000000 0.000000 1.000000
vn 0.000000 0.000000 1.000000
vn 0.000000 0.000000 1.000000
vn 0.000000 1.000000 0.000000
vn 0.000000 1.000000 0.000000
vn 0.000000 1.000000 0.000000
vn 0.000000 1.000000 0.000000
vn 0.000000 1.000000 0.000000
vn 0.000000 1.000000 0.000000
vn 0.000000 1.000000 0.000000
vn 0.000000 1.000000 0.000000
vn 0.000000 1.000000 0.000000
vn 0.000000 1.000000 0.000000
vn 0.000000 1.000000 0.000000
vn 0.000000 1.000000 0.000000
vn 0.000000 0.000000 -1.000000
vn 0.000000 0.000000 -1.000000
vn 0.000000 0.000000 -1.000000
vn 0.000000 0.000000 -1.000000
vn 0.000000 0.000000 -1.000000
vn 0.000000 0.000000 -1.000000
vn 0.000000 0.000000 -1.000000
vn 0.000000 0.000000 -1.000000
vn 0.000000 0.000000 -1.000000
vn 0.000000 0.000000 -1.000000
vn 0.000000 0.000000 -1.000000
vn 0.000000 0.000000 -1.000000
vn 0.000000 -1.000000 0.000000
vn 0.000000 -1.000000 0.000000
vn 0.000000 -1.000000 0.000000
vn 0.000000 -1.000000 0.000000
vn 0.000000 -1.000000 0.000000
vn 0.000000 -1.000000 0.000000
vn 0.000000 -1.000000 0.000000
vn 0.000000 -1.000000 0.000000
vn 0.000000 -1.000000 0.000000
vn 0.000000 -1.000000 0.000000
vn 0.000000 -1.000000 0.000000
vn 0.000000 -1.000000 0.000000
vn 1.000000 0.000000 0.000000
vn 1.000000 0.000000 0.000000
vn 0.999979 -0.006346 -0.000976
vn 0.999844 -0.017672 -0.000144
vn 1.000000 0.000000 0.000000
vn 0.999893 -0.014648 0.000000
vn 1.000000 0.000000 0.000000
vn 0.999893 -0.014648 0.000000
vn 1.000000 0.000000 0.000000
vn 0.999844 -0.017672 0.000144
vn 1.000000 0.000000 0.000000
vn 0.999979 -0.006346 0.000976
vn 0.998135 -0.006233 -0.060729
vn 0.999796 -0.013073 -0.015385
vn 0.999285 -0.037813 0.000000
vn 0.999285 -0.037813 0.000000
vn 0.999796 -0.013073 0.015385
vn 0.998135 -0.006234 0.060729
vn 0.993279 0.000000 -0.115741
vn 0.993279 0.000000 -0.115741
vn 1.000000 0.000000 0.000000
vn 1.000000 0.000000 0.000000
vn 1.000000 0.000000 0.000000
vn 1.000000 0.000000 0.000000
vn 1.000000 0.000000 0.000000
vn 1.000000 0.000000 0.000000
vn 1.000000 0.000000 0.000000
vn 1.000000 0.000000 0.000000
vn 0.993279 0.000000 0.115742
vn 0.993279 0.000000 0.115742
vn 0.993783 0.001811 -0.111321
vn 0.999023 0.037849 -0.022810
vn 1.000000 0.000000 0.000000
vn 1.000000 0.000000 0.000000
vn 1.000000 0.000000 0.000000
vn 1.000000 0.000000 0.000000
vn 0.999023 0.037848 0.022810
vn 0.993783 0.001811 0.111321
vn 0.999012 0.037318 -0.024121
vn 0.998902 0.046846 -0.000545
vn 0.998892 0.047066 0.000000
vn 0.998892 0.047066 0.000000
vn 0.998892 0.047066 0.000000
vn 0.998892 0.047066 0.000000
vn 0.998902 0.046846 0.000545
vn 0.999012 0.037318 0.024121
vn -1.000000 0.000000 0.000000
vn -1.000000 0.000000 0.000000
vn -0.999844 -0.017672 -0.000144
vn -0.999979 -0.006346 -0.000976
vn -1.000000 0.000000 0.000000
vn -0.999893 -0.014648 0.000000
vn -1.000000 0.000000 0.000000
vn -0.999893 -0.014648 0.000000
vn -1.000000 0.000000 0.000000
vn -0.999844 -0.017672 0.000144
vn -1.000000 0.000000 0.000000
vn -0.999979 -0.006346 0.000976
vn -0.999783 -0.012950 -0.016335
vn -0.998000 -0.005986 -0.062922
vn -0.999285 -0.037813 0.000000
vn -0.999285 -0.037813 0.000000
vn -0.999783 -0.012950 0.016335
vn -0.998001 -0.005986 0.062922
vn -0.993279 0.000000 -0.115742
vn -0.993280 0.000000 -0.115741
vn -1.000000 0.000000 0.000000
vn -1.000000 0.000000 0.000000
vn -1.000000 0.000000 0.000000
vn -1.000000 0.000000 0.000000
vn -1.000000 0.000000 0.000000
vn -1.000000 0.000000 0.000000
vn -1.000000 0.000000 0.000000
vn -1.000000 0.000000 0.000000
vn -0.993279 0.000000 0.115742
vn -0.993279 0.000000 0.115742
vn -0.999282 0.032823 -0.018939
vn -0.993991 0.002149 -0.109441
vn -1.000000 0.000000 0.000000
vn -1.000000 0.000000 0.000000
vn -1.000000 0.000000 0.000000
vn -1.000000 0.000000 0.000000
vn -0.993991 0.002149 0.109441
vn -0.999282 0.032823 0.018939
vn -0.999238 0.039021 -0.000525
vn -0.999265 0.032193 -0.020809
vn -0.999231 0.039197 0.000000
vn -0.999231 0.039197 0.000000
vn -0.999231 0.039197 0.000000
vn -0.999232 0.039197 0.000000
vn -0.999238 0.039020 0.000525
vn -0.999265 0.032193 0.020809
vn 0.879617 0.475683 0.000000
vn 0.879617 0.475683 0.000000
vn 0.879617 0.475683 0.000000
vn 0.879617 0.475683 0.000000
vn 0.960721 0.000000 0.277516
vn 0.960721 0.000000 0.277516
vn 0.960721 0.000000 0.277516
vn 0.960721 0.000000 0.277516
vn 0.879617 0.475683 0.000000
vn 0.879617 0.475683 0.000000
vn 0.879617 0.475683 0.000000
vn 0.879617 0.475683 0.000000
vn 0.879617 0.475683 0.000000
vn 0.879617 0.475683 0.000000
vn 0.879617 0.475683 0.000000
vn 0.879617 0.475683 0.000000
vn 0.960721 0.000000 -0.277516
vn 0.960721 0.000000 -0.277516
vn 0.960721 0.000000 -0.277516
vn 0.960721 0.000000 -0.277516
vn 0.960721 0.000000 0.277516
vn 0.960721 0.000000 0.277516
vn 0.960721 0.000000 0.277516
vn 0.960721 0.000000 0.277516
vn 0.970691 -0.240333 0.000000
vn 0.970690 -0.240333 0.000000
vn 0.970690 -0.240333 0.000000
vn 0.970690 -0.240333 0.000000
vn 0.970691 -0.240333 0.000000
vn 0.970691 -0.240333 0.000000
vn 0.970691 -0.240333 0.000000
vn 0.970691 -0.240333 0.000000
vn 0.970690 -0.240333 0.000000
vn 0.970691 -0.240333 0.000000
vn 0.970691 -0.240333 0.000000
vn 0.970690 -0.240333 0.000000
vn 0.960721 0.000000 -0.277516
vn 0.960721 0.000000 -0.277516
vn 0.960721 0.000000 -0.277516
vn 0.960721 0.000000 -0.277516
vn -0.879617 0.475683 0.000000
vn -0.879617 0.475683 0.000000
vn -0.879617 0.475683 0.000000
vn -0.879617 0.475683 0.000000
vn -0.960721 0.000000 0.277516
vn -0.960721 0.000000 0.277516
vn -0.960721 0.000000 0.277516
vn -0.960721 0.000000 0.277516
vn -0.879617 0.475683 0.000000
vn -0.879617 0.475683 0.000000
vn -0.879617 0.475683 0.000000
vn -0.879617 0.475683 0.000000
vn -0.879617 0.475683 0.000000
vn -0.879617 0.475683 0.000000
vn -0.879617 0.475683 0.000000
vn -0.879617 0.475683 0.000000
vn -0.960721 0.000000 -0.277516
vn -0.960721 0.000000 -0.277516
vn -0.960721 0.000000 -0.277516
vn -0.960721 0.000000 -0.277516
vn -0.941310 -0.337544 0.000000
vn -0.941310 -0.337544 0.000000
vn -0.941310 -0.337544 0.000000
vn -0.941310 -0.337544 0.000000
vn -0.960721 0.000000 0.277516
vn -0.960721 0.000000 0.277516
vn -0.960721 0.000000 0.277516
vn -0.960721 0.000000 0.277516
vn -0.941310 -0.337544 0.000000
vn -0.941310 -0.337544 0.000000
vn -0.941310 -0.337544 0.000000
vn -0.941310 -0.337544 0.000000
vn -0.960721 0.000000 -0.277516
vn -0.960721 0.000000 -0.277516
vn -0.960721 0.000000 -0.277516
vn -0.960721 0.000000 -0.277516
vn -0.941310 -0.337544 0.000000
vn -0.941310 -0.337544 0.000000
vn -0.941310 -0.337544 0.000000
vn -0.941310 -0.337544 0.000000
vn 0.184788 0.982778 0.000000
vn 0.184788 0.982778 0.000000
vn 0.184788 0.982778 0.000000
vn 0.184788 0.982778 0.000000
vn 0.897194 0.000000 0.441638
vn 0.897194 0.000000 0.441638
vn 0.897194 0.000000 0.441638
vn 0.897194 0.000000 0.441638
vn 0.184788 0.982778 0.000000
vn 0.184788 0.982778 0.000000
vn 0.184788 0.982778 0.000000
vn 0.184788 0.982778 0.000000
vn 0.184788 0.982778 0.000000
vn 0.184788 0.982778 0.000000
vn 0.184788 0.982778 0.000000
vn 0.184788 0.982778 0.000000
vn 0.897193 0.000000 -0.441638
vn 0.897193 0.000000 -0.441638
vn 0.897194 0.000000 -0.441638
vn 0.897193 0.000000 -0.441638
vn 0.897193 0.000000 0.441638
vn 0.897193 0.000000 0.441638
vn 0.897193 0.000000 0.441638
vn 0.897193 0.000000 0.441638
vn 0.356447 -0.934316 0.000000
vn 0.356447 -0.934316 0.000000
vn 0.356447 -0.934316 0.000000
vn 0.356447 -0.934316 0.000000
vn 0.356447 -0.934316 0.000000
vn 0.356447 -0.934316 0.000000
vn 0.356447 -0.934316 0.000000
vn 0.356447 -0.934316 0.000000
vn 0.356447 -0.934316 0.000000
vn 0.356447 -0.934316 0.000000
vn 0.356447 -0.934316 0.000000
vn 0.356447 -0.934316 0.000000
vn 0.897193 0.000000 -0.441638
vn 0.897193 0.000000 -0.441638
vn 0.897193 0.000000 -0.441638
vn 0.897193 0.000000 -0.441638
vn -0.184810 0.982774 0.000000
vn -0.184809 0.982774 0.000000
vn -0.184809 0.982774 0.000000
vn -0.184809 0.982774 0.000000
vn -0.897193 0.000000 0.441638
vn -0.897193 0.000000 0.441638
vn -0.897193 0.000000 0.441638
vn -0.897194 0.000000 0.441638
vn -0.184809 0.982774 0.000000
vn -0.184809 0.982774 0.000000
vn -0.184809 0.982774 0.000000
vn -0.184809 0.982774 0.000000
vn -0.184809 0.982774 0.000000
vn -0.184809 0.982774 0.000000
vn -0.184809 0.982774 0.000000
vn -0.184809 0.982774 0.000000
vn -0.897193 0.000000 -0.441638
vn -0.897193 0.000000 -0.441638
vn -0.897193 0.000000 -0.441638
vn -0.897193 0.000000 -0.441638
vn -0.522549 -0.852609 0.000000
vn -0.522549 -0.852609 0.000000
vn -0.522549 -0.852609 0.000000
vn -0.522549 -0.852609 0.000000
vn -0.897193 0.000000 0.441638
vn -0.897193 0.000000 0.441638
vn -0.897193 0.000000 0.441638
vn -0.897193 0.000000 0.441638
vn -0.522549 -0.852609 0.000000
vn -0.522549 -0.852609 0.000000
vn -0.522549 -0.852609 0.000000
vn -0.522549 -0.852609 0.000000
vn -0.897193 0.000000 -0.441638
vn -0.897193 0.000000 -0.441638
vn -0.897193 0.000000 -0.441638
vn -0.897193 0.000000 -0.441638
vn -0.522549 -0.852609 0.000000
vn -0.522549 -0.852609 0.000000
vn -0.522549 -0.852609 0.000000
vn -0.522549 -0.852609 0.000000
s 1
g pCube1
usemtl lambert5SG
f 1/157/1 2/158/2 4/159/3 3/160/4
f 3/160/4 4/159/3 6/161/5 5/162/6
f 5/162/6 6/161/5 8/163/7 7/164/8
f 7/164/8 8/163/7 10/167/9 9/168/10
f 9/168/10 10/167/9 12/172/11 11/173/12
s 2
f 11/85/13 12/86/14 14/87/15 13/88/16
f 13/88/16 14/87/15 16/89/17 15/90/18
f 15/90/18 16/89/17 18/91/19 17/92/20
f 17/92/20 18/91/19 20/93/21 19/94/22
f 19/94/22 20/93/21 22/95/23 21/96/24
s 3
f 21/175/25 22/176/26 24/177/27 23/178/28
f 23/178/28 24/177/27 26/179/29 25/180/30
f 25/180/30 26/179/29 28/183/31 27/184/32
f 27/184/32 28/183/31 30/188/33 29/189/34
f 29/189/34 30/188/33 32/191/35 31/192/36
s 4
f 31/97/37 32/98/38 34/99/39 33/100/40
f 33/100/40 34/99/39 36/101/41 35/102/42
f 35/102/42 36/101/41 38/103/43 37/104/44
f 37/104/44 38/103/43 40/105/45 39/106/46
f 39/106/46 40/105/45 2/107/47 1/108/48
s 5
f 34/1/49 32/2/50 30/3/51 41/4/52
f 36/7/53 34/1/49 41/4/52 42/8/54
f 38/10/55 36/7/53 42/8/54 43/11/56
f 40/13/57 38/10/55 43/11/56 44/14/58
f 2/16/59 40/13/57 44/14/58 4/17/60
f 41/4/52 30/3/51 28/5/61 45/6/62
f 42/8/54 41/4/52 45/6/62 46/9/63
f 43/11/56 42/8/54 46/9/63 47/12/64
f 44/14/58 43/11/56 47/12/64 48/15/65
f 4/17/60 44/14/58 48/15/65 6/18/66
f 45/187/62 28/183/61 26/179/67 49/181/68
s 6
f 90/19/69 89/20/70 91/21/71 92/22/72
f 93/25/73 90/19/69 92/22/72 94/26/74
f 95/28/75 93/25/73 94/26/74 96/29/76
s 5
f 6/161/66 48/165/65 50/166/77 8/163/78
f 49/181/68 26/179/67 24/177/79 51/182/80
s 6
f 92/22/72 91/21/71 97/23/81 98/24/82
f 94/26/74 92/22/72 98/24/82 99/27/83
f 96/29/76 94/26/74 99/27/83 100/30/84
s 5
f 8/163/78 50/166/77 54/171/85 10/167/86
f 51/31/80 24/32/79 22/33/87 20/34/88
f 52/35/89 51/31/80 20/34/88 18/36/90
f 53/37/91 52/35/89 18/36/90 16/38/92
f 54/39/85 53/37/91 16/38/92 14/40/93
f 10/41/86 54/39/85 14/40/93 12/42/94
s 7
f 31/43/95 33/44/96 55/45/97 29/46/98
f 33/44/96 35/47/99 56/48/100 55/45/97
f 35/47/99 37/51/101 57/52/102 56/48/100
f 37/51/101 39/54/103 58/55/104 57/52/102
f 39/54/103 1/57/105 3/58/106 58/55/104
f 29/46/98 55/45/97 59/49/107 27/50/108
f 55/45/97 56/48/100 60/53/109 59/49/107
f 56/48/100 57/52/102 61/56/110 60/53/109
f 57/52/102 58/55/104 62/59/111 61/56/110
f 58/55/104 3/58/106 5/60/112 62/59/111
f 27/184/108 59/190/107 63/185/113 25/180/114
s 8
f 101/61/115 102/62/116 103/63/117 104/64/118
f 102/62/116 105/65/119 106/66/120 103/63/117
f 105/65/119 107/69/121 108/70/122 106/66/120
s 7
f 62/169/111 5/162/112 7/164/123 64/170/124
f 25/180/114 63/185/113 65/186/125 23/178/126
s 8
f 104/64/118 103/63/117 109/67/127 110/68/128
f 103/63/117 106/66/120 111/71/129 109/67/127
f 106/66/120 108/70/122 112/72/130 111/71/129
s 7
f 64/170/124 7/164/123 9/168/131 68/174/132
f 23/73/126 65/74/125 19/75/133 21/76/134
f 65/74/125 66/77/135 17/78/136 19/75/133
f 66/77/135 67/79/137 15/80/138 17/78/136
f 67/79/137 68/81/132 13/82/139 15/80/138
f 68/81/132 9/83/131 11/84/140 13/82/139
s off
f 46/109/141 45/110/142 69/111/143 70/112/144
f 45/193/145 49/194/146 71/195/147 69/196/148
f 47/115/149 46/109/150 70/112/151 72/116/152
f 48/118/153 47/115/154 72/116/155 73/119/156
f 50/202/157 48/203/158 73/204/159 74/205/160
f 49/194/161 51/197/162 75/198/163 71/195/164
f 51/121/165 52/122/166 76/123/167 75/124/168
f 52/122/169 53/125/170 77/126/171 76/123/172
f 53/125/173 54/129/174 78/130/175 77/126/176
f 54/208/177 50/202/178 74/205/179 78/209/180
f 59/133/181 60/134/182 80/135/183 79/136/184
f 63/211/185 59/212/186 79/213/187 81/214/188
f 60/134/189 61/137/190 82/138/191 80/135/192
f 61/137/193 62/141/194 83/142/195 82/138/196
f 62/220/197 64/221/198 84/222/199 83/223/200
f 66/145/201 65/146/202 86/147/203 85/148/204
f 65/217/205 63/211/206 81/214/207 86/218/208
f 67/151/209 66/145/210 85/148/211 87/152/212
f 64/221/213 68/224/214 88/225/215 84/222/216
f 68/154/217 67/151/218 87/152/219 88/155/220
f 70/112/221 69/111/222 89/113/223 90/114/224
f 69/196/225 71/195/226 91/199/227 89/200/228
f 72/116/229 70/112/230 90/114/231 93/117/232
f 73/119/233 72/116/234 93/117/235 95/120/236
f 74/205/237 73/204/238 95/206/239 96/207/240
f 71/195/241 75/198/242 97/201/243 91/199/244
f 75/124/245 76/123/246 98/127/247 97/128/248
f 76/123/249 77/126/250 99/131/251 98/127/252
f 77/126/253 78/130/254 100/132/255 99/131/256
f 78/209/257 74/205/258 96/207/259 100/210/260
f 79/136/261 80/135/262 102/139/263 101/140/264
f 81/214/265 79/213/266 101/215/267 104/216/268
f 80/135/269 82/138/270 105/143/271 102/139/272
f 82/138/273 83/142/274 107/144/275 105/143/276
f 83/223/277 84/222/278 108/226/279 107/227/280
f 85/148/281 86/147/282 110/149/283 109/150/284
f 86/218/285 81/214/286 104/216/287 110/219/288
f 87/152/289 85/148/290 109/150/291 111/153/292
f 84/222/293 88/225/294 112/228/295 108/226/296
f 88/155/297 87/152/298 111/153/299 112/156/300
