# This file uses centimeters as units for non-parametric coordinates.

mtllib kabe1.mtl
g default
v -0.130198 -0.018545 2.828901
v 0.130198 -0.018545 2.828901
v -0.130198 3.632070 2.828901
v 0.130198 3.632070 2.828901
v -0.130198 3.632070 -2.827241
v 0.130198 3.632070 -2.827241
v -0.130198 -0.018545 -2.827241
v 0.130198 -0.018545 -2.827241
vt 0.077245 0.652251
vt 0.077245 0.001302
vt 0.497384 0.001302
vt 0.497384 0.652251
vt 0.503879 0.652252
vt 0.503879 0.001302
vt 0.924018 0.001302
vt 0.924018 0.652252
vt 0.001992 0.001302
vt 0.031960 0.001302
vt 0.031960 0.652251
vt 0.001992 0.652251
vt 0.039717 0.001302
vt 0.069686 0.001302
vt 0.069686 0.652252
vt 0.039717 0.652252
vt 0.930512 0.001302
vt 0.960480 0.001302
vt 0.960480 0.421441
vt 0.930512 0.421441
vt 0.968040 0.001302
vt 0.998008 0.001302
vt 0.998008 0.421441
vt 0.968040 0.421441
vn 0.000000 0.000000 1.000000
vn 0.000000 0.000000 1.000000
vn 0.000000 0.000000 1.000000
vn 0.000000 0.000000 1.000000
vn 0.000000 1.000000 0.000000
vn 0.000000 1.000000 0.000000
vn 0.000000 1.000000 0.000000
vn 0.000000 1.000000 0.000000
vn 0.000000 0.000000 -1.000000
vn 0.000000 0.000000 -1.000000
vn 0.000000 0.000000 -1.000000
vn 0.000000 0.000000 -1.000000
vn 0.000000 -1.000000 0.000000
vn 0.000000 -1.000000 0.000000
vn 0.000000 -1.000000 0.000000
vn 0.000000 -1.000000 0.000000
vn 1.000000 0.000000 0.000000
vn 1.000000 0.000000 0.000000
vn 1.000000 0.000000 0.000000
vn 1.000000 0.000000 0.000000
vn -1.000000 0.000000 0.000000
vn -1.000000 0.000000 0.000000
vn -1.000000 0.000000 0.000000
vn -1.000000 0.000000 0.000000
s off
g kabe2:pCube1
usemtl lambert7SG
f 1/17/1 2/18/2 4/19/3 3/20/4
f 3/9/5 4/10/6 6/11/7 5/12/8
f 5/21/9 6/22/10 8/23/11 7/24/12
f 7/13/13 8/14/14 2/15/15 1/16/16
f 2/1/17 8/2/18 6/3/19 4/4/20
f 7/5/21 1/6/22 3/7/23 5/8/24
